<svg width="357" height="401" viewBox="0 0 357 401" fill="none" xmlns="http://www.w3.org/2000/svg">
<g clip-path="url(#clip0_62_3171)">
<rect y="0.345947" width="357" height="400" rx="12.226" fill="#E9473E"/>
<path d="M35.7685 273.902H40.4046L34.5948 287.752C33.558 290.295 32.3941 292.055 31.103 293.033C29.8315 294.012 28.0807 294.501 25.8507 294.501H25.0291V290.363H26.3202C27.2396 290.363 27.9438 290.226 28.4328 289.952C28.9219 289.679 29.3718 289.16 29.7826 288.397L22.1535 273.902H27.1418L32.0126 283.292L35.7685 273.902ZM43.1256 278.597H54.4518V294.442H50.2558V282.323H46.6174L46.0892 287.957C45.8545 290.344 45.2187 292.036 44.1819 293.033C43.1452 294.031 41.59 294.53 39.5165 294.53H38.8123V290.657H39.8686C40.4555 290.657 40.9445 290.451 41.3357 290.041C41.727 289.63 41.9617 289.043 42.0399 288.28L43.1256 278.597ZM69.5059 278.597H74.0833L67.1585 294.236C66.1804 296.427 65.1827 297.963 64.1655 298.843C63.1483 299.724 61.7692 300.164 60.0283 300.164H58.2677V296.29H59.7642C60.7814 296.29 61.5052 296.105 61.9355 295.733C62.3659 295.361 62.8353 294.569 63.344 293.356L63.4026 293.239L56.6832 278.597H61.3487L65.574 288.339L69.5059 278.597ZM84.7218 278.597H88.8884V294.442H84.7218V289.307C83.8219 289.6 82.8634 289.747 81.8462 289.747C79.8118 289.747 78.1882 289.15 76.9754 287.957C75.7821 286.744 75.1855 285.111 75.1855 283.057V278.597H79.3814V283.116C79.3814 285.052 80.3106 286.021 82.169 286.021C83.1471 286.021 83.998 285.815 84.7218 285.404V278.597ZM109.407 278.597H113.603V294.442H93.0041V278.597H97.2001V290.51H101.279V278.597H105.357V290.51H109.407V278.597ZM133.08 286.461C133.08 286.872 133.051 287.292 132.992 287.722H121.02C121.196 288.798 121.617 289.63 122.282 290.217C122.967 290.784 123.837 291.068 124.893 291.068C125.617 291.068 126.273 290.911 126.859 290.598C127.446 290.265 127.906 289.816 128.238 289.248H132.757C132.17 290.97 131.173 292.339 129.764 293.356C128.356 294.373 126.732 294.882 124.893 294.882C122.546 294.882 120.59 294.08 119.025 292.476C117.46 290.872 116.678 288.886 116.678 286.519C116.678 285.58 116.805 284.681 117.059 283.82C117.333 282.959 117.714 282.187 118.203 281.502C118.712 280.817 119.299 280.23 119.964 279.741C120.629 279.233 121.382 278.841 122.223 278.568C123.064 278.294 123.954 278.157 124.893 278.157C126.478 278.157 127.896 278.528 129.148 279.272C130.42 280.015 131.388 281.023 132.053 282.294C132.738 283.566 133.08 284.954 133.08 286.461ZM124.893 281.795C123.935 281.795 123.123 282.059 122.458 282.588C121.812 283.116 121.372 283.849 121.138 284.788H128.796C128.6 284.143 128.317 283.605 127.945 283.174C127.573 282.724 127.123 282.382 126.595 282.147C126.087 281.913 125.519 281.795 124.893 281.795ZM146.165 278.597H150.449V294.442H146.165V288.368H140.414V294.442H136.13V278.597H140.414V284.465H146.165V278.597ZM166.086 278.597H168.492V294.442H164.355V286.05L156.99 294.442H154.555V278.597H158.692V286.901L166.086 278.597ZM187.982 286.461C187.982 286.872 187.953 287.292 187.894 287.722H175.923C176.099 288.798 176.519 289.63 177.184 290.217C177.869 290.784 178.74 291.068 179.796 291.068C180.52 291.068 181.175 290.911 181.762 290.598C182.349 290.265 182.808 289.816 183.141 289.248H187.66C187.073 290.97 186.075 292.339 184.667 293.356C183.258 294.373 181.635 294.882 179.796 294.882C177.449 294.882 175.492 294.08 173.927 292.476C172.363 290.872 171.58 288.886 171.58 286.519C171.58 285.58 171.707 284.681 171.962 283.82C172.235 282.959 172.617 282.187 173.106 281.502C173.614 280.817 174.201 280.23 174.866 279.741C175.532 279.233 176.285 278.841 177.126 278.568C177.967 278.294 178.857 278.157 179.796 278.157C181.38 278.157 182.799 278.528 184.051 279.272C185.322 280.015 186.29 281.023 186.956 282.294C187.64 283.566 187.982 284.954 187.982 286.461ZM179.796 281.795C178.837 281.795 178.026 282.059 177.361 282.588C176.715 283.116 176.275 283.849 176.04 284.788H183.698C183.503 284.143 183.219 283.605 182.848 283.174C182.476 282.724 182.026 282.382 181.498 282.147C180.989 281.913 180.422 281.795 179.796 281.795ZM211.051 278.597V282.441H205.887V294.442H201.691V282.441H196.527V278.597H211.051ZM228.672 286.461C228.672 286.872 228.643 287.292 228.584 287.722H216.612C216.789 288.798 217.209 289.63 217.874 290.217C218.559 290.784 219.429 291.068 220.486 291.068C221.209 291.068 221.865 290.911 222.452 290.598C223.038 290.265 223.498 289.816 223.831 289.248H228.349C227.763 290.97 226.765 292.339 225.357 293.356C223.948 294.373 222.324 294.882 220.486 294.882C218.138 294.882 216.182 294.08 214.617 292.476C213.052 290.872 212.27 288.886 212.27 286.519C212.27 285.58 212.397 284.681 212.651 283.82C212.925 282.959 213.307 282.187 213.796 281.502C214.304 280.817 214.891 280.23 215.556 279.741C216.221 279.233 216.974 278.841 217.816 278.568C218.657 278.294 219.547 278.157 220.486 278.157C222.07 278.157 223.488 278.528 224.74 279.272C226.012 280.015 226.98 281.023 227.645 282.294C228.33 283.566 228.672 284.954 228.672 286.461ZM220.486 281.795C219.527 281.795 218.715 282.059 218.05 282.588C217.405 283.116 216.965 283.849 216.73 284.788H224.388C224.193 284.143 223.909 283.605 223.537 283.174C223.166 282.724 222.716 282.382 222.188 282.147C221.679 281.913 221.112 281.795 220.486 281.795ZM246.276 294.442H241.111L236.006 286.872V294.442H231.722V278.597H236.006V285.639L240.818 278.597H245.689L240.319 286.167L246.276 294.442ZM254.847 294.882C253.282 294.882 251.854 294.52 250.563 293.796C249.291 293.053 248.284 292.036 247.541 290.745C246.817 289.454 246.455 288.026 246.455 286.461C246.455 284.094 247.257 282.118 248.861 280.534C250.465 278.949 252.47 278.157 254.876 278.157C256.93 278.157 258.691 278.753 260.158 279.947C261.625 281.12 262.554 282.685 262.945 284.642H258.691C258.339 283.879 257.82 283.282 257.136 282.852C256.47 282.402 255.708 282.177 254.847 282.177C253.693 282.177 252.724 282.588 251.942 283.409C251.179 284.231 250.798 285.258 250.798 286.49C250.798 287.722 251.189 288.759 251.971 289.6C252.754 290.442 253.712 290.862 254.847 290.862C255.708 290.862 256.47 290.637 257.136 290.187C257.801 289.718 258.319 289.053 258.691 288.192H263.004C262.613 290.207 261.674 291.83 260.187 293.063C258.701 294.276 256.92 294.882 254.847 294.882ZM278.619 278.597V282.441H273.455V294.442H269.259V282.441H264.095V278.597H278.619ZM293.805 278.568H297.003V294.413H293.629L293.277 293.004C291.829 294.256 290.117 294.882 288.142 294.882C285.755 294.882 283.77 294.09 282.185 292.505C280.62 290.901 279.838 288.896 279.838 286.49C279.838 284.104 280.62 282.118 282.185 280.534C283.77 278.949 285.755 278.157 288.142 278.157C290.156 278.157 291.888 278.802 293.335 280.093L293.805 278.568ZM285.383 289.6C286.205 290.422 287.232 290.833 288.464 290.833C289.716 290.833 290.753 290.422 291.575 289.6C292.396 288.779 292.807 287.742 292.807 286.49C292.807 285.238 292.396 284.201 291.575 283.38C290.753 282.558 289.726 282.147 288.494 282.147C287.672 282.147 286.929 282.343 286.264 282.734C285.618 283.106 285.11 283.624 284.738 284.289C284.366 284.935 284.18 285.668 284.18 286.49C284.18 287.742 284.581 288.779 285.383 289.6Z" fill="white"/>
<path d="M23.639 314.396H33.267V327.233H31.1397V316.358H25.748V327.233H23.639V314.396ZM41.6328 317.091C42.6108 317.091 43.4911 317.318 44.2736 317.77C45.056 318.21 45.6674 318.828 46.1075 319.622C46.5476 320.417 46.7677 321.303 46.7677 322.281C46.7677 323.773 46.2787 325.014 45.3006 326.004C44.3347 326.982 43.1121 327.471 41.6328 327.471C40.3613 327.471 39.267 327.074 38.3501 326.279V330.791H36.3144V317.33H37.6899L38.075 318.54C39.0286 317.574 40.2145 317.091 41.6328 317.091ZM39.157 324.61C39.7683 325.222 40.5385 325.527 41.4677 325.527C42.4091 325.527 43.1855 325.222 43.7968 324.61C44.4081 323.987 44.7137 323.211 44.7137 322.281C44.7137 321.352 44.4081 320.582 43.7968 319.971C43.1855 319.347 42.4152 319.035 41.4861 319.035C40.8747 319.035 40.3185 319.176 39.8172 319.457C39.3159 319.738 38.9247 320.13 38.6435 320.631C38.3745 321.12 38.24 321.67 38.24 322.281C38.24 323.211 38.5457 323.987 39.157 324.61ZM57.3026 326.004C56.3001 326.982 55.0408 327.471 53.5248 327.471C52.0087 327.471 50.7433 326.982 49.7286 326.004C48.7261 325.014 48.2248 323.773 48.2248 322.281C48.2248 321.303 48.451 320.417 48.9033 319.622C49.3679 318.828 50.0037 318.21 50.8106 317.77C51.6297 317.318 52.5345 317.091 53.5248 317.091C54.5151 317.091 55.4137 317.318 56.2206 317.77C57.0398 318.21 57.6755 318.828 58.1279 319.622C58.5925 320.417 58.8248 321.303 58.8248 322.281C58.8248 323.773 58.3174 325.014 57.3026 326.004ZM53.5248 325.527C54.1483 325.527 54.7046 325.393 55.1936 325.124C55.6827 324.843 56.0617 324.458 56.3306 323.969C56.6118 323.467 56.7524 322.905 56.7524 322.281C56.7524 321.34 56.4468 320.564 55.8355 319.952C55.2364 319.341 54.4662 319.035 53.5248 319.035C52.5834 319.035 51.807 319.341 51.1957 319.952C50.5966 320.564 50.2971 321.34 50.2971 322.281C50.2971 323.223 50.5966 323.999 51.1957 324.61C51.807 325.222 52.5834 325.527 53.5248 325.527ZM67.7054 322.061C67.9377 322.159 68.1456 322.287 68.329 322.446C68.5246 322.593 68.6896 322.77 68.8241 322.978C68.9586 323.174 69.0625 323.394 69.1359 323.638C69.2092 323.883 69.2459 324.134 69.2459 324.39C69.2459 325.197 68.9525 325.876 68.3656 326.426C67.7788 326.964 67.0452 327.233 66.165 327.233H60.9933V317.33H66.0916C66.923 317.33 67.6015 317.568 68.1272 318.045C68.6652 318.51 68.9341 319.115 68.9341 319.861C68.9341 320.325 68.8241 320.753 68.604 321.144C68.384 321.536 68.0844 321.841 67.7054 322.061ZM66.9169 320.191C66.9169 319.848 66.8007 319.573 66.5684 319.365C66.3483 319.158 66.0549 319.054 65.6881 319.054H62.9923V321.328H65.6881C66.0549 321.328 66.3483 321.224 66.5684 321.016C66.8007 320.808 66.9169 320.533 66.9169 320.191ZM65.7982 325.454C66.2016 325.454 66.5256 325.338 66.7701 325.106C67.0269 324.873 67.1553 324.58 67.1553 324.225C67.1553 323.859 67.0269 323.559 66.7701 323.327C66.5134 323.094 66.1833 322.978 65.7798 322.978H62.9923V325.454H65.7982ZM80.9498 322.3C80.9498 322.483 80.9376 322.709 80.9131 322.978H72.8806C73.0029 323.773 73.333 324.403 73.8709 324.867C74.4211 325.332 75.0996 325.564 75.9066 325.564C76.2978 325.564 76.6646 325.509 77.0069 325.399C77.3492 325.277 77.6488 325.112 77.9055 324.904C78.1745 324.684 78.3946 324.421 78.5657 324.115H80.7114C80.3202 325.167 79.6966 325.992 78.8408 326.591C77.985 327.178 77.0069 327.471 75.9066 327.471C74.4517 327.471 73.2352 326.976 72.2571 325.986C71.2912 324.996 70.8083 323.761 70.8083 322.281C70.8083 320.802 71.2912 319.567 72.2571 318.577C73.2352 317.587 74.4517 317.091 75.9066 317.091C76.8969 317.091 77.7771 317.33 78.5474 317.807C79.3176 318.271 79.9106 318.901 80.3263 319.696C80.742 320.478 80.9498 321.346 80.9498 322.3ZM75.9066 318.925C75.1486 318.925 74.5006 319.139 73.9626 319.567C73.4369 319.995 73.0885 320.582 72.9173 321.328H78.9142C78.7919 320.826 78.5902 320.399 78.309 320.044C78.0278 319.677 77.6793 319.402 77.2637 319.219C76.8602 319.023 76.4078 318.925 75.9066 318.925ZM88.4296 317.091C89.4076 317.091 90.2879 317.318 91.0704 317.77C91.8528 318.21 92.4641 318.828 92.9043 319.622C93.3444 320.417 93.5645 321.303 93.5645 322.281C93.5645 323.773 93.0754 325.014 92.0974 326.004C91.1315 326.982 89.9089 327.471 88.4296 327.471C87.158 327.471 86.0638 327.074 85.1469 326.279V330.791H83.1112V317.33H84.4867L84.8718 318.54C85.8254 317.574 87.0113 317.091 88.4296 317.091ZM85.9538 324.61C86.5651 325.222 87.3353 325.527 88.2645 325.527C89.2059 325.527 89.9823 325.222 90.5936 324.61C91.2049 323.987 91.5105 323.211 91.5105 322.281C91.5105 321.352 91.2049 320.582 90.5936 319.971C89.9823 319.347 89.212 319.035 88.2828 319.035C87.6715 319.035 87.1153 319.176 86.614 319.457C86.1127 319.738 85.7215 320.13 85.4403 320.631C85.1713 321.12 85.0368 321.67 85.0368 322.281C85.0368 323.211 85.3425 323.987 85.9538 324.61ZM101.99 327.233L99.0195 323.015H97.7908V327.233H95.7551V317.33H97.7908V321.163H99.0378L101.734 317.33H104.136L100.78 322.08L104.503 327.233H101.99ZM113.877 317.33H115.454V327.233H113.803L113.601 326.023C112.648 326.988 111.456 327.471 110.025 327.471C108.546 327.471 107.311 326.976 106.321 325.986C105.343 324.996 104.854 323.761 104.854 322.281C104.854 320.79 105.343 319.555 106.321 318.577C107.311 317.587 108.546 317.091 110.025 317.091C111.48 317.091 112.685 317.58 113.638 318.559L113.877 317.33ZM107.843 324.61C108.467 325.222 109.243 325.527 110.172 325.527C111.113 325.527 111.884 325.222 112.483 324.61C113.094 323.987 113.4 323.211 113.4 322.281C113.4 321.34 113.094 320.564 112.483 319.952C111.884 319.341 111.113 319.035 110.172 319.035C109.561 319.035 109.004 319.176 108.503 319.457C108.014 319.738 107.629 320.13 107.348 320.631C107.067 321.12 106.926 321.67 106.926 322.281C106.926 323.211 107.232 323.987 107.843 324.61ZM129.579 317.33H131.578V327.233H129.579V323.088H124.994V327.233H122.977V317.33H124.994V321.218H129.579V317.33ZM142.764 317.33H144.341V327.233H142.691L142.489 326.023C141.535 326.988 140.343 327.471 138.913 327.471C137.434 327.471 136.199 326.976 135.208 325.986C134.23 324.996 133.741 323.761 133.741 322.281C133.741 320.79 134.23 319.555 135.208 318.577C136.199 317.587 137.434 317.091 138.913 317.091C140.368 317.091 141.572 317.58 142.526 318.559L142.764 317.33ZM136.731 324.61C137.354 325.222 138.13 325.527 139.06 325.527C140.001 325.527 140.771 325.222 141.37 324.61C141.982 323.987 142.287 323.211 142.287 322.281C142.287 321.34 141.982 320.564 141.37 319.952C140.771 319.341 140.001 319.035 139.06 319.035C138.448 319.035 137.892 319.176 137.391 319.457C136.902 319.738 136.517 320.13 136.235 320.631C135.954 321.12 135.814 321.67 135.814 322.281C135.814 323.211 136.119 323.987 136.731 324.61ZM160.209 326.004C159.206 326.982 157.947 327.471 156.431 327.471C154.915 327.471 153.65 326.982 152.635 326.004C151.632 325.014 151.131 323.773 151.131 322.281C151.131 321.303 151.357 320.417 151.81 319.622C152.274 318.828 152.91 318.21 153.717 317.77C154.536 317.318 155.441 317.091 156.431 317.091C157.421 317.091 158.32 317.318 159.127 317.77C159.946 318.21 160.582 318.828 161.034 319.622C161.499 320.417 161.731 321.303 161.731 322.281C161.731 323.773 161.224 325.014 160.209 326.004ZM156.431 325.527C157.055 325.527 157.611 325.393 158.1 325.124C158.589 324.843 158.968 324.458 159.237 323.969C159.518 323.467 159.659 322.905 159.659 322.281C159.659 321.34 159.353 320.564 158.742 319.952C158.143 319.341 157.373 319.035 156.431 319.035C155.49 319.035 154.713 319.341 154.102 319.952C153.503 320.564 153.203 321.34 153.203 322.281C153.203 323.223 153.503 323.999 154.102 324.61C154.713 325.222 155.49 325.527 156.431 325.527ZM169.218 317.091C170.196 317.091 171.076 317.318 171.859 317.77C172.641 318.21 173.253 318.828 173.693 319.622C174.133 320.417 174.353 321.303 174.353 322.281C174.353 323.773 173.864 325.014 172.886 326.004C171.92 326.982 170.697 327.471 169.218 327.471C167.947 327.471 166.852 327.074 165.935 326.279V330.791H163.9V317.33H165.275L165.66 318.54C166.614 317.574 167.8 317.091 169.218 317.091ZM166.742 324.61C167.354 325.222 168.124 325.527 169.053 325.527C169.994 325.527 170.771 325.222 171.382 324.61C171.993 323.987 172.299 323.211 172.299 322.281C172.299 321.352 171.993 320.582 171.382 319.971C170.771 319.347 170 319.035 169.071 319.035C168.46 319.035 167.904 319.176 167.402 319.457C166.901 319.738 166.51 320.13 166.229 320.631C165.96 321.12 165.825 321.67 165.825 322.281C165.825 323.211 166.131 323.987 166.742 324.61ZM187.951 322.318C187.951 323.773 187.468 324.977 186.502 325.931C185.548 326.884 184.332 327.398 182.852 327.471V330.351H180.908V327.471C179.429 327.398 178.206 326.884 177.241 325.931C176.287 324.977 175.81 323.773 175.81 322.318C175.81 320.863 176.293 319.647 177.259 318.669C178.225 317.69 179.441 317.165 180.908 317.091V314.322H182.852V317.091C184.319 317.165 185.536 317.69 186.502 318.669C187.468 319.634 187.951 320.851 187.951 322.318ZM177.809 322.3C177.809 323.204 178.096 323.962 178.671 324.574C179.258 325.185 180.01 325.521 180.927 325.582V318.98C180.01 319.041 179.258 319.384 178.671 320.007C178.096 320.631 177.809 321.395 177.809 322.3ZM182.834 325.582C183.751 325.521 184.497 325.185 185.071 324.574C185.658 323.962 185.952 323.204 185.952 322.3C185.952 321.395 185.658 320.631 185.071 320.007C184.484 319.384 183.739 319.041 182.834 318.98V325.582ZM198.463 326.004C197.461 326.982 196.201 327.471 194.685 327.471C193.169 327.471 191.904 326.982 190.889 326.004C189.887 325.014 189.385 323.773 189.385 322.281C189.385 321.303 189.611 320.417 190.064 319.622C190.528 318.828 191.164 318.21 191.971 317.77C192.79 317.318 193.695 317.091 194.685 317.091C195.676 317.091 196.574 317.318 197.381 317.77C198.2 318.21 198.836 318.828 199.288 319.622C199.753 320.417 199.985 321.303 199.985 322.281C199.985 323.773 199.478 325.014 198.463 326.004ZM194.685 325.527C195.309 325.527 195.865 325.393 196.354 325.124C196.843 324.843 197.222 324.458 197.491 323.969C197.772 323.467 197.913 322.905 197.913 322.281C197.913 321.34 197.607 320.564 196.996 319.952C196.397 319.341 195.627 319.035 194.685 319.035C193.744 319.035 192.967 319.341 192.356 319.952C191.757 320.564 191.458 321.34 191.458 322.281C191.458 323.223 191.757 323.999 192.356 324.61C192.967 325.222 193.744 325.527 194.685 325.527ZM208.481 317.33V319.145H204.153V327.233H202.154V317.33H208.481ZM215.567 317.091C216.545 317.091 217.425 317.318 218.208 317.77C218.99 318.21 219.602 318.828 220.042 319.622C220.482 320.417 220.702 321.303 220.702 322.281C220.702 323.773 220.213 325.014 219.235 326.004C218.269 326.982 217.046 327.471 215.567 327.471C214.296 327.471 213.201 327.074 212.284 326.279V330.791H210.249V317.33H211.624L212.009 318.54C212.963 317.574 214.149 317.091 215.567 317.091ZM213.091 324.61C213.703 325.222 214.473 325.527 215.402 325.527C216.343 325.527 217.12 325.222 217.731 324.61C218.342 323.987 218.648 323.211 218.648 322.281C218.648 321.352 218.342 320.582 217.731 319.971C217.12 319.347 216.35 319.035 215.42 319.035C214.809 319.035 214.253 319.176 213.752 319.457C213.25 319.738 212.859 320.13 212.578 320.631C212.309 321.12 212.174 321.67 212.174 322.281C212.174 323.211 212.48 323.987 213.091 324.61ZM231.182 317.33H232.759V327.233H231.109L230.907 326.023C229.953 326.988 228.761 327.471 227.331 327.471C225.851 327.471 224.617 326.976 223.626 325.986C222.648 324.996 222.159 323.761 222.159 322.281C222.159 320.79 222.648 319.555 223.626 318.577C224.617 317.587 225.851 317.091 227.331 317.091C228.786 317.091 229.99 317.58 230.944 318.559L231.182 317.33ZM225.148 324.61C225.772 325.222 226.548 325.527 227.477 325.527C228.419 325.527 229.189 325.222 229.788 324.61C230.399 323.987 230.705 323.211 230.705 322.281C230.705 321.34 230.399 320.564 229.788 319.952C229.189 319.341 228.419 319.035 227.477 319.035C226.866 319.035 226.31 319.176 225.809 319.457C225.32 319.738 224.934 320.13 224.653 320.631C224.372 321.12 224.231 321.67 224.231 322.281C224.231 323.211 224.537 323.987 225.148 324.61ZM247.069 322.318C247.069 323.773 246.586 324.977 245.62 325.931C244.666 326.884 243.45 327.398 241.971 327.471V330.351H240.027V327.471C238.547 327.398 237.325 326.884 236.359 325.931C235.405 324.977 234.928 323.773 234.928 322.318C234.928 320.863 235.411 319.647 236.377 318.669C237.343 317.69 238.56 317.165 240.027 317.091V314.322H241.971V317.091C243.438 317.165 244.654 317.69 245.62 318.669C246.586 319.634 247.069 320.851 247.069 322.318ZM236.927 322.3C236.927 323.204 237.215 323.962 237.789 324.574C238.376 325.185 239.128 325.521 240.045 325.582V318.98C239.128 319.041 238.376 319.384 237.789 320.007C237.215 320.631 236.927 321.395 236.927 322.3ZM241.952 325.582C242.869 325.521 243.615 325.185 244.19 324.574C244.776 323.962 245.07 323.204 245.07 322.3C245.07 321.395 244.776 320.631 244.19 320.007C243.603 319.384 242.857 319.041 241.952 318.98V325.582ZM256.499 317.33H257.636V327.233H255.692V320.943L250.411 327.233H249.237V317.33H251.199V323.565L256.499 317.33ZM269.066 317.091C270.545 317.091 271.767 317.587 272.733 318.577C273.711 319.555 274.2 320.796 274.2 322.3C274.2 323.791 273.718 325.026 272.752 326.004C271.786 326.982 270.557 327.471 269.066 327.471C268.197 327.471 267.403 327.294 266.681 326.939C265.96 326.585 265.373 326.09 264.921 325.454C264.469 324.806 264.175 324.066 264.041 323.235H262.555V327.251H260.538V317.33H262.555V321.328H264.041C264.248 320.068 264.811 319.048 265.728 318.265C266.657 317.483 267.77 317.091 269.066 317.091ZM266.865 324.61C267.452 325.222 268.185 325.527 269.066 325.527C269.946 325.527 270.679 325.222 271.266 324.61C271.853 323.999 272.146 323.229 272.146 322.3C272.146 321.358 271.853 320.582 271.266 319.971C270.679 319.347 269.946 319.035 269.066 319.035C268.185 319.035 267.452 319.347 266.865 319.971C266.278 320.582 265.985 321.358 265.985 322.3C265.985 323.229 266.278 323.999 266.865 324.61ZM276.044 329.874V328.81C276.802 328.627 277.181 328.101 277.181 327.233H275.934V324.904H278.245V327.068C278.245 327.85 278.049 328.48 277.658 328.957C277.267 329.434 276.729 329.739 276.044 329.874ZM27.912 349.471C26.4449 349.471 25.2101 348.976 24.2075 347.986C23.2172 346.983 22.7221 345.748 22.7221 344.281C22.7221 342.802 23.2172 341.567 24.2075 340.577C25.2101 339.587 26.451 339.091 27.9303 339.091C29.1407 339.091 30.1922 339.434 31.0847 340.118C31.9772 340.803 32.5579 341.714 32.8269 342.851H30.8096C30.5528 342.289 30.1677 341.848 29.6542 341.531C29.1407 341.2 28.56 341.035 27.912 341.035C27.3374 341.035 26.8117 341.176 26.3348 341.457C25.858 341.738 25.479 342.13 25.1978 342.631C24.9289 343.12 24.7944 343.67 24.7944 344.281C24.7944 345.198 25.0939 345.969 25.693 346.592C26.2921 347.216 27.0317 347.527 27.912 347.527C28.56 347.527 29.1346 347.362 29.6359 347.032C30.1494 346.702 30.5406 346.231 30.8096 345.62H32.8635C32.5823 346.782 31.9894 347.717 31.0847 348.426C30.1922 349.123 29.1346 349.471 27.912 349.471ZM43.2081 348.004C42.2055 348.982 40.9462 349.471 39.4302 349.471C37.9142 349.471 36.6488 348.982 35.634 348.004C34.6315 347.014 34.1302 345.773 34.1302 344.281C34.1302 343.303 34.3564 342.417 34.8088 341.622C35.2734 340.828 35.9091 340.21 36.716 339.77C37.5352 339.318 38.4399 339.091 39.4302 339.091C40.4205 339.091 41.3191 339.318 42.1261 339.77C42.9452 340.21 43.581 340.828 44.0333 341.622C44.4979 342.417 44.7302 343.303 44.7302 344.281C44.7302 345.773 44.2228 347.014 43.2081 348.004ZM39.4302 347.527C40.0537 347.527 40.61 347.393 41.0991 347.124C41.5881 346.843 41.9671 346.458 42.2361 345.969C42.5173 345.467 42.6579 344.905 42.6579 344.281C42.6579 343.34 42.3522 342.564 41.7409 341.952C41.1419 341.341 40.3716 341.035 39.4302 341.035C38.4888 341.035 37.7125 341.341 37.1012 341.952C36.5021 342.564 36.2025 343.34 36.2025 344.281C36.2025 345.223 36.5021 345.999 37.1012 346.61C37.7125 347.222 38.4888 347.527 39.4302 347.527ZM53.1341 349.233L50.1631 345.015H48.9344V349.233H46.8988V339.33H48.9344V343.163H50.1815L52.8773 339.33H55.2797L51.9237 344.08L55.6465 349.233H53.1341ZM62.3716 339.091C63.3497 339.091 64.23 339.318 65.0125 339.77C65.7949 340.21 66.4062 340.828 66.8464 341.622C67.2865 342.417 67.5066 343.303 67.5066 344.281C67.5066 345.773 67.0175 347.014 66.0394 348.004C65.0736 348.982 63.851 349.471 62.3716 349.471C61.1001 349.471 60.0059 349.074 59.0889 348.279V352.791H57.0533V339.33H58.4287L58.8139 340.54C59.7675 339.574 60.9534 339.091 62.3716 339.091ZM59.8959 346.61C60.5072 347.222 61.2774 347.527 62.2066 347.527C63.148 347.527 63.9243 347.222 64.5356 346.61C65.1469 345.987 65.4526 345.211 65.4526 344.281C65.4526 343.352 65.1469 342.582 64.5356 341.971C63.9243 341.347 63.1541 341.035 62.2249 341.035C61.6136 341.035 61.0573 341.176 60.5561 341.457C60.0548 341.738 59.6636 342.13 59.3824 342.631C59.1134 343.12 58.9789 343.67 58.9789 344.281C58.9789 345.211 59.2846 345.987 59.8959 346.61ZM77.9865 339.33H79.5636V349.233H77.9131L77.7114 348.023C76.7578 348.988 75.5657 349.471 74.1353 349.471C72.6559 349.471 71.4211 348.976 70.4308 347.986C69.4527 346.996 68.9637 345.761 68.9637 344.281C68.9637 342.79 69.4527 341.555 70.4308 340.577C71.4211 339.587 72.6559 339.091 74.1353 339.091C75.5902 339.091 76.7944 339.58 77.7481 340.559L77.9865 339.33ZM71.9529 346.61C72.5765 347.222 73.3528 347.527 74.282 347.527C75.2234 347.527 75.9936 347.222 76.5927 346.61C77.204 345.987 77.5097 345.211 77.5097 344.281C77.5097 343.34 77.204 342.564 76.5927 341.952C75.9936 341.341 75.2234 341.035 74.282 341.035C73.6707 341.035 73.1144 341.176 72.6131 341.457C72.1241 341.738 71.739 342.13 71.4578 342.631C71.1766 343.12 71.036 343.67 71.036 344.281C71.036 345.211 71.3416 345.987 71.9529 346.61ZM95.0287 347.362H96.3675V351.727H94.5153V349.233H82.4665V339.33H84.4655V347.362H87.7848V339.33H89.7288V347.362H93.0298V339.33H95.0287V347.362ZM107.742 344.3C107.742 344.483 107.73 344.709 107.705 344.978H99.6728C99.7951 345.773 100.125 346.403 100.663 346.867C101.213 347.332 101.892 347.564 102.699 347.564C103.09 347.564 103.457 347.509 103.799 347.399C104.141 347.277 104.441 347.112 104.698 346.904C104.967 346.684 105.187 346.421 105.358 346.115H107.504C107.112 347.167 106.489 347.992 105.633 348.591C104.777 349.178 103.799 349.471 102.699 349.471C101.244 349.471 100.027 348.976 99.0493 347.986C98.0834 346.996 97.6005 345.761 97.6005 344.281C97.6005 342.802 98.0834 341.567 99.0493 340.577C100.027 339.587 101.244 339.091 102.699 339.091C103.689 339.091 104.569 339.33 105.34 339.807C106.11 340.271 106.703 340.901 107.118 341.696C107.534 342.478 107.742 343.346 107.742 344.3ZM102.699 340.925C101.941 340.925 101.293 341.139 100.755 341.567C100.229 341.995 99.8807 342.582 99.7095 343.328H105.706C105.584 342.826 105.382 342.399 105.101 342.044C104.82 341.677 104.472 341.402 104.056 341.219C103.652 341.023 103.2 340.925 102.699 340.925ZM116.505 339.33H118.504V349.233H116.505V345.088H111.921V349.233H109.903V339.33H111.921V343.218H116.505V339.33ZM128.663 339.33H129.8V349.233H127.856V342.943L122.575 349.233H121.401V339.33H123.363V345.565L128.663 339.33ZM142.11 344.3C142.11 344.483 142.098 344.709 142.073 344.978H134.041C134.163 345.773 134.493 346.403 135.031 346.867C135.581 347.332 136.26 347.564 137.067 347.564C137.458 347.564 137.825 347.509 138.167 347.399C138.509 347.277 138.809 347.112 139.066 346.904C139.334 346.684 139.555 346.421 139.726 346.115H141.871C141.48 347.167 140.857 347.992 140.001 348.591C139.145 349.178 138.167 349.471 137.067 349.471C135.612 349.471 134.395 348.976 133.417 347.986C132.451 346.996 131.968 345.761 131.968 344.281C131.968 342.802 132.451 341.567 133.417 340.577C134.395 339.587 135.612 339.091 137.067 339.091C138.057 339.091 138.937 339.33 139.707 339.807C140.478 340.271 141.071 340.901 141.486 341.696C141.902 342.478 142.11 343.346 142.11 344.3ZM137.067 340.925C136.309 340.925 135.661 341.139 135.123 341.567C134.597 341.995 134.248 342.582 134.077 343.328H140.074C139.952 342.826 139.75 342.399 139.469 342.044C139.188 341.677 138.839 341.402 138.424 341.219C138.02 341.023 137.568 340.925 137.067 340.925ZM156.723 339.33V341.164H153.238V349.233H151.258V341.164H147.755V339.33H156.723ZM167.63 344.3C167.63 344.483 167.618 344.709 167.594 344.978H159.561C159.684 345.773 160.014 346.403 160.552 346.867C161.102 347.332 161.78 347.564 162.587 347.564C162.978 347.564 163.345 347.509 163.688 347.399C164.03 347.277 164.329 347.112 164.586 346.904C164.855 346.684 165.075 346.421 165.246 346.115H167.392C167.001 347.167 166.377 347.992 165.521 348.591C164.666 349.178 163.688 349.471 162.587 349.471C161.132 349.471 159.916 348.976 158.938 347.986C157.972 346.996 157.489 345.761 157.489 344.281C157.489 342.802 157.972 341.567 158.938 340.577C159.916 339.587 161.132 339.091 162.587 339.091C163.577 339.091 164.458 339.33 165.228 339.807C165.998 340.271 166.591 340.901 167.007 341.696C167.423 342.478 167.63 343.346 167.63 344.3ZM162.587 340.925C161.829 340.925 161.181 341.139 160.643 341.567C160.118 341.995 159.769 342.582 159.598 343.328H165.595C165.473 342.826 165.271 342.399 164.99 342.044C164.708 341.677 164.36 341.402 163.944 341.219C163.541 341.023 163.088 340.925 162.587 340.925ZM176.027 349.233L173.056 345.015H171.827V349.233H169.792V339.33H171.827V343.163H173.075L175.77 339.33H178.173L174.817 344.08L178.54 349.233H176.027ZM184.08 349.471C182.613 349.471 181.378 348.976 180.376 347.986C179.386 346.983 178.89 345.748 178.89 344.281C178.89 342.802 179.386 341.567 180.376 340.577C181.378 339.587 182.619 339.091 184.099 339.091C185.309 339.091 186.361 339.434 187.253 340.118C188.146 340.803 188.726 341.714 188.995 342.851H186.978C186.721 342.289 186.336 341.848 185.823 341.531C185.309 341.2 184.728 341.035 184.08 341.035C183.506 341.035 182.98 341.176 182.503 341.457C182.026 341.738 181.647 342.13 181.366 342.631C181.097 343.12 180.963 343.67 180.963 344.281C180.963 345.198 181.262 345.969 181.861 346.592C182.46 347.216 183.2 347.527 184.08 347.527C184.728 347.527 185.303 347.362 185.804 347.032C186.318 346.702 186.709 346.231 186.978 345.62H189.032C188.751 346.782 188.158 347.717 187.253 348.426C186.361 349.123 185.303 349.471 184.08 349.471ZM198.773 339.33V341.164H195.289V349.233H193.308V341.164H189.806V339.33H198.773ZM208.563 339.33H210.14V349.233H208.489L208.288 348.023C207.334 348.988 206.142 349.471 204.711 349.471C203.232 349.471 201.997 348.976 201.007 347.986C200.029 346.996 199.54 345.761 199.54 344.281C199.54 342.79 200.029 341.555 201.007 340.577C201.997 339.587 203.232 339.091 204.711 339.091C206.166 339.091 207.371 339.58 208.324 340.559L208.563 339.33ZM202.529 346.61C203.153 347.222 203.929 347.527 204.858 347.527C205.8 347.527 206.57 347.222 207.169 346.61C207.78 345.987 208.086 345.211 208.086 344.281C208.086 343.34 207.78 342.564 207.169 341.952C206.57 341.341 205.8 341.035 204.858 341.035C204.247 341.035 203.691 341.176 203.189 341.457C202.7 341.738 202.315 342.13 202.034 342.631C201.753 343.12 201.612 343.67 201.612 344.281C201.612 345.211 201.918 345.987 202.529 346.61ZM212.914 351.874V350.81C213.672 350.627 214.051 350.101 214.051 349.233H212.804V346.904H215.115V349.068C215.115 349.85 214.919 350.48 214.528 350.957C214.137 351.434 213.599 351.739 212.914 351.874ZM32.0566 369.307H33.3404V373.727H31.4881V371.233H24.2625V373.727H22.4103V369.307H23.4556C23.7368 369.075 23.9508 368.72 24.0975 368.244C24.2564 367.767 24.397 367.045 24.5193 366.08C24.6415 365.102 24.8005 363.518 24.9961 361.33H32.0566V369.307ZM26.7933 363.127C26.6588 365.12 26.506 366.55 26.3348 367.418C26.1637 368.286 25.9131 368.916 25.5829 369.307H30.0577V363.127H26.7933ZM43.6916 370.004C42.6891 370.982 41.4298 371.471 39.9138 371.471C38.3977 371.471 37.1323 370.982 36.1176 370.004C35.115 369.014 34.6138 367.773 34.6138 366.281C34.6138 365.303 34.84 364.417 35.2923 363.622C35.7569 362.828 36.3927 362.21 37.1996 361.77C38.0187 361.318 38.9235 361.091 39.9138 361.091C40.9041 361.091 41.8027 361.318 42.6096 361.77C43.4287 362.21 44.0645 362.828 44.5169 363.622C44.9815 364.417 45.2137 365.303 45.2137 366.281C45.2137 367.773 44.7064 369.014 43.6916 370.004ZM39.9138 369.527C40.5373 369.527 41.0936 369.393 41.5826 369.124C42.0717 368.843 42.4507 368.458 42.7196 367.969C43.0008 367.467 43.1414 366.905 43.1414 366.281C43.1414 365.34 42.8358 364.564 42.2245 363.952C41.6254 363.341 40.8552 363.035 39.9138 363.035C38.9724 363.035 38.196 363.341 37.5847 363.952C36.9856 364.564 36.6861 365.34 36.6861 366.281C36.6861 367.223 36.9856 367.999 37.5847 368.61C38.196 369.222 38.9724 369.527 39.9138 369.527ZM52.7007 361.091C53.6787 361.091 54.559 361.318 55.3415 361.77C56.1239 362.21 56.7352 362.828 57.1754 363.622C57.6155 364.417 57.8356 365.303 57.8356 366.281C57.8356 367.773 57.3465 369.014 56.3685 370.004C55.4026 370.982 54.18 371.471 52.7007 371.471C51.4292 371.471 50.3349 371.074 49.418 370.279V374.791H47.3823V361.33H48.7578L49.1429 362.54C50.0965 361.574 51.2824 361.091 52.7007 361.091ZM50.2249 368.61C50.8362 369.222 51.6064 369.527 52.5356 369.527C53.477 369.527 54.2534 369.222 54.8647 368.61C55.476 367.987 55.7816 367.211 55.7816 366.281C55.7816 365.352 55.476 364.582 54.8647 363.971C54.2534 363.347 53.4831 363.035 52.5539 363.035C51.9426 363.035 51.3864 363.176 50.8851 363.457C50.3838 363.738 49.9926 364.13 49.7114 364.631C49.4424 365.12 49.3079 365.67 49.3079 366.281C49.3079 367.211 49.6136 367.987 50.2249 368.61ZM68.3155 361.33H69.8927V371.233H68.2421L68.0404 370.023C67.0868 370.988 65.8947 371.471 64.4643 371.471C62.9849 371.471 61.7501 370.976 60.7598 369.986C59.7817 368.996 59.2927 367.761 59.2927 366.281C59.2927 364.79 59.7817 363.555 60.7598 362.577C61.7501 361.587 62.9849 361.091 64.4643 361.091C65.9192 361.091 67.1235 361.58 68.0771 362.559L68.3155 361.33ZM62.2819 368.61C62.9055 369.222 63.6818 369.527 64.611 369.527C65.5524 369.527 66.3226 369.222 66.9217 368.61C67.533 367.987 67.8387 367.211 67.8387 366.281C67.8387 365.34 67.533 364.564 66.9217 363.952C66.3226 363.341 65.5524 363.035 64.611 363.035C63.9997 363.035 63.4434 363.176 62.9422 363.457C62.4531 363.738 62.068 364.13 61.7868 364.631C61.5056 365.12 61.365 365.67 61.365 366.281C61.365 367.211 61.6706 367.987 62.2819 368.61ZM77.8388 361.807C79.2692 361.807 80.4307 362.247 81.3232 363.127C82.2279 364.007 82.6803 365.15 82.6803 366.556C82.6803 368.011 82.2034 369.197 81.2498 370.114C80.3084 371.019 79.0736 371.471 77.5453 371.471C75.9315 371.471 74.66 370.97 73.7308 369.968C72.8139 368.953 72.3554 367.565 72.3554 365.805C72.3554 363.396 72.8139 361.568 73.7308 360.321C74.66 359.062 76.2066 358.169 78.3706 357.644L81.4699 356.892V358.909L78.4073 359.643C76.2922 360.144 75.039 361.25 74.6478 362.962C75.5036 362.192 76.5672 361.807 77.8388 361.807ZM77.5453 369.546C78.4256 369.546 79.1531 369.265 79.7277 368.702C80.3145 368.127 80.6079 367.412 80.6079 366.556C80.6079 365.982 80.4735 365.468 80.2045 365.016C79.9355 364.551 79.5687 364.191 79.1041 363.934C78.6396 363.665 78.12 363.531 77.5453 363.531C76.9707 363.531 76.445 363.665 75.9682 363.934C75.5036 364.191 75.1368 364.551 74.8678 365.016C74.6111 365.468 74.4827 365.982 74.4827 366.556C74.4827 367.412 74.77 368.127 75.3446 368.702C75.9315 369.265 76.6651 369.546 77.5453 369.546ZM93.2106 370.004C92.2081 370.982 90.9488 371.471 89.4328 371.471C87.9167 371.471 86.6513 370.982 85.6366 370.004C84.634 369.014 84.1328 367.773 84.1328 366.281C84.1328 365.303 84.359 364.417 84.8113 363.622C85.2759 362.828 85.9117 362.21 86.7186 361.77C87.5377 361.318 88.4424 361.091 89.4328 361.091C90.4231 361.091 91.3217 361.318 92.1286 361.77C92.9477 362.21 93.5835 362.828 94.0359 363.622C94.5004 364.417 94.7327 365.303 94.7327 366.281C94.7327 367.773 94.2254 369.014 93.2106 370.004ZM89.4328 369.527C90.0563 369.527 90.6126 369.393 91.1016 369.124C91.5906 368.843 91.9697 368.458 92.2386 367.969C92.5198 367.467 92.6604 366.905 92.6604 366.281C92.6604 365.34 92.3548 364.564 91.7435 363.952C91.1444 363.341 90.3742 363.035 89.4328 363.035C88.4914 363.035 87.715 363.341 87.1037 363.952C86.5046 364.564 86.2051 365.34 86.2051 366.281C86.2051 367.223 86.5046 367.999 87.1037 368.61C87.715 369.222 88.4914 369.527 89.4328 369.527ZM104.446 361.33V363.164H100.961V371.233H98.9805V363.164H95.4778V361.33H104.446ZM112.467 371.233L109.496 367.015H108.268V371.233H106.232V361.33H108.268V365.163H109.515L112.211 361.33H114.613L111.257 366.08L114.98 371.233H112.467ZM124.353 361.33H125.931V371.233H124.28L124.078 370.023C123.125 370.988 121.933 371.471 120.502 371.471C119.023 371.471 117.788 370.976 116.798 369.986C115.82 368.996 115.331 367.761 115.331 366.281C115.331 364.79 115.82 363.555 116.798 362.577C117.788 361.587 119.023 361.091 120.502 361.091C121.957 361.091 123.161 361.58 124.115 362.559L124.353 361.33ZM118.32 368.61C118.943 369.222 119.72 369.527 120.649 369.527C121.59 369.527 122.361 369.222 122.96 368.61C123.571 367.987 123.877 367.211 123.877 366.281C123.877 365.34 123.571 364.564 122.96 363.952C122.361 363.341 121.59 363.035 120.649 363.035C120.038 363.035 119.481 363.176 118.98 363.457C118.491 363.738 118.106 364.13 117.825 364.631C117.544 365.12 117.403 365.67 117.403 366.281C117.403 367.211 117.709 367.987 118.32 368.61Z" fill="white"/>
<path d="M-32.1659 15.3649C-24.3696 2.44355 -7.31816 -0.566551 1.00616 -4.56383C39.6112 -23.1017 81.5532 -36.1039 111.263 -29.5764C132.4 -24.9325 172.387 -23.5091 169.198 14.3985C167.81 30.8892 164.556 50.5395 158.018 65.7958C152.998 77.5095 138.706 102.384 129.666 112.786C119.064 124.985 99.2441 130.175 93.2415 126.553C80.5579 118.901 65.3341 94.9808 80.3185 66.4863C121.852 -12.4941 189.678 -79.935 242.753 -84.1624C288.41 -87.799 308.162 -47.2245 305.349 13.5209C302.688 70.9883 294.592 120.559 260.226 185.02C246.457 210.845 219.755 242.174 193.708 264.809C185.207 272.197 175.323 277.841 164.743 281.703C142.22 289.923 122.28 292.095 116.952 250.684C115.064 236.011 113.699 205.262 145.652 152.303C173.604 105.977 186.59 91.1441 234.793 70.3074C261.643 62.4286 325.446 142.004 348.679 138.548" stroke="white" stroke-opacity="0.06" stroke-width="17.1164" stroke-linecap="round"/>
<path d="M346.777 66.505L360.568 108.375L352.344 111.083L340.504 75.1344L328.453 79.1037L339.782 113.502L331.559 116.21L320.23 81.8121L307.328 86.0615L319.168 122.01L310.944 124.719L297.154 82.849L346.777 66.505Z" fill="white" fill-opacity="0.5"/>
<path d="M104.574 100.817L108.236 88.3191L115.083 89.0307L96.7884 149.736L86.4351 148.66L81.0171 85.4898L88.1976 86.2361L89.211 99.2206L104.574 100.817ZM89.6809 106.067L91.7813 131.328L92.2831 142.738L92.6171 142.773L95.6221 131.727L102.706 107.421L89.6809 106.067Z" fill="white" fill-opacity="0.5"/>
<path d="M-18.8491 193.24L22.7219 183.072L21.8971 135.616L26.4128 139.049L27.106 178.811L38.0728 187.146L56.9746 162.279L60.3614 164.853L41.4596 189.721L44.6851 192.172L83.2627 182.26L95.5197 191.577L49.5744 203.483L50.9028 246.258L46.3871 242.826L45.1922 207.239L34.3867 199.026L17.6799 221.006L14.2931 218.432L30.9999 196.452L27.855 194.061L-6.67279 202.496L-18.8491 193.24Z" fill="white"/>
<path d="M234.536 120.495L218.76 155.52L265.8 176.708L281.576 141.684L286.006 143.68L249.071 225.676L244.641 223.681L259.679 190.296L212.639 169.108L197.602 202.492L193.172 200.497L230.107 118.5L234.536 120.495Z" fill="#FF665F"/>
<path d="M214.213 -29.701L232.948 -33.7517L269.482 36.476L278.478 55.407L278.78 55.3417L278.85 34.4507L283.109 -44.597L301.844 -48.6477L351.604 51.2995L345.108 52.7042L309.435 -18.6587L300.741 -37.655L300.439 -37.5897L300.068 -16.6333L295.702 63.3862L278.176 67.1755L241.143 -3.89331L232.147 -22.8243L231.845 -22.759L231.776 -1.86797L228.77 77.8576L210.186 81.8756L214.213 -29.701Z" fill="white"/>
<path d="M178.813 237.819L144.158 241.854L143.365 235.048L173.12 231.584L171.959 221.609L143.488 224.923L142.695 218.117L171.166 214.802L169.923 204.124L140.169 207.587L139.376 200.781L174.031 196.747L178.813 237.819Z" fill="#FFBEBE"/>
<path d="M331.937 141.291L328.236 158.467C324.68 174.969 312.93 188.505 297.092 194.345C312.941 200.19 324.724 213.701 328.359 230.197L331.937 246.435L335.515 230.197C339.149 213.701 350.932 200.19 366.781 194.345C350.943 188.505 339.193 174.969 335.638 158.467L331.937 141.291Z" fill="white"/>
<path d="M166.885 -1.75336L164.473 9.47602C162.171 20.1937 154.548 28.9901 144.267 32.7936C154.555 36.5996 162.199 45.3796 164.553 56.0938L166.885 66.7124L169.218 56.0938C171.571 45.3796 179.215 36.5996 189.503 32.7936C179.222 28.9901 171.6 20.1937 169.297 9.47603L166.885 -1.75336Z" fill="white"/>
<path d="M17.1165 -16.4246L15.2049 -7.18508C13.5152 0.982374 7.78588 7.72888 3.43323e-05 10.7194C7.79094 13.7119 13.5361 20.4465 15.2636 28.6116L17.1165 37.3699L18.9694 28.6116C20.6968 20.4465 26.442 13.7119 34.2329 10.7194C26.4471 7.72888 20.7178 0.98237 19.028 -7.18509L17.1165 -16.4246Z" fill="white" fill-opacity="0.66"/>
</g>
<defs>
<clipPath id="clip0_62_3171">
<rect y="0.345947" width="357" height="400" rx="12.226" fill="white"/>
</clipPath>
</defs>
</svg>
