<svg width="357" height="401" viewBox="0 0 357 401" fill="none" xmlns="http://www.w3.org/2000/svg">
<g clip-path="url(#clip0_62_3137)">
<rect y="0.448639" width="357" height="400" rx="12.226" fill="#14C65B"/>
<path d="M772.316 -37.877C773.524 -16.1893 741.355 2.01623 729.136 13.8299C672.466 68.6175 601.058 119.878 528.78 137.972C477.359 150.845 390.227 183.72 344.761 137.088C324.982 116.802 304.823 91.2468 297.718 67.9423C292.262 50.0492 288.411 8.91816 293.325 -10.9272C299.089 -34.2009 334.149 -57.3203 351.927 -58.3103C389.491 -60.4024 454.892 -45.8581 462.259 0.0616332C482.677 127.341 431.186 263.963 323.969 314.678C231.736 358.306 133.732 328.392 55.98 255.65C-17.5763 186.832 -68.6687 122.464 -84.3358 18.1786C-90.8961 -25.4887 -75.651 -88.3133 -49.3028 -138.137C-43.1483 -149.775 -34.2823 -159.701 -24.1559 -168.114C15.474 -201.039 55.6679 -228.782 130.3 -181.525C154.55 -166.17 199.848 -131.755 204.798 -42.8676C209.128 34.888 201.917 63.2684 127.974 129.003C81.6467 161.304 -163.951 124.278 -208.668 148.337" stroke="white" stroke-opacity="0.08" stroke-width="17.1164" stroke-linecap="round"/>
<path d="M311.152 209.86L309.772 216.332C308.472 222.422 304.151 227.427 298.315 229.601C304.155 231.776 308.488 236.771 309.817 242.86L311.152 248.983L312.488 242.86C313.817 236.771 318.15 231.776 323.99 229.601C318.154 227.427 313.833 222.422 312.533 216.332L311.152 209.86Z" fill="white"/>
<path d="M182.872 46.9193L178.007 42.0541L177.647 48.9523L176.833 64.5603C176.669 67.7201 177.381 70.7763 178.853 73.7378L178.855 73.7404C180.317 76.673 182.525 79.5084 185.383 82.2244L185.391 82.2324C186.61 83.3821 187.963 84.5078 189.389 85.6001L194.011 89.1424L194.315 83.3054L195.617 58.3263L195.711 56.5221L194.176 55.5823C193.305 55.0491 192.462 54.515 191.643 53.9768C188.245 51.7129 185.306 49.353 182.872 46.9193Z" fill="#3FD37A" stroke="#14C65B" stroke-width="6.11301"/>
<path d="M198.059 89.2541L197.959 91.1708L199.643 92.0797C202.948 93.8638 206.569 95.5872 210.501 97.2211C212.206 97.935 213.973 98.6113 215.742 99.2664L219.66 100.717L219.879 96.5352L221.267 69.9614L221.386 67.6838L219.236 66.939C213.657 65.0064 208.493 62.9122 203.803 60.6782L199.656 58.7028L199.415 63.3033L198.059 89.2541Z" fill="#3FD37A" stroke="#14C65B" stroke-width="6.11301"/>
<path d="M229.089 70.0681L225.362 68.9847L225.159 72.8677L223.764 99.5233L225.84 99.6149L225.305 102.551C232.366 104.742 240.033 106.687 248.211 108.329L251.704 109.03L251.89 105.468L253.308 78.3849L253.446 75.75L250.858 75.2504C245.668 74.2481 240.656 73.1396 235.873 71.9187C233.556 71.3227 231.29 70.708 229.089 70.0681Z" fill="#3FD37A" stroke="#14C65B" stroke-width="6.11301"/>
<path d="M255.832 107.108L255.69 109.82L258.368 110.258C268.611 111.933 279.471 113.171 290.798 113.839L293.894 114.021L294.057 110.923L295.486 83.6364L295.643 80.6274L292.635 80.4518C281.568 79.8057 270.91 78.6596 260.811 77.061L257.434 76.5264L257.255 79.9442L255.832 107.108Z" fill="#3FD37A" stroke="#14C65B" stroke-width="6.11301"/>
<path d="M298.05 111.253L297.888 114.348L300.987 114.441C312.802 114.794 324.167 114.473 334.907 113.638L337.607 113.428L337.748 110.726L339.169 83.5985L339.348 80.1704L335.921 80.4166C325.336 81.1769 314.175 81.4217 302.647 81.0788L299.634 80.9892L299.477 83.9982L298.05 111.253Z" fill="#3FD37A" stroke="#14C65B" stroke-width="6.11301"/>
<path d="M344.84 109.82C348.771 109.368 352.613 108.856 356.307 108.254C360.138 107.631 363.818 106.929 367.358 106.154L368.76 79.3581C361.688 80.7789 354.158 81.9296 346.255 82.7717L344.84 109.82Z" fill="#3FD37A"/>
<path d="M180.866 35.1268L180.865 35.1242C179.38 32.1393 178.662 29.0625 178.828 25.8798C178.994 22.698 180.029 19.6992 181.816 16.8604L180.866 35.1268ZM180.866 35.1268C182.34 38.0833 184.567 40.9438 187.452 43.681M180.866 35.1268L187.452 43.681M318.664 49.7061C323.855 49.1915 328.207 48.2643 331.714 46.931C335.147 45.6248 337.706 43.9779 339.362 41.9868L318.664 49.7061ZM318.664 49.7061C317.34 49.8378 315.976 49.9317 314.587 50.0016L318.664 49.7061ZM308.804 55.8344L308.478 50.3257L308.291 47.1625L311.462 47.0674C313.876 46.9951 316.201 46.883 318.385 46.6658L318.386 46.6657C323.402 46.1684 327.469 45.2842 330.646 44.0767C333.786 42.882 335.817 41.4868 337.017 40.0446M308.804 55.8344L337.014 40.0488C337.015 40.0474 337.016 40.046 337.017 40.0446M308.804 55.8344L295.972 55.2669M308.804 55.8344L295.972 55.2669M337.017 40.0446C337.961 38.904 338.286 37.6393 337.886 35.9251L337.884 35.9194C337.217 33.0402 335.044 30.5239 330.354 28.534L330.35 28.5324C325.687 26.5463 318.959 25.1304 309.95 24.3682C309.95 24.3681 309.949 24.3681 309.948 24.368L297.681 23.3431L297.673 23.3424L297.665 23.3418C293.253 22.9506 289.747 22.3044 287.461 21.2566C286.307 20.7299 285.187 19.9966 284.375 18.9331C283.509 17.7972 283.121 16.4446 283.25 15.023C283.564 11.5025 286.763 9.85075 289.418 9.03987L289.421 9.03894C290.28 8.77758 291.238 8.57122 292.289 8.4149C291.61 8.44556 290.951 8.48374 290.311 8.53521L290.305 8.53562C286.805 8.81096 283.752 9.32392 281.103 10.0427M337.017 40.0446L281.103 10.0427M295.972 55.2669L296.182 49.5706L296.288 46.6962L293.424 46.4388C288.29 45.9776 283.44 45.3191 278.949 44.4354C275.787 43.8127 272.172 42.4386 269.254 41.1593C268.647 40.8935 268.078 40.6349 267.558 40.3925L273.504 37.8315C273.505 37.8315 273.505 37.8314 273.505 37.8313C273.707 37.7451 274.231 37.7078 274.602 37.8013C274.627 37.8139 274.654 37.8274 274.683 37.8418C274.873 37.9368 275.146 38.0712 275.487 38.2343C276.169 38.56 277.128 39.0031 278.248 39.4768C280.445 40.4056 283.43 41.5261 286.193 42.047L286.2 42.0484C291.25 42.9881 296.323 43.5784 301.388 43.8024L301.391 43.8026C307.76 44.0778 313.189 43.7305 317.532 42.6709L317.539 42.6691C319.71 42.1339 321.715 41.3196 323.167 39.9909C324.778 38.5161 325.542 36.5456 325.267 34.367C324.891 31.3807 322.844 29.3767 320.304 28.1135C317.799 26.8588 314.086 26.1282 309.559 25.6837L309.539 25.6818L309.519 25.6801L294.903 24.438C294.9 24.4377 294.896 24.4374 294.893 24.437C286.416 23.6587 280.341 22.2571 276.474 20.431C274.648 19.5656 273.683 18.6851 273.208 17.9448C272.784 17.284 272.62 16.5388 272.82 15.515L272.821 15.512C272.993 14.6307 273.541 13.6919 274.942 12.7152L295.972 55.2669ZM281.103 10.0427C278.449 10.7705 276.422 11.6841 274.942 12.715L281.103 10.0427ZM297.746 8.03104C299.024 8.01696 300.381 8.04281 301.809 8.10407C301.809 8.10409 301.81 8.10411 301.81 8.10412L301.655 11.1566L297.746 8.03104ZM297.746 8.03104L297.846 5.36249L297.886 4.27893L305.774 4.61234L305.856 5.99746L305.997 8.36006L297.746 8.03104ZM421.069 36.5934C420.903 39.7736 419.87 42.772 418.078 45.6121C415.001 50.5198 409.584 54.983 402.405 58.8488L421.069 36.5934ZM421.069 36.5934C421.235 33.4113 420.517 30.3328 419.027 27.3456M421.069 36.5934L419.027 27.3456M419.027 27.3456C417.555 24.3843 415.328 21.5228 412.437 18.7854C406.692 13.325 398.099 8.18281 387.419 3.7449C366.048 -5.16833 335.821 -11.5125 302.256 -12.9837L419.027 27.3456ZM197.495 3.62774C208.284 -2.19565 223.512 -6.87498 241.442 -9.79954L197.495 3.62774ZM197.495 3.62774C190.306 7.48872 184.901 11.9526 181.816 16.8599C181.817 16.8594 181.817 16.8589 181.817 16.8584L197.495 3.62774ZM187.452 43.681C193.206 49.1501 201.8 54.286 212.471 58.7272C233.842 67.6449 264.077 73.9866 297.643 75.4614L187.452 43.681ZM319 10.5454C317.789 10.1922 316.253 9.78063 314.702 9.46859C315.772 9.60565 316.817 9.75503 317.837 9.91767L317.848 9.91939C319.597 10.1916 321.441 10.6267 323.085 11.0728L322.371 11.3889C322.371 11.3889 322.371 11.389 322.37 11.389C322.328 11.3973 322.253 11.4075 322.151 11.4109C321.965 11.417 321.768 11.3984 321.601 11.362C321.577 11.354 321.551 11.345 321.522 11.3351C321.387 11.2898 321.195 11.2256 320.954 11.1473C320.473 10.991 319.795 10.7774 319 10.5454ZM384.553 36.9281L386.9 37.4956L384.52 37.8513C383.377 37.9947 381.871 38.6973 381.253 40.3165L379.184 45.2729L377.632 40.1285C377.181 38.5394 375.839 37.6709 374.642 37.4137L372.313 36.8504L374.709 36.4927C374.716 36.4916 374.724 36.4906 374.731 36.4895C375.737 36.3444 377.284 35.7262 377.948 34.066L380.029 29.0755L381.572 34.198C382.054 35.985 383.627 36.7088 384.53 36.9228C384.538 36.9246 384.545 36.9263 384.553 36.9281ZM302.255 -12.9837C280.21 -13.9587 259.404 -12.7366 241.444 -9.79974L302.255 -12.9837Z" fill="#3FD37A" stroke="#14C65B" stroke-width="6.11301"/>
<path d="M42.5872 246.945L26.8972 210.641L33.6081 209.671L45.6618 237.555L49.8926 207.316L56.1486 206.414L68.8179 234.366L72.4993 204.059L79.2087 203.08L74.4327 242.337L66.6528 243.453L54.4037 216.418L50.302 245.823L42.5872 246.945Z" fill="#85ECAF"/>
<path d="M83.8401 202.433L90.2282 201.51L95.6813 239.248L89.2932 240.171L83.8401 202.433Z" fill="#85ECAF"/>
<path d="M108.484 231.355L124.036 229.108L124.891 235.028L103.083 238.179L97.63 200.44L103.886 199.536L108.484 231.355Z" fill="#85ECAF"/>
<path d="M139.094 194.493C144.336 193.736 148.962 194.934 152.921 198.05C156.923 201.16 159.333 205.389 160.101 210.699C160.862 215.966 159.747 220.704 156.795 224.863C153.881 228.972 149.783 231.431 144.541 232.188L129.517 234.359L124.064 196.621L139.088 194.45L139.094 194.493ZM143.692 226.312C147.304 225.79 150.08 224.145 151.93 221.389C153.869 218.62 154.562 215.321 154.027 211.621C153.48 207.834 151.894 204.953 149.251 202.846C146.652 200.733 143.524 199.941 139.956 200.457L131.232 201.717L134.968 227.573L143.692 226.312Z" fill="#85ECAF"/>
<path d="M194.969 213.896C195.416 216.988 194.687 219.716 192.735 222.088C190.784 224.459 188.291 225.886 185.032 226.357L168.686 228.719L163.231 190.961L178.386 188.771C181.514 188.319 184.308 188.983 186.75 190.631C189.243 192.315 190.659 194.645 191.087 197.606C191.565 200.916 190.608 203.633 188.324 205.875C191.923 207.133 194.403 209.976 194.969 213.896ZM170.374 195.887L171.808 205.816L180.707 204.53C183.484 204.129 185.283 201.646 184.881 198.859C184.478 196.072 182.049 194.2 179.273 194.601L170.374 195.887ZM184.232 220.516C187.14 220.095 189.098 217.456 188.67 214.495C188.242 211.533 185.617 209.556 182.709 209.976L172.62 211.434L174.149 222.017L184.238 220.559L184.232 220.516Z" fill="#85ECAF"/>
<path d="M207.877 217.01L224.796 214.565L225.651 220.488L202.478 223.837L197.022 186.079L219.932 182.768L220.787 188.691L204.133 191.097L205.549 200.896L220.837 198.687L221.687 204.566L206.399 206.776L207.877 217.01Z" fill="#85ECAF"/>
<path d="M253.055 216.528L242.959 203.938L235.558 205.007L237.546 218.769L231.291 219.673L225.835 181.915L241.122 179.706C244.559 179.21 247.636 179.965 250.318 182.023C253.03 183.988 254.679 186.684 255.17 190.08C255.863 194.871 253.458 199.709 249.172 202.106L259.971 215.529L253.055 216.528ZM232.933 186.847L234.758 199.476L243.747 198.178C247.094 197.694 249.335 194.525 248.826 190.997C248.322 187.513 245.226 185.071 241.922 185.548L232.933 186.847Z" fill="#85ECAF"/>
<path d="M286.494 211.696L276.441 199.092L269.04 200.162L271.029 213.931L264.774 214.835L259.315 177.057L274.602 174.848C278.039 174.352 281.117 175.108 283.798 177.167C286.51 179.133 288.16 181.83 288.651 185.229C289.344 190.022 286.94 194.862 282.654 197.261L293.454 210.691L286.494 211.696ZM266.414 181.992L268.24 194.628L277.228 193.329C280.576 192.846 282.817 189.675 282.307 186.146C281.803 182.66 278.707 180.216 275.402 180.693L266.414 181.992Z" fill="#85ECAF"/>
<path d="M292.578 172.255L298.835 171.351L304.293 209.125L298.036 210.029L292.578 172.255Z" fill="#85ECAF"/>
<path d="M317.094 201.228L334.013 198.784L334.868 204.706L311.693 208.055L306.238 170.297L329.147 166.987L330.003 172.91L313.35 175.316L314.766 185.115L330.053 182.906L330.902 188.785L315.616 190.994L317.094 201.228Z" fill="#85ECAF"/>
<path d="M337.988 195.482L342.954 191.565C345.112 195.608 348.542 197.245 353.344 196.551C358.102 195.864 360.148 193.524 359.72 190.564C359.494 188.997 358.67 187.961 357.323 187.356C355.969 186.707 353.547 186.124 350.149 185.637C346.334 185.078 344.427 184.642 341.633 183.357C338.915 181.973 337.321 179.67 336.831 176.275C336.347 172.923 337.159 170.14 339.299 167.831C341.39 165.484 344.159 164.107 347.551 163.617C353.675 162.732 358.842 165.185 362.058 170.008L357.204 173.775C355.115 170.522 352.17 169.126 348.425 169.667C344.768 170.195 342.697 172.361 343.112 175.234C343.515 178.02 345.554 179.058 351.672 179.996C353.195 180.265 354.302 180.46 355 180.626C355.737 180.742 356.718 181 357.977 181.307C359.281 181.607 360.332 182.033 360.974 182.429C363.227 183.703 365.756 185.959 366.014 189.61C366.504 193.005 365.667 195.926 363.446 198.291C361.267 200.65 358.146 202.079 354.093 202.664C346.685 203.69 340.806 200.985 337.988 195.482Z" fill="#85ECAF"/>
<g clip-path="url(#clip1_62_3137)">
<path fill-rule="evenodd" clip-rule="evenodd" d="M18.4677 123.142C11.7251 123.301 5.20246 125.566 -0.203656 129.627C-5.60978 133.688 -9.63398 139.345 -11.7231 145.821C-13.8123 152.297 -13.8639 159.273 -11.8707 165.791C-9.87758 172.309 -5.93759 178.049 -0.592315 182.222C4.75296 186.395 11.2411 188.795 17.9804 189.094C24.7196 189.393 31.3791 187.575 37.0435 183.89C42.7078 180.205 47.099 174.835 49.6134 168.516C52.1279 162.198 52.6421 155.242 51.0855 148.605C49.3627 141.226 45.1786 134.665 39.2376 130.028C33.2966 125.39 25.9616 122.958 18.4677 123.142ZM23.9183 173.142C20.4048 174.094 16.6816 173.908 13.2719 172.61C9.86222 171.313 6.93748 168.969 4.90875 165.909C2.88001 162.849 1.84927 159.226 1.9614 155.549C2.07352 151.872 3.32286 148.327 5.53384 145.411C7.74482 142.495 10.8063 140.355 14.288 139.291C17.7696 138.228 21.4965 138.295 24.9447 139.483C28.393 140.671 31.3893 142.92 33.5125 145.915C35.6358 148.909 36.7792 152.497 36.7821 156.176C36.7863 160.046 35.5283 163.805 33.2028 166.872C30.8773 169.939 27.6141 172.143 23.9183 173.142ZM64.7581 118.425C63.6358 118.574 62.5613 118.974 61.6126 119.596C60.6639 120.218 59.865 121.047 59.2739 122.021C58.6829 122.996 58.3146 124.092 58.1959 125.23C58.0771 126.367 58.211 127.518 58.5876 128.599C59.7668 132.104 63.4111 134.129 67.0319 133.657L88.0445 130.918L61.047 178.933C60.8473 179.287 60.7494 179.691 60.7642 180.1C60.7791 180.508 60.9061 180.904 61.1312 181.244C61.3562 181.584 61.6703 181.854 62.0382 182.024C62.4062 182.194 62.8134 182.258 63.2143 182.207L114.508 175.521C118.127 175.049 121.132 172.158 121.374 168.467C121.461 167.327 121.295 166.18 120.889 165.111C120.483 164.041 119.846 163.076 119.026 162.286C118.205 161.495 117.221 160.899 116.144 160.541C115.068 160.182 113.927 160.071 112.804 160.214L87.2021 163.551L114.179 115.573C114.381 115.215 114.48 114.807 114.464 114.395C114.449 113.983 114.321 113.583 114.094 113.24C113.866 112.896 113.549 112.624 113.177 112.452C112.806 112.281 112.394 112.217 111.99 112.269L64.7581 118.425ZM269.748 91.8849C268.103 92.5145 266.721 93.6932 265.832 95.2262C264.942 96.7592 264.597 98.5546 264.855 100.316L268.169 125.738L223.152 98.2675C222.799 98.0528 222.394 97.9429 221.983 97.9505C221.571 97.9581 221.171 98.083 220.827 98.3107C220.483 98.5384 220.211 98.8598 220.04 99.2377C219.869 99.6157 219.808 100.035 219.863 100.447L226.705 152.938C226.907 154.707 227.7 156.354 228.953 157.608C230.206 158.861 231.844 159.647 233.595 159.833C234.73 159.935 235.872 159.778 236.937 159.374C238.002 158.969 238.964 158.328 239.75 157.498C240.536 156.667 241.127 155.668 241.48 154.575C241.832 153.482 241.937 152.321 241.787 151.18L238.445 125.538L283.462 153.009C283.815 153.223 284.22 153.333 284.631 153.325C285.042 153.318 285.443 153.193 285.786 152.965C286.13 152.738 286.402 152.416 286.573 152.039C286.743 151.661 286.805 151.242 286.75 150.83L279.883 98.1469C279.736 97.0054 279.337 95.9113 278.715 94.9451C278.094 93.9789 277.267 93.1653 276.294 92.5644C275.321 91.9634 274.228 91.5904 273.095 91.4728C271.962 91.3551 270.818 91.496 269.748 91.8849ZM165.44 119.344C182.673 117.097 196.75 124.627 197.823 132.863C198.897 141.099 187.221 151.986 169.987 154.232C152.754 156.478 138.677 148.949 137.603 140.713C136.53 132.476 148.206 121.59 165.44 119.344ZM163.449 104.075C138.505 107.327 120.193 124.609 122.548 142.675C124.903 160.741 147.033 172.752 171.977 169.5C196.922 166.249 215.233 148.967 212.878 130.901C210.524 112.834 188.393 100.824 163.449 104.075Z" fill="#A4F0C3"/>
</g>
<path d="M179.111 50.0103L176.685 60.9199C174.187 72.1465 166.101 81.305 155.271 85.1741C166.109 89.046 174.218 98.1865 176.771 109.409L179.111 119.699L181.452 109.409C184.005 98.1865 192.114 89.046 202.952 85.1741C192.121 81.305 184.035 72.1465 181.538 60.9199L179.111 50.0103Z" fill="white"/>
<path d="M25.6746 -8.9863L22.5488 6.06225C19.7639 19.4702 10.3447 30.538 -2.44529 35.4312C10.3531 40.3276 19.7984 51.3758 22.6455 64.7798L25.6746 79.0411L28.7037 64.7798C31.5507 51.3758 40.996 40.3276 53.7944 35.4312C41.0044 30.538 31.5853 19.4702 28.8003 6.06226L25.6746 -8.9863Z" fill="white" fill-opacity="0.66"/>
<path d="M41.1675 292.852H43.1628V300.628H39.0548V296.99H26.907V300.628H22.7991V292.852H24.4423C24.7357 292.618 24.9802 292.363 25.1758 292.09C25.391 291.816 25.5866 291.385 25.7627 290.798C25.9583 290.192 26.1148 289.576 26.2322 288.95C26.3495 288.304 26.4767 287.317 26.6136 285.986C26.7701 284.656 26.907 283.336 27.0244 282.025C27.1418 280.695 27.2983 278.837 27.4939 276.45H41.1675V292.852ZM31.3377 280.587C31.103 284.382 30.8194 287.17 30.4868 288.95C30.1543 290.71 29.6652 292.011 29.0197 292.852H36.7368V280.587H31.3377ZM49.315 281.145H60.6412V296.99H56.4453V284.871H52.8068L52.2786 290.505C52.0439 292.892 51.4081 294.584 50.3714 295.581C49.3346 296.579 47.7795 297.078 45.7059 297.078H45.0017V293.205H46.058C46.6449 293.205 47.1339 292.999 47.5252 292.588C47.9164 292.178 48.1511 291.591 48.2294 290.828L49.315 281.145ZM69.6507 281.145H77.5439V296.99H73.4359V291.503H70.9418L67.8902 296.99H63.3128L66.8632 290.769C66.0025 290.3 65.3374 289.683 64.8679 288.921C64.418 288.158 64.193 287.307 64.193 286.368C64.193 284.881 64.7114 283.639 65.7482 282.641C66.785 281.644 68.0858 281.145 69.6507 281.145ZM70.443 288.216H73.4359V284.549H70.443C69.817 284.549 69.3182 284.725 68.9465 285.077C68.5944 285.409 68.4184 285.849 68.4184 286.397C68.4184 286.749 68.4966 287.062 68.6531 287.336C68.8096 287.61 69.0346 287.825 69.328 287.982C69.641 288.138 70.0126 288.216 70.443 288.216ZM88.6773 281.145H102.996V296.99H98.7417V285.018H92.9319V296.99H88.6773V281.145ZM115.758 280.705C118.145 280.705 120.121 281.497 121.685 283.081C123.27 284.666 124.062 286.661 124.062 289.067C124.062 291.473 123.27 293.478 121.685 295.082C120.101 296.667 118.125 297.459 115.758 297.459C114.135 297.459 112.677 297.019 111.386 296.139V302.712H107.102V281.145H109.948L110.682 282.583C112.09 281.331 113.783 280.705 115.758 280.705ZM112.296 292.178C113.117 292.999 114.144 293.41 115.377 293.41C116.629 293.41 117.666 292.999 118.487 292.178C119.309 291.356 119.72 290.319 119.72 289.067C119.72 288.246 119.534 287.502 119.162 286.837C118.79 286.172 118.272 285.654 117.607 285.282C116.961 284.91 116.228 284.725 115.406 284.725C114.585 284.725 113.841 284.91 113.176 285.282C112.511 285.654 111.993 286.172 111.621 286.837C111.269 287.502 111.093 288.246 111.093 289.067C111.093 290.319 111.494 291.356 112.296 292.178ZM134.644 297.43C133.021 297.43 131.554 297.068 130.243 296.344C128.932 295.62 127.905 294.623 127.162 293.351C126.438 292.06 126.076 290.632 126.076 289.067C126.076 286.661 126.888 284.666 128.512 283.081C130.135 281.497 132.18 280.705 134.644 280.705C137.09 280.705 139.124 281.497 140.748 283.081C142.371 284.666 143.183 286.661 143.183 289.067C143.183 291.454 142.361 293.449 140.718 295.053C139.095 296.638 137.07 297.43 134.644 297.43ZM134.644 293.41C135.877 293.41 136.884 293.009 137.667 292.207C138.449 291.385 138.84 290.339 138.84 289.067C138.84 287.796 138.449 286.759 137.667 285.957C136.884 285.135 135.867 284.725 134.615 284.725C133.383 284.725 132.375 285.135 131.593 285.957C130.81 286.759 130.419 287.796 130.419 289.067C130.419 289.693 130.517 290.28 130.712 290.828C130.928 291.376 131.221 291.835 131.593 292.207C131.964 292.579 132.404 292.872 132.913 293.087C133.441 293.302 134.018 293.41 134.644 293.41ZM160.393 292.97H162.33V300.628H158.457V296.99H148.539V300.628H144.636V292.97H146.28C146.886 292.481 147.326 291.532 147.6 290.124C147.893 288.715 148.245 285.722 148.656 281.145H160.393V292.97ZM152.412 284.901C152.256 287.307 152.05 289.106 151.796 290.3C151.542 291.493 151.18 292.383 150.71 292.97H156.197V284.901H152.412ZM178.269 281.115H181.467V296.96H178.093L177.741 295.552C176.293 296.804 174.581 297.43 172.606 297.43C170.219 297.43 168.234 296.638 166.649 295.053C165.084 293.449 164.302 291.444 164.302 289.038C164.302 286.651 165.084 284.666 166.649 283.081C168.234 281.497 170.219 280.705 172.606 280.705C174.621 280.705 176.352 281.35 177.799 282.641L178.269 281.115ZM169.847 292.148C170.669 292.97 171.696 293.381 172.928 293.381C174.18 293.381 175.217 292.97 176.039 292.148C176.86 291.327 177.271 290.29 177.271 289.038C177.271 287.786 176.86 286.749 176.039 285.928C175.217 285.106 174.19 284.695 172.958 284.695C172.136 284.695 171.393 284.891 170.728 285.282C170.082 285.654 169.574 286.172 169.202 286.837C168.83 287.483 168.644 288.216 168.644 289.038C168.644 290.29 169.045 291.327 169.847 292.148ZM207.947 296.99H203.017L197.618 289.654V296.99H193.481V289.713L188.316 296.99H183.387L189.314 288.745L184.003 281.145H188.845L193.481 288.011V281.145H197.618V288.07L202.46 281.145H207.301L201.873 288.715L207.947 296.99Z" fill="white"/>
<path d="M31.2681 329.781L27.2518 324.151H25.748V329.781H23.639V316.943H25.748V322.188H27.2335L30.9013 316.943H33.4871L29.104 323.142L33.8905 329.781H31.2681ZM42.8678 328.552C41.8652 329.53 40.606 330.019 39.0899 330.019C37.5739 330.019 36.3085 329.53 35.2938 328.552C34.2912 327.562 33.79 326.321 33.79 324.829C33.79 323.851 34.0161 322.965 34.4685 322.17C34.9331 321.375 35.5688 320.758 36.3758 320.318C37.1949 319.866 38.0996 319.639 39.0899 319.639C40.0802 319.639 40.9789 319.866 41.7858 320.318C42.6049 320.758 43.2407 321.375 43.693 322.17C44.1576 322.965 44.3899 323.851 44.3899 324.829C44.3899 326.321 43.8825 327.562 42.8678 328.552ZM39.0899 328.075C39.7135 328.075 40.2698 327.941 40.7588 327.672C41.2478 327.391 41.6268 327.006 41.8958 326.516C42.177 326.015 42.3176 325.453 42.3176 324.829C42.3176 323.888 42.012 323.112 41.4007 322.5C40.8016 321.889 40.0313 321.583 39.0899 321.583C38.1485 321.583 37.3722 321.889 36.7609 322.5C36.1618 323.112 35.8623 323.888 35.8623 324.829C35.8623 325.771 36.1618 326.547 36.7609 327.158C37.3722 327.77 38.1485 328.075 39.0899 328.075ZM59.0491 329.781H57.0868L55.8948 323.032L52.5754 329.671H52.1536L48.8526 323.032L47.6606 329.781H45.6983L47.4772 319.878H49.2011L52.3737 326.205L55.5647 319.878H57.2702L59.0491 329.781ZM73.7168 329.781H71.7545L70.5625 323.032L67.2431 329.671H66.8213L63.5203 323.032L62.3282 329.781H60.3659L62.1448 319.878H63.8687L67.0414 326.205L70.2324 319.878H71.9379L73.7168 329.781ZM85.1585 324.848C85.1585 325.031 85.1462 325.257 85.1218 325.526H77.0893C77.2116 326.321 77.5417 326.95 78.0796 327.415C78.6298 327.88 79.3083 328.112 80.1152 328.112C80.5065 328.112 80.8732 328.057 81.2156 327.947C81.5579 327.825 81.8574 327.66 82.1142 327.452C82.3832 327.232 82.6032 326.969 82.7744 326.663H84.9201C84.5288 327.715 83.9053 328.54 83.0495 329.139C82.1937 329.726 81.2156 330.019 80.1152 330.019C78.6603 330.019 77.4438 329.524 76.4658 328.534C75.4999 327.543 75.017 326.309 75.017 324.829C75.017 323.35 75.4999 322.115 76.4658 321.125C77.4438 320.134 78.6603 319.639 80.1152 319.639C81.1055 319.639 81.9858 319.878 82.7561 320.355C83.5263 320.819 84.1193 321.449 84.5349 322.243C84.9506 323.026 85.1585 323.894 85.1585 324.848ZM80.1152 321.473C79.3572 321.473 78.7092 321.687 78.1713 322.115C77.6456 322.543 77.2971 323.13 77.126 323.876H83.1228C83.0006 323.374 82.7988 322.946 82.5176 322.592C82.2364 322.225 81.888 321.95 81.4723 321.767C81.0689 321.571 80.6165 321.473 80.1152 321.473ZM92.6382 319.639C93.6163 319.639 94.4966 319.866 95.279 320.318C96.0615 320.758 96.6728 321.375 97.1129 322.17C97.5531 322.965 97.7732 323.851 97.7732 324.829C97.7732 326.321 97.2841 327.562 96.306 328.552C95.3402 329.53 94.1176 330.019 92.6382 330.019C91.3667 330.019 90.2725 329.622 89.3555 328.827V333.339H87.3199V319.878H88.6953L89.0804 321.088C90.0341 320.122 91.22 319.639 92.6382 319.639ZM90.1624 327.158C90.7737 327.77 91.544 328.075 92.4732 328.075C93.4146 328.075 94.1909 327.77 94.8022 327.158C95.4135 326.535 95.7192 325.758 95.7192 324.829C95.7192 323.9 95.4135 323.13 94.8022 322.519C94.1909 321.895 93.4207 321.583 92.4915 321.583C91.8802 321.583 91.3239 321.724 90.8227 322.005C90.3214 322.286 89.9302 322.678 89.649 323.179C89.38 323.668 89.2455 324.218 89.2455 324.829C89.2455 325.758 89.5511 326.535 90.1624 327.158ZM105.355 319.878H107.336V329.781H105.355V326.241C104.683 326.486 103.974 326.608 103.228 326.608C102.018 326.608 101.046 326.254 100.312 325.545C99.5787 324.835 99.2119 323.857 99.2119 322.61V319.878H101.211V322.537C101.211 323.246 101.394 323.79 101.761 324.169C102.14 324.548 102.684 324.738 103.393 324.738C104.102 324.738 104.756 324.579 105.355 324.261V319.878ZM119.634 324.848C119.634 325.031 119.621 325.257 119.597 325.526H111.565C111.687 326.321 112.017 326.95 112.555 327.415C113.105 327.88 113.784 328.112 114.59 328.112C114.982 328.112 115.348 328.057 115.691 327.947C116.033 327.825 116.333 327.66 116.589 327.452C116.858 327.232 117.078 326.969 117.25 326.663H119.395C119.004 327.715 118.381 328.54 117.525 329.139C116.669 329.726 115.691 330.019 114.59 330.019C113.136 330.019 111.919 329.524 110.941 328.534C109.975 327.543 109.492 326.309 109.492 324.829C109.492 323.35 109.975 322.115 110.941 321.125C111.919 320.134 113.136 319.639 114.59 319.639C115.581 319.639 116.461 319.878 117.231 320.355C118.002 320.819 118.595 321.449 119.01 322.243C119.426 323.026 119.634 323.894 119.634 324.848ZM114.59 321.473C113.832 321.473 113.184 321.687 112.647 322.115C112.121 322.543 111.772 323.13 111.601 323.876H117.598C117.476 323.374 117.274 322.946 116.993 322.592C116.712 322.225 116.363 321.95 115.948 321.767C115.544 321.571 115.092 321.473 114.59 321.473ZM126.252 330.019C124.784 330.019 123.55 329.524 122.547 328.534C121.557 327.531 121.062 326.296 121.062 324.829C121.062 323.35 121.557 322.115 122.547 321.125C123.55 320.134 124.791 319.639 126.27 319.639C127.48 319.639 128.532 319.982 129.424 320.666C130.317 321.351 130.897 322.262 131.166 323.399H129.149C128.892 322.836 128.507 322.396 127.994 322.078C127.48 321.748 126.9 321.583 126.252 321.583C125.677 321.583 125.151 321.724 124.674 322.005C124.198 322.286 123.819 322.678 123.537 323.179C123.268 323.668 123.134 324.218 123.134 324.829C123.134 325.746 123.433 326.516 124.033 327.14C124.632 327.764 125.371 328.075 126.252 328.075C126.9 328.075 127.474 327.91 127.975 327.58C128.489 327.25 128.88 326.779 129.149 326.168H131.203C130.922 327.33 130.329 328.265 129.424 328.974C128.532 329.671 127.474 330.019 126.252 330.019ZM139.439 329.781L136.468 325.563H135.239V329.781H133.203V319.878H135.239V323.711H136.486L139.182 319.878H141.584L138.228 324.628L141.951 329.781H139.439ZM151.38 328.552C150.377 329.53 149.118 330.019 147.602 330.019C146.086 330.019 144.82 329.53 143.806 328.552C142.803 327.562 142.302 326.321 142.302 324.829C142.302 323.851 142.528 322.965 142.98 322.17C143.445 321.375 144.081 320.758 144.888 320.318C145.707 319.866 146.612 319.639 147.602 319.639C148.592 319.639 149.491 319.866 150.298 320.318C151.117 320.758 151.753 321.375 152.205 322.17C152.67 322.965 152.902 323.851 152.902 324.829C152.902 326.321 152.395 327.562 151.38 328.552ZM147.602 328.075C148.225 328.075 148.782 327.941 149.271 327.672C149.76 327.391 150.139 327.006 150.408 326.516C150.689 326.015 150.83 325.453 150.83 324.829C150.83 323.888 150.524 323.112 149.913 322.5C149.314 321.889 148.543 321.583 147.602 321.583C146.66 321.583 145.884 321.889 145.273 322.5C144.674 323.112 144.374 323.888 144.374 324.829C144.374 325.771 144.674 326.547 145.273 327.158C145.884 327.77 146.66 328.075 147.602 328.075ZM164.478 324.848C164.478 325.031 164.466 325.257 164.442 325.526H156.409C156.531 326.321 156.862 326.95 157.4 327.415C157.95 327.88 158.628 328.112 159.435 328.112C159.826 328.112 160.193 328.057 160.536 327.947C160.878 327.825 161.177 327.66 161.434 327.452C161.703 327.232 161.923 326.969 162.094 326.663H164.24C163.849 327.715 163.225 328.54 162.369 329.139C161.514 329.726 160.536 330.019 159.435 330.019C157.98 330.019 156.764 329.524 155.786 328.534C154.82 327.543 154.337 326.309 154.337 324.829C154.337 323.35 154.82 322.115 155.786 321.125C156.764 320.134 157.98 319.639 159.435 319.639C160.425 319.639 161.306 319.878 162.076 320.355C162.846 320.819 163.439 321.449 163.855 322.243C164.271 323.026 164.478 323.894 164.478 324.848ZM159.435 321.473C158.677 321.473 158.029 321.687 157.491 322.115C156.966 322.543 156.617 323.13 156.446 323.876H162.443C162.321 323.374 162.119 322.946 161.838 322.592C161.556 322.225 161.208 321.95 160.792 321.767C160.389 321.571 159.936 321.473 159.435 321.473ZM171.26 319.878H179.898V329.781H177.881V321.73H173.296V329.781H171.26V319.878ZM188.112 319.639C189.09 319.639 189.971 319.866 190.753 320.318C191.536 320.758 192.147 321.375 192.587 322.17C193.027 322.965 193.247 323.851 193.247 324.829C193.247 326.321 192.758 327.562 191.78 328.552C190.814 329.53 189.592 330.019 188.112 330.019C186.841 330.019 185.747 329.622 184.83 328.827V333.339H182.794V319.878H184.169L184.555 321.088C185.508 320.122 186.694 319.639 188.112 319.639ZM185.637 327.158C186.248 327.77 187.018 328.075 187.947 328.075C188.889 328.075 189.665 327.77 190.276 327.158C190.888 326.535 191.193 325.758 191.193 324.829C191.193 323.9 190.888 323.13 190.276 322.519C189.665 321.895 188.895 321.583 187.966 321.583C187.354 321.583 186.798 321.724 186.297 322.005C185.795 322.286 185.404 322.678 185.123 323.179C184.854 323.668 184.72 324.218 184.72 324.829C184.72 325.758 185.025 326.535 185.637 327.158ZM204.846 324.848C204.846 325.031 204.834 325.257 204.809 325.526H196.777C196.899 326.321 197.229 326.95 197.767 327.415C198.317 327.88 198.996 328.112 199.803 328.112C200.194 328.112 200.561 328.057 200.903 327.947C201.245 327.825 201.545 327.66 201.802 327.452C202.07 327.232 202.291 326.969 202.462 326.663H204.607C204.216 327.715 203.593 328.54 202.737 329.139C201.881 329.726 200.903 330.019 199.803 330.019C198.348 330.019 197.131 329.524 196.153 328.534C195.187 327.543 194.704 326.309 194.704 324.829C194.704 323.35 195.187 322.115 196.153 321.125C197.131 320.134 198.348 319.639 199.803 319.639C200.793 319.639 201.673 319.878 202.443 320.355C203.214 320.819 203.807 321.449 204.222 322.243C204.638 323.026 204.846 323.894 204.846 324.848ZM199.803 321.473C199.045 321.473 198.397 321.687 197.859 322.115C197.333 322.543 196.984 323.13 196.813 323.876H202.81C202.688 323.374 202.486 322.946 202.205 322.592C201.924 322.225 201.575 321.95 201.16 321.767C200.756 321.571 200.304 321.473 199.803 321.473ZM215.447 327.855H216.731V332.275H214.879V329.781H207.653V332.275H205.801V327.855H206.846C207.127 327.623 207.341 327.268 207.488 326.792C207.647 326.315 207.787 325.593 207.91 324.628C208.032 323.649 208.191 322.066 208.387 319.878H215.447V327.855ZM210.184 321.675C210.049 323.668 209.896 325.098 209.725 325.966C209.554 326.834 209.303 327.464 208.973 327.855H213.448V321.675H210.184ZM220.659 319.878H227.389V329.781H225.391V321.638H222.328L221.888 326.021C221.753 327.415 221.393 328.399 220.806 328.974C220.231 329.549 219.357 329.836 218.183 329.836H217.835V327.965H218.312C219.278 327.965 219.822 327.36 219.944 326.15L220.659 319.878ZM238.633 328.552C237.631 329.53 236.372 330.019 234.856 330.019C233.34 330.019 232.074 329.53 231.059 328.552C230.057 327.562 229.556 326.321 229.556 324.829C229.556 323.851 229.782 322.965 230.234 322.17C230.699 321.375 231.335 320.758 232.141 320.318C232.961 319.866 233.865 319.639 234.856 319.639C235.846 319.639 236.745 319.866 237.551 320.318C238.371 320.758 239.006 321.375 239.459 322.17C239.923 322.965 240.156 323.851 240.156 324.829C240.156 326.321 239.648 327.562 238.633 328.552ZM234.856 328.075C235.479 328.075 236.035 327.941 236.524 327.672C237.014 327.391 237.393 327.006 237.661 326.516C237.943 326.015 238.083 325.453 238.083 324.829C238.083 323.888 237.778 323.112 237.166 322.5C236.567 321.889 235.797 321.583 234.856 321.583C233.914 321.583 233.138 321.889 232.527 322.5C231.927 323.112 231.628 323.888 231.628 324.829C231.628 325.771 231.927 326.547 232.527 327.158C233.138 327.77 233.914 328.075 234.856 328.075ZM253.116 329.781L250.218 325.563H249.044V329.781H247.082V325.563H245.89L243.011 329.781H240.535L244.203 324.573L240.902 319.878H243.231L245.908 323.747H247.082V319.878H249.044V323.747H250.218L252.877 319.878H255.225L251.924 324.573L255.591 329.781H253.116ZM266.095 324.848C266.095 325.031 266.083 325.257 266.059 325.526H258.026C258.148 326.321 258.478 326.95 259.016 327.415C259.567 327.88 260.245 328.112 261.052 328.112C261.443 328.112 261.81 328.057 262.152 327.947C262.495 327.825 262.794 327.66 263.051 327.452C263.32 327.232 263.54 326.969 263.711 326.663H265.857C265.466 327.715 264.842 328.54 263.986 329.139C263.131 329.726 262.152 330.019 261.052 330.019C259.597 330.019 258.381 329.524 257.403 328.534C256.437 327.543 255.954 326.309 255.954 324.829C255.954 323.35 256.437 322.115 257.403 321.125C258.381 320.134 259.597 319.639 261.052 319.639C262.042 319.639 262.923 319.878 263.693 320.355C264.463 320.819 265.056 321.449 265.472 322.243C265.887 323.026 266.095 323.894 266.095 324.848ZM261.052 321.473C260.294 321.473 259.646 321.687 259.108 322.115C258.582 322.543 258.234 323.13 258.063 323.876H264.06C263.937 323.374 263.736 322.946 263.454 322.592C263.173 322.225 262.825 321.95 262.409 321.767C262.006 321.571 261.553 321.473 261.052 321.473ZM274.859 319.878H276.858V329.781H274.859V325.636H270.274V329.781H268.257V319.878H270.274V323.766H274.859V319.878ZM287.017 319.878H288.154V329.781H286.21V323.491L280.928 329.781H279.754V319.878H281.717V326.113L287.017 319.878ZM300.463 324.848C300.463 325.031 300.451 325.257 300.426 325.526H292.394C292.516 326.321 292.846 326.95 293.384 327.415C293.934 327.88 294.613 328.112 295.42 328.112C295.811 328.112 296.178 328.057 296.52 327.947C296.863 327.825 297.162 327.66 297.419 327.452C297.688 327.232 297.908 326.969 298.079 326.663H300.225C299.833 327.715 299.21 328.54 298.354 329.139C297.498 329.726 296.52 330.019 295.42 330.019C293.965 330.019 292.748 329.524 291.77 328.534C290.805 327.543 290.322 326.309 290.322 324.829C290.322 323.35 290.805 322.115 291.77 321.125C292.748 320.134 293.965 319.639 295.42 319.639C296.41 319.639 297.29 319.878 298.061 320.355C298.831 320.819 299.424 321.449 299.84 322.243C300.255 323.026 300.463 323.894 300.463 324.848ZM295.42 321.473C294.662 321.473 294.014 321.687 293.476 322.115C292.95 322.543 292.602 323.13 292.431 323.876H298.427C298.305 323.374 298.103 322.946 297.822 322.592C297.541 322.225 297.193 321.95 296.777 321.767C296.373 321.571 295.921 321.473 295.42 321.473ZM302.299 332.422V331.358C303.057 331.175 303.436 330.649 303.436 329.781H302.189V327.452H304.5V329.616C304.5 330.398 304.304 331.028 303.913 331.505C303.522 331.982 302.984 332.287 302.299 332.422ZM31.7999 350.552C30.7973 351.53 29.5381 352.019 28.022 352.019C26.506 352.019 25.2406 351.53 24.2259 350.552C23.2233 349.562 22.7221 348.321 22.7221 346.829C22.7221 345.851 22.9482 344.965 23.4006 344.17C23.8652 343.375 24.5009 342.758 25.3079 342.318C26.127 341.866 27.0317 341.639 28.022 341.639C29.0123 341.639 29.911 341.866 30.7179 342.318C31.537 342.758 32.1728 343.375 32.6251 344.17C33.0897 344.965 33.322 345.851 33.322 346.829C33.322 348.321 32.8146 349.562 31.7999 350.552ZM28.022 350.075C28.6456 350.075 29.2019 349.941 29.6909 349.672C30.1799 349.391 30.5589 349.006 30.8279 348.516C31.1091 348.015 31.2497 347.453 31.2497 346.829C31.2497 345.888 30.9441 345.112 30.3328 344.5C29.7337 343.889 28.9634 343.583 28.022 343.583C27.0806 343.583 26.3043 343.889 25.693 344.5C25.0939 345.112 24.7944 345.888 24.7944 346.829C24.7944 347.771 25.0939 348.547 25.693 349.158C26.3043 349.77 27.0806 350.075 28.022 350.075ZM35.4906 341.878H44.1283V351.781H42.111V343.73H37.5262V351.781H35.4906V341.878ZM54.2864 341.878H55.4234V351.781H53.4795V345.491L48.1978 351.781H47.0242V341.878H48.9864V348.113L54.2864 341.878ZM62.7813 352.019C61.3141 352.019 60.0793 351.524 59.0768 350.534C58.0865 349.531 57.5913 348.296 57.5913 346.829C57.5913 345.35 58.0865 344.115 59.0768 343.125C60.0793 342.134 61.3202 341.639 62.7996 341.639C64.01 341.639 65.0614 341.982 65.9539 342.666C66.8464 343.351 67.4271 344.262 67.6961 345.399H65.6788C65.4221 344.836 65.037 344.396 64.5235 344.078C64.01 343.748 63.4292 343.583 62.7813 343.583C62.2066 343.583 61.6809 343.724 61.2041 344.005C60.7273 344.286 60.3483 344.678 60.0671 345.179C59.7981 345.668 59.6636 346.218 59.6636 346.829C59.6636 347.746 59.9632 348.516 60.5622 349.14C61.1613 349.764 61.901 350.075 62.7813 350.075C63.4292 350.075 64.0039 349.91 64.5051 349.58C65.0186 349.25 65.4099 348.779 65.6788 348.168H67.7328C67.4516 349.33 66.8586 350.265 65.9539 350.974C65.0614 351.671 64.0039 352.019 62.7813 352.019ZM78.0223 341.878H79.5994V351.781H77.9489L77.7472 350.57C76.7936 351.536 75.6015 352.019 74.1711 352.019C72.6917 352.019 71.4569 351.524 70.4666 350.534C69.4885 349.543 68.9995 348.309 68.9995 346.829C68.9995 345.338 69.4885 344.103 70.4666 343.125C71.4569 342.134 72.6917 341.639 74.1711 341.639C75.626 341.639 76.8302 342.128 77.7839 343.106L78.0223 341.878ZM71.9887 349.158C72.6123 349.77 73.3886 350.075 74.3178 350.075C75.2592 350.075 76.0294 349.77 76.6285 349.158C77.2398 348.535 77.5455 347.758 77.5455 346.829C77.5455 345.888 77.2398 345.112 76.6285 344.5C76.0294 343.889 75.2592 343.583 74.3178 343.583C73.7065 343.583 73.1502 343.724 72.6489 344.005C72.1599 344.286 71.7748 344.678 71.4936 345.179C71.2124 345.668 71.0718 346.218 71.0718 346.829C71.0718 347.758 71.3774 348.535 71.9887 349.158ZM89.1044 341.878H91.1033V351.781H89.1044V347.636H84.5196V351.781H82.5023V341.878H84.5196V345.766H89.1044V341.878ZM101.262 341.878H102.399V351.781H100.455V345.491L95.1737 351.781H94V341.878H95.9623V348.113L101.262 341.878ZM114.709 346.848C114.709 347.031 114.696 347.257 114.672 347.526H106.64C106.762 348.321 107.092 348.95 107.63 349.415C108.18 349.88 108.859 350.112 109.665 350.112C110.057 350.112 110.423 350.057 110.766 349.947C111.108 349.825 111.408 349.66 111.664 349.452C111.933 349.232 112.153 348.969 112.325 348.663H114.47C114.079 349.715 113.456 350.54 112.6 351.139C111.744 351.726 110.766 352.019 109.665 352.019C108.211 352.019 106.994 351.524 106.016 350.534C105.05 349.543 104.567 348.309 104.567 346.829C104.567 345.35 105.05 344.115 106.016 343.125C106.994 342.134 108.211 341.639 109.665 341.639C110.656 341.639 111.536 341.878 112.306 342.355C113.077 342.819 113.669 343.449 114.085 344.243C114.501 345.026 114.709 345.894 114.709 346.848ZM109.665 343.473C108.907 343.473 108.259 343.687 107.722 344.115C107.196 344.543 106.847 345.13 106.676 345.876H112.673C112.551 345.374 112.349 344.946 112.068 344.592C111.787 344.225 111.438 343.95 111.023 343.767C110.619 343.571 110.167 343.473 109.665 343.473ZM129.321 341.878V343.712H125.837V351.781H123.856V343.712H120.354V341.878H129.321ZM139.166 350.552C138.163 351.53 136.904 352.019 135.388 352.019C133.872 352.019 132.606 351.53 131.592 350.552C130.589 349.562 130.088 348.321 130.088 346.829C130.088 345.851 130.314 344.965 130.766 344.17C131.231 343.375 131.867 342.758 132.674 342.318C133.493 341.866 134.398 341.639 135.388 341.639C136.378 341.639 137.277 341.866 138.084 342.318C138.903 342.758 139.539 343.375 139.991 344.17C140.455 344.965 140.688 345.851 140.688 346.829C140.688 348.321 140.18 349.562 139.166 350.552ZM135.388 350.075C136.011 350.075 136.568 349.941 137.057 349.672C137.546 349.391 137.925 349.006 138.194 348.516C138.475 348.015 138.615 347.453 138.615 346.829C138.615 345.888 138.31 345.112 137.699 344.5C137.099 343.889 136.329 343.583 135.388 343.583C134.446 343.583 133.67 343.889 133.059 344.5C132.46 345.112 132.16 345.888 132.16 346.829C132.16 347.771 132.46 348.547 133.059 349.158C133.67 349.77 134.446 350.075 135.388 350.075ZM149.568 346.609C149.801 346.707 150.009 346.835 150.192 346.994C150.388 347.141 150.553 347.318 150.687 347.526C150.822 347.722 150.926 347.942 150.999 348.186C151.072 348.431 151.109 348.682 151.109 348.938C151.109 349.745 150.816 350.424 150.229 350.974C149.642 351.512 148.908 351.781 148.028 351.781H142.856V341.878H147.955C148.786 341.878 149.465 342.116 149.99 342.593C150.528 343.058 150.797 343.663 150.797 344.409C150.797 344.873 150.687 345.301 150.467 345.692C150.247 346.083 149.947 346.389 149.568 346.609ZM148.78 344.739C148.78 344.396 148.664 344.121 148.431 343.913C148.211 343.706 147.918 343.602 147.551 343.602H144.855V345.876H147.551C147.918 345.876 148.211 345.772 148.431 345.564C148.664 345.356 148.78 345.081 148.78 344.739ZM147.661 350.002C148.065 350.002 148.389 349.886 148.633 349.653C148.89 349.421 149.018 349.128 149.018 348.773C149.018 348.406 148.89 348.107 148.633 347.875C148.376 347.642 148.046 347.526 147.643 347.526H144.855V350.002H147.661ZM161.694 341.878H163.271V351.781H161.621L161.419 350.57C160.465 351.536 159.273 352.019 157.843 352.019C156.364 352.019 155.129 351.524 154.138 350.534C153.16 349.543 152.671 348.309 152.671 346.829C152.671 345.338 153.16 344.103 154.138 343.125C155.129 342.134 156.364 341.639 157.843 341.639C159.298 341.639 160.502 342.128 161.456 343.106L161.694 341.878ZM155.661 349.158C156.284 349.77 157.06 350.075 157.99 350.075C158.931 350.075 159.701 349.77 160.3 349.158C160.912 348.535 161.217 347.758 161.217 346.829C161.217 345.888 160.912 345.112 160.3 344.5C159.701 343.889 158.931 343.583 157.99 343.583C157.378 343.583 156.822 343.724 156.321 344.005C155.832 344.286 155.447 344.678 155.165 345.179C154.884 345.668 154.744 346.218 154.744 346.829C154.744 347.758 155.049 348.535 155.661 349.158ZM171.493 341.639C172.471 341.639 173.351 341.866 174.133 342.318C174.916 342.758 175.527 343.375 175.967 344.17C176.407 344.965 176.627 345.851 176.627 346.829C176.627 348.321 176.138 349.562 175.16 350.552C174.194 351.53 172.972 352.019 171.493 352.019C170.221 352.019 169.127 351.622 168.21 350.827V355.339H166.174V341.878H167.55L167.935 343.088C168.888 342.122 170.074 341.639 171.493 341.639ZM169.017 349.158C169.628 349.77 170.398 350.075 171.327 350.075C172.269 350.075 173.045 349.77 173.657 349.158C174.268 348.535 174.573 347.758 174.573 346.829C174.573 345.9 174.268 345.13 173.657 344.519C173.045 343.895 172.275 343.583 171.346 343.583C170.734 343.583 170.178 343.724 169.677 344.005C169.176 344.286 168.784 344.678 168.503 345.179C168.234 345.668 168.1 346.218 168.1 346.829C168.1 347.758 168.405 348.535 169.017 349.158ZM187.162 350.552C186.16 351.53 184.901 352.019 183.385 352.019C181.868 352.019 180.603 351.53 179.588 350.552C178.586 349.562 178.085 348.321 178.085 346.829C178.085 345.851 178.311 344.965 178.763 344.17C179.228 343.375 179.863 342.758 180.67 342.318C181.489 341.866 182.394 341.639 183.385 341.639C184.375 341.639 185.273 341.866 186.08 342.318C186.899 342.758 187.535 343.375 187.988 344.17C188.452 344.965 188.684 345.851 188.684 346.829C188.684 348.321 188.177 349.562 187.162 350.552ZM183.385 350.075C184.008 350.075 184.564 349.941 185.053 349.672C185.542 349.391 185.921 349.006 186.19 348.516C186.472 348.015 186.612 347.453 186.612 346.829C186.612 345.888 186.307 345.112 185.695 344.5C185.096 343.889 184.326 343.583 183.385 343.583C182.443 343.583 181.667 343.889 181.055 344.5C180.456 345.112 180.157 345.888 180.157 346.829C180.157 347.771 180.456 348.547 181.055 349.158C181.667 349.77 182.443 350.075 183.385 350.075ZM197.565 346.609C197.797 346.707 198.005 346.835 198.189 346.994C198.384 347.141 198.549 347.318 198.684 347.526C198.818 347.722 198.922 347.942 198.996 348.186C199.069 348.431 199.106 348.682 199.106 348.938C199.106 349.745 198.812 350.424 198.225 350.974C197.639 351.512 196.905 351.781 196.025 351.781H190.853V341.878H195.951C196.783 341.878 197.461 342.116 197.987 342.593C198.525 343.058 198.794 343.663 198.794 344.409C198.794 344.873 198.684 345.301 198.464 345.692C198.244 346.083 197.944 346.389 197.565 346.609ZM196.777 344.739C196.777 344.396 196.66 344.121 196.428 343.913C196.208 343.706 195.915 343.602 195.548 343.602H192.852V345.876H195.548C195.915 345.876 196.208 345.772 196.428 345.564C196.66 345.356 196.777 345.081 196.777 344.739ZM195.658 350.002C196.061 350.002 196.385 349.886 196.63 349.653C196.887 349.421 197.015 349.128 197.015 348.773C197.015 348.406 196.887 348.107 196.63 347.875C196.373 347.642 196.043 347.526 195.64 347.526H192.852V350.002H195.658ZM214.623 349.855H215.907V354.275H214.055V351.781H206.829V354.275H204.977V349.855H206.022C206.303 349.623 206.517 349.268 206.664 348.792C206.823 348.315 206.964 347.593 207.086 346.628C207.208 345.649 207.367 344.066 207.563 341.878H214.623V349.855ZM209.36 343.675C209.225 345.668 209.073 347.098 208.901 347.966C208.73 348.834 208.48 349.464 208.15 349.855H212.624V343.675H209.36ZM219.835 341.878H226.566V351.781H224.567V343.638H221.504L221.064 348.021C220.929 349.415 220.569 350.399 219.982 350.974C219.407 351.549 218.533 351.836 217.359 351.836H217.011V349.965H217.488C218.454 349.965 218.998 349.36 219.12 348.15L219.835 341.878ZM232.235 341.878H236.966V351.781H234.985V348.15H232.913L230.749 351.781H228.53L230.896 347.82C230.297 347.575 229.826 347.208 229.484 346.719C229.141 346.23 228.97 345.662 228.97 345.014C228.97 344.121 229.282 343.375 229.906 342.776C230.529 342.177 231.305 341.878 232.235 341.878ZM232.51 346.371H234.985V343.675H232.51C232.216 343.675 231.953 343.736 231.721 343.858C231.501 343.968 231.33 344.127 231.208 344.335C231.085 344.531 231.024 344.763 231.024 345.032C231.024 345.423 231.159 345.747 231.428 346.004C231.697 346.249 232.057 346.371 232.51 346.371ZM36.0179 373.781H34.0556L32.8635 367.032L29.5442 373.671H29.1224L25.8214 367.032L24.6293 373.781H22.667L24.4459 363.878H26.1698L29.3425 370.205L32.5334 363.878H34.239L36.0179 373.781ZM46.3409 363.878H47.918V373.781H46.2675L46.0658 372.57C45.1122 373.536 43.9201 374.019 42.4897 374.019C41.0103 374.019 39.7755 373.524 38.7852 372.534C37.8071 371.543 37.3181 370.309 37.3181 368.829C37.3181 367.338 37.8071 366.103 38.7852 365.125C39.7755 364.134 41.0103 363.639 42.4897 363.639C43.9446 363.639 45.1488 364.128 46.1025 365.106L46.3409 363.878ZM40.3073 371.158C40.9309 371.77 41.7072 372.075 42.6364 372.075C43.5778 372.075 44.348 371.77 44.9471 371.158C45.5584 370.535 45.8641 369.758 45.8641 368.829C45.8641 367.888 45.5584 367.112 44.9471 366.5C44.348 365.889 43.5778 365.583 42.6364 365.583C42.0251 365.583 41.4688 365.724 40.9675 366.005C40.4785 366.286 40.0934 366.678 39.8122 367.179C39.531 367.668 39.3904 368.218 39.3904 368.829C39.3904 369.758 39.696 370.535 40.3073 371.158ZM56.1392 363.639C57.1173 363.639 57.9976 363.866 58.7801 364.318C59.5625 364.758 60.1738 365.375 60.614 366.17C61.0541 366.965 61.2742 367.851 61.2742 368.829C61.2742 370.321 60.7851 371.562 59.807 372.552C58.8412 373.53 57.6186 374.019 56.1392 374.019C54.8677 374.019 53.7735 373.622 52.8565 372.827V377.339H50.8209V363.878H52.1963L52.5815 365.088C53.5351 364.122 54.721 363.639 56.1392 363.639ZM53.6635 371.158C54.2748 371.77 55.045 372.075 55.9742 372.075C56.9156 372.075 57.6919 371.77 58.3032 371.158C58.9145 370.535 59.2202 369.758 59.2202 368.829C59.2202 367.9 58.9145 367.13 58.3032 366.519C57.6919 365.895 56.9217 365.583 55.9925 365.583C55.3812 365.583 54.8249 365.724 54.3237 366.005C53.8224 366.286 53.4312 366.678 53.15 367.179C52.881 367.668 52.7465 368.218 52.7465 368.829C52.7465 369.758 53.0522 370.535 53.6635 371.158ZM69.7001 373.781L66.7292 369.563H65.5005V373.781H63.4648V363.878H65.5005V367.711H66.7475L69.4433 363.878H71.8458L68.4897 368.628L72.2125 373.781H69.7001ZM82.7049 368.848C82.7049 369.031 82.6927 369.257 82.6682 369.526H74.6357C74.758 370.321 75.0881 370.95 75.626 371.415C76.1762 371.88 76.8548 372.112 77.6617 372.112C78.0529 372.112 78.4197 372.057 78.762 371.947C79.1043 371.825 79.4039 371.66 79.6606 371.452C79.9296 371.232 80.1497 370.969 80.3208 370.663H82.4665C82.0753 371.715 81.4517 372.54 80.5959 373.139C79.7401 373.726 78.762 374.019 77.6617 374.019C76.2068 374.019 74.9903 373.524 74.0122 372.534C73.0463 371.543 72.5634 370.309 72.5634 368.829C72.5634 367.35 73.0463 366.115 74.0122 365.125C74.9903 364.134 76.2068 363.639 77.6617 363.639C78.652 363.639 79.5323 363.878 80.3025 364.355C81.0727 364.819 81.6657 365.449 82.0814 366.243C82.4971 367.026 82.7049 367.894 82.7049 368.848ZM77.6617 365.473C76.9037 365.473 76.2557 365.687 75.7177 366.115C75.192 366.543 74.8436 367.13 74.6724 367.876H80.6693C80.547 367.374 80.3453 366.946 80.0641 366.592C79.7829 366.225 79.4344 365.95 79.0188 365.767C78.6153 365.571 78.1629 365.473 77.6617 365.473ZM92.4285 363.878V365.712H88.944V373.781H86.9634V365.712H83.4607V363.878H92.4285ZM94.2149 363.878H102.853V373.781H100.835V365.73H96.2506V373.781H94.2149V363.878ZM107.491 363.878H114.221V373.781H112.222V365.638H109.16L108.719 370.021C108.585 371.415 108.224 372.399 107.637 372.974C107.063 373.549 106.189 373.836 105.015 373.836H104.666V371.965H105.143C106.109 371.965 106.653 371.36 106.775 370.15L107.491 363.878ZM126.529 368.848C126.529 369.031 126.517 369.257 126.492 369.526H118.46C118.582 370.321 118.912 370.95 119.45 371.415C120 371.88 120.679 372.112 121.486 372.112C121.877 372.112 122.244 372.057 122.586 371.947C122.928 371.825 123.228 371.66 123.484 371.452C123.753 371.232 123.974 370.969 124.145 370.663H126.29C125.899 371.715 125.276 372.54 124.42 373.139C123.564 373.726 122.586 374.019 121.486 374.019C120.031 374.019 118.814 373.524 117.836 372.534C116.87 371.543 116.387 370.309 116.387 368.829C116.387 367.35 116.87 366.115 117.836 365.125C118.814 364.134 120.031 363.639 121.486 363.639C122.476 363.639 123.356 363.878 124.126 364.355C124.897 364.819 125.49 365.449 125.905 366.243C126.321 367.026 126.529 367.894 126.529 368.848ZM121.486 365.473C120.728 365.473 120.08 365.687 119.542 366.115C119.016 366.543 118.667 367.13 118.496 367.876H124.493C124.371 367.374 124.169 366.946 123.888 366.592C123.607 366.225 123.258 365.95 122.843 365.767C122.439 365.571 121.987 365.473 121.486 365.473ZM135.421 360.613V362.136H130.506V360.613H135.421ZM135.952 363.878H137.089V373.781H135.146V367.491L129.864 373.781H128.69V363.878H130.652V370.113L135.952 363.878ZM144.447 374.019C142.98 374.019 141.745 373.524 140.743 372.534C139.753 371.531 139.257 370.296 139.257 368.829C139.257 367.35 139.753 366.115 140.743 365.125C141.745 364.134 142.986 363.639 144.466 363.639C145.676 363.639 146.727 363.982 147.62 364.666C148.512 365.351 149.093 366.262 149.362 367.399H147.345C147.088 366.836 146.703 366.396 146.19 366.078C145.676 365.748 145.095 365.583 144.447 365.583C143.873 365.583 143.347 365.724 142.87 366.005C142.393 366.286 142.014 366.678 141.733 367.179C141.464 367.668 141.33 368.218 141.33 368.829C141.33 369.746 141.629 370.516 142.228 371.14C142.827 371.764 143.567 372.075 144.447 372.075C145.095 372.075 145.67 371.91 146.171 371.58C146.685 371.25 147.076 370.779 147.345 370.168H149.399C149.118 371.33 148.525 372.265 147.62 372.974C146.727 373.671 145.67 374.019 144.447 374.019ZM159.743 372.552C158.741 373.53 157.482 374.019 155.966 374.019C154.449 374.019 153.184 373.53 152.169 372.552C151.167 371.562 150.666 370.321 150.666 368.829C150.666 367.851 150.892 366.965 151.344 366.17C151.809 365.375 152.444 364.758 153.251 364.318C154.07 363.866 154.975 363.639 155.966 363.639C156.956 363.639 157.854 363.866 158.661 364.318C159.48 364.758 160.116 365.375 160.569 366.17C161.033 366.965 161.265 367.851 161.265 368.829C161.265 370.321 160.758 371.562 159.743 372.552ZM155.966 372.075C156.589 372.075 157.145 371.941 157.634 371.672C158.123 371.391 158.502 371.006 158.771 370.516C159.053 370.015 159.193 369.453 159.193 368.829C159.193 367.888 158.888 367.112 158.276 366.5C157.677 365.889 156.907 365.583 155.966 365.583C155.024 365.583 154.248 365.889 153.636 366.5C153.037 367.112 152.738 367.888 152.738 368.829C152.738 369.771 153.037 370.547 153.636 371.158C154.248 371.77 155.024 372.075 155.966 372.075ZM170.146 368.609C170.378 368.707 170.586 368.835 170.77 368.994C170.965 369.141 171.13 369.318 171.265 369.526C171.399 369.722 171.503 369.942 171.577 370.186C171.65 370.431 171.687 370.682 171.687 370.938C171.687 371.745 171.393 372.424 170.806 372.974C170.22 373.512 169.486 373.781 168.606 373.781H163.434V363.878H168.532C169.364 363.878 170.042 364.116 170.568 364.593C171.106 365.058 171.375 365.663 171.375 366.409C171.375 366.873 171.265 367.301 171.045 367.692C170.825 368.083 170.525 368.389 170.146 368.609ZM169.358 366.739C169.358 366.396 169.241 366.121 169.009 365.913C168.789 365.706 168.496 365.602 168.129 365.602H165.433V367.876H168.129C168.496 367.876 168.789 367.772 169.009 367.564C169.241 367.356 169.358 367.081 169.358 366.739ZM168.239 372.002C168.642 372.002 168.966 371.886 169.211 371.653C169.468 371.421 169.596 371.128 169.596 370.773C169.596 370.406 169.468 370.107 169.211 369.875C168.954 369.642 168.624 369.526 168.221 369.526H165.433V372.002H168.239Z" fill="white"/>
</g>
<defs>
<clipPath id="clip0_62_3137">
<rect y="0.448639" width="357" height="400" rx="12.226" fill="white"/>
</clipPath>
<clipPath id="clip1_62_3137">
<rect width="298.315" height="66.0205" fill="white" transform="translate(-17.1165 127.599) rotate(-7.42634)"/>
</clipPath>
</defs>
</svg>
