<svg width="357" height="400" viewBox="0 0 357 400" fill="none" xmlns="http://www.w3.org/2000/svg">
<g clip-path="url(#clip0_62_3127)">
<rect width="357" height="400" rx="12.226" fill="#027CFF"/>
<path d="M218.846 24.7979L217.099 32.6656C215.309 40.7284 209.506 47.3081 201.73 50.0912C209.511 52.8763 215.331 59.4431 217.161 67.5029L218.846 74.9246L220.531 67.5029C222.361 59.4431 228.181 52.8763 235.962 50.0912C228.186 47.3081 222.383 40.7284 220.593 32.6656L218.846 24.7979Z" fill="white"/>
<path d="M640.344 -296.16C653.238 -278.68 636.303 -245.824 632.554 -229.247C615.169 -152.365 583.521 -70.3571 532.973 -15.618C497.011 23.326 442.137 98.5688 378.552 84.4718C350.892 78.3393 320.026 68.0077 301.312 52.4062C286.945 40.4275 261.186 8.13047 254.423 -11.1634C246.492 -33.7903 263.153 -72.3405 277.482 -82.9099C307.76 -105.243 370.438 -128.911 401.761 -94.5344C488.582 0.750068 520.368 143.251 458.466 244.423C405.216 331.456 306.842 360.131 201.943 341.883C102.705 324.62 24.695 298.768 -45.5518 220.116C-74.9662 187.182 -96.6368 126.274 -101.896 70.1584C-103.124 57.0507 -101.146 43.8891 -97.2852 31.3029C-82.1741 -17.9535 -63.7523 -63.1851 24.5734 -64.5463C53.2723 -64.9886 110.022 -61.0197 162.867 10.6245C209.094 73.2963 218.612 100.988 192.775 196.493C171.719 248.897 -54.0168 352.494 -78.2413 397.121" stroke="white" stroke-opacity="0.04" stroke-width="17.1164" stroke-linecap="round"/>
<path d="M208.403 47.8906C208.403 47.8906 234.234 42.9594 227.791 65.734C225.295 75.1421 212.892 107.366 201.299 142.571L164.783 246.438C164.783 246.438 160.445 261.848 147.92 262.271C135.396 262.693 119.747 246.979 116.936 243.615C114.661 241.06 73.2038 201.328 59.4098 183.145C55.5266 178.163 51.7608 168.966 64.2578 161.477L147.331 106.795C156.9 100.156 168.56 82.6191 130.78 99.3822L25.0248 146.183C25.0248 146.183 13.0506 150.947 -5.775 140.98L-46.4993 119.044C-46.4993 119.044 -60.5408 105.757 -31.2447 100.784C41.5698 81.5613 129.85 64.5995 208.403 47.8906Z" fill="#2D95FC"/>
<path d="M409.097 268.428C395.772 250.771 364.916 231.518 352.109 223.058C348.604 220.741 347.643 216.059 350.104 212.659C368.967 186.633 382.987 157.741 386.898 140.886C388.623 133.44 382.12 126.675 374.354 127.701L351.796 130.684C344.36 131.668 340.355 134.863 338.833 139.31C325.461 178.372 311.931 196.301 302.217 207.019C296.779 213.022 286.659 209.983 285.614 202.081C283.6 186.856 280.998 167.175 279.152 153.218C278.257 146.449 271.895 141.719 264.94 142.638L223.669 147.627C218.482 148.313 216.281 154.471 219.929 158.101L228.002 166.791C231.002 169.775 232.919 173.635 233.467 177.783L239.142 220.974C240.135 228.486 231.346 233.383 225.144 228.847C204.161 213.5 183.189 179.268 175.071 162.646C172.722 157.835 167.47 155.071 162.023 155.779L139.794 158.665C131.457 159.767 126.388 168.333 129.687 175.847C159.244 243.134 209.708 304.191 284.908 301.59C292.316 301.331 297.863 294.713 296.916 287.555L293.915 264.859C293.054 258.35 297.514 252.068 304.176 251.019C304.41 250.982 304.644 250.951 304.879 250.92C324.516 248.323 350.22 273.475 359.649 285.582C362.361 289.067 366.801 290.821 371.273 290.23L401.164 286.277C409.886 285.124 414.281 275.302 409.097 268.428Z" fill="#409FFC"/>
<path d="M43.2531 102.893L36.2523 135.602C32.4889 153.185 20 167.625 3.14304 173.884L-5.03972 176.922L3.29095 180.015C20.0671 186.244 32.5228 200.578 36.3489 218.06L43.2531 249.605L50.1573 218.06C53.9834 200.578 66.439 186.244 83.2152 180.015L91.5459 176.922L83.3631 173.884C66.5061 167.625 54.0172 153.185 50.2539 135.602L43.2531 102.893Z" fill="white"/>
<path d="M334.993 237.842L332.79 247.632C330.462 257.973 322.982 266.393 312.986 269.922C322.989 273.453 330.491 281.856 332.87 292.194L334.993 301.418L337.116 292.194C339.496 281.856 346.997 273.453 357 269.922C347.004 266.393 339.524 257.973 337.196 247.632L334.993 237.842Z" fill="white"/>
<path d="M96.5857 64.2328L95.3716 70.0419C94.2763 75.2824 90.5865 79.6036 85.5823 81.5063C90.5897 83.4103 94.2899 87.7238 95.4096 92.9627L96.5857 98.4657L97.7618 92.9627C98.8814 87.7238 102.582 83.4103 107.589 81.5063C102.585 79.6036 98.895 75.2824 97.7998 70.0419L96.5857 64.2328Z" fill="#96C8FF"/>
<path d="M41.1675 311.965H43.1628V319.741H39.0548V316.103H26.907V319.741H22.7991V311.965H24.4423C24.7357 311.731 24.9802 311.476 25.1758 311.203C25.391 310.929 25.5866 310.498 25.7627 309.911C25.9583 309.305 26.1148 308.689 26.2322 308.063C26.3495 307.417 26.4767 306.429 26.6136 305.099C26.7701 303.769 26.907 302.449 27.0244 301.138C27.1418 299.808 27.2983 297.95 27.4939 295.563H41.1675V311.965ZM31.3377 299.7C31.103 303.495 30.8194 306.283 30.4868 308.063C30.1543 309.823 29.6652 311.124 29.0197 311.965H36.7368V299.7H31.3377ZM49.315 300.258H60.6412V316.103H56.4453V303.984H52.8068L52.2786 309.618C52.0439 312.005 51.4081 313.697 50.3714 314.694C49.3346 315.692 47.7795 316.191 45.7059 316.191H45.0017V312.318H46.058C46.6449 312.318 47.1339 312.112 47.5252 311.701C47.9164 311.291 48.1511 310.704 48.2294 309.941L49.315 300.258ZM69.6507 300.258H77.5439V316.103H73.4359V310.616H70.9418L67.8902 316.103H63.3128L66.8632 309.882C66.0025 309.413 65.3374 308.796 64.8679 308.034C64.418 307.271 64.193 306.42 64.193 305.481C64.193 303.994 64.7114 302.752 65.7482 301.754C66.785 300.757 68.0858 300.258 69.6507 300.258ZM70.443 307.329H73.4359V303.662H70.443C69.817 303.662 69.3182 303.838 68.9465 304.19C68.5944 304.522 68.4184 304.962 68.4184 305.51C68.4184 305.862 68.4966 306.175 68.6531 306.449C68.8096 306.723 69.0346 306.938 69.328 307.095C69.641 307.251 70.0126 307.329 70.443 307.329ZM96.0422 316.543C94.4773 316.543 93.0493 316.181 91.7582 315.457C90.4867 314.714 89.4793 313.697 88.736 312.406C88.0122 311.115 87.6503 309.687 87.6503 308.122C87.6503 305.755 88.4523 303.779 90.0564 302.194C91.6604 300.61 93.6655 299.818 96.0716 299.818C98.1255 299.818 99.8861 300.414 101.353 301.608C102.82 302.781 103.75 304.346 104.141 306.302H99.8861C99.534 305.539 99.0156 304.943 98.3309 304.512C97.6658 304.063 96.9029 303.838 96.0422 303.838C94.8881 303.838 93.9198 304.248 93.1373 305.07C92.3744 305.892 91.993 306.919 91.993 308.151C91.993 309.383 92.3842 310.42 93.1667 311.261C93.9491 312.102 94.9077 312.523 96.0422 312.523C96.9029 312.523 97.6658 312.298 98.3309 311.848C98.996 311.379 99.5144 310.713 99.8861 309.853H104.199C103.808 311.868 102.869 313.491 101.383 314.724C99.8959 315.936 98.1158 316.543 96.0422 316.543ZM114.557 316.543C112.934 316.543 111.467 316.181 110.156 315.457C108.845 314.733 107.818 313.736 107.075 312.464C106.351 311.173 105.989 309.745 105.989 308.18C105.989 305.774 106.801 303.779 108.425 302.194C110.048 300.61 112.093 299.818 114.557 299.818C117.003 299.818 119.037 300.61 120.661 302.194C122.284 303.779 123.096 305.774 123.096 308.18C123.096 310.567 122.274 312.562 120.631 314.166C119.008 315.751 116.983 316.543 114.557 316.543ZM114.557 312.523C115.79 312.523 116.797 312.122 117.58 311.32C118.362 310.498 118.753 309.452 118.753 308.18C118.753 306.909 118.362 305.872 117.58 305.07C116.797 304.248 115.78 303.838 114.528 303.838C113.296 303.838 112.288 304.248 111.506 305.07C110.723 305.872 110.332 306.909 110.332 308.18C110.332 308.806 110.43 309.393 110.625 309.941C110.841 310.489 111.134 310.948 111.506 311.32C111.877 311.692 112.318 311.985 112.826 312.2C113.354 312.415 113.931 312.523 114.557 312.523ZM140.036 312.171H142.09V319.741H138.217V316.103H126.186V300.258H130.382V312.171H135.84V300.258H140.036V312.171ZM152.406 316.543C150.841 316.543 149.413 316.181 148.122 315.457C146.851 314.714 145.843 313.697 145.1 312.406C144.376 311.115 144.014 309.687 144.014 308.122C144.014 305.755 144.816 303.779 146.42 302.194C148.024 300.61 150.029 299.818 152.435 299.818C154.489 299.818 156.25 300.414 157.717 301.608C159.184 302.781 160.113 304.346 160.505 306.302H156.25C155.898 305.539 155.379 304.943 154.695 304.512C154.03 304.063 153.267 303.838 152.406 303.838C151.252 303.838 150.284 304.248 149.501 305.07C148.738 305.892 148.357 306.919 148.357 308.151C148.357 309.383 148.748 310.42 149.531 311.261C150.313 312.102 151.272 312.523 152.406 312.523C153.267 312.523 154.03 312.298 154.695 311.848C155.36 311.379 155.878 310.713 156.25 309.853H160.563C160.172 311.868 159.233 313.491 157.746 314.724C156.26 315.936 154.48 316.543 152.406 316.543ZM178.756 308.122C178.756 308.532 178.726 308.953 178.668 309.383H166.696C166.872 310.459 167.293 311.291 167.958 311.877C168.642 312.445 169.513 312.728 170.569 312.728C171.293 312.728 171.948 312.572 172.535 312.259C173.122 311.926 173.582 311.476 173.914 310.909H178.433C177.846 312.631 176.848 314 175.44 315.017C174.032 316.034 172.408 316.543 170.569 316.543C168.222 316.543 166.266 315.741 164.701 314.137C163.136 312.533 162.353 310.547 162.353 308.18C162.353 307.241 162.48 306.341 162.735 305.481C163.009 304.62 163.39 303.847 163.879 303.163C164.388 302.478 164.974 301.891 165.64 301.402C166.305 300.894 167.058 300.502 167.899 300.228C168.74 299.955 169.63 299.818 170.569 299.818C172.154 299.818 173.572 300.189 174.824 300.933C176.095 301.676 177.064 302.683 177.729 303.955C178.413 305.226 178.756 306.615 178.756 308.122ZM170.569 303.456C169.611 303.456 168.799 303.72 168.134 304.248C167.488 304.777 167.048 305.51 166.813 306.449H174.472C174.276 305.804 173.992 305.266 173.621 304.835C173.249 304.385 172.799 304.043 172.271 303.808C171.762 303.573 171.195 303.456 170.569 303.456ZM194.46 300.258V304.102H189.296V316.103H185.1V304.102H179.936V300.258H194.46ZM212.081 308.122C212.081 308.532 212.052 308.953 211.993 309.383H200.021C200.197 310.459 200.618 311.291 201.283 311.877C201.968 312.445 202.838 312.728 203.895 312.728C204.618 312.728 205.274 312.572 205.861 312.259C206.447 311.926 206.907 311.476 207.24 310.909H211.758C211.172 312.631 210.174 314 208.765 315.017C207.357 316.034 205.733 316.543 203.895 316.543C201.547 316.543 199.591 315.741 198.026 314.137C196.461 312.533 195.679 310.547 195.679 308.18C195.679 307.241 195.806 306.341 196.06 305.481C196.334 304.62 196.715 303.847 197.204 303.163C197.713 302.478 198.3 301.891 198.965 301.402C199.63 300.894 200.383 300.502 201.224 300.228C202.066 299.955 202.956 299.818 203.895 299.818C205.479 299.818 206.897 300.189 208.149 300.933C209.421 301.676 210.389 302.683 211.054 303.955C211.739 305.226 212.081 306.615 212.081 308.122ZM203.895 303.456C202.936 303.456 202.124 303.72 201.459 304.248C200.814 304.777 200.373 305.51 200.139 306.449H207.797C207.602 305.804 207.318 305.266 206.946 304.835C206.575 304.385 206.125 304.043 205.596 303.808C205.088 303.573 204.521 303.456 203.895 303.456ZM226.398 294.829V297.998H218.329V294.829H226.398ZM226.662 300.258H229.068V316.103H224.931V307.711L217.566 316.103H215.131V300.258H219.268V308.562L226.662 300.258Z" fill="white"/>
<path d="M23.639 336.056H33.267V348.894H31.1397V338.019H25.748V348.894H23.639V336.056ZM44.5512 347.665C43.5487 348.643 42.2894 349.132 40.7734 349.132C39.2574 349.132 37.992 348.643 36.9772 347.665C35.9747 346.675 35.4734 345.434 35.4734 343.942C35.4734 342.964 35.6996 342.078 36.152 341.283C36.6166 340.488 37.2523 339.871 38.0592 339.431C38.8784 338.979 39.7831 338.752 40.7734 338.752C41.7637 338.752 42.6623 338.979 43.4692 339.431C44.2884 339.871 44.9241 340.488 45.3765 341.283C45.8411 342.078 46.0734 342.964 46.0734 343.942C46.0734 345.434 45.566 346.675 44.5512 347.665ZM40.7734 347.188C41.3969 347.188 41.9532 347.054 42.4423 346.785C42.9313 346.504 43.3103 346.119 43.5793 345.629C43.8605 345.128 44.0011 344.566 44.0011 343.942C44.0011 343.001 43.6954 342.225 43.0841 341.613C42.4851 341.002 41.7148 340.696 40.7734 340.696C39.832 340.696 39.0556 341.002 38.4443 341.613C37.8453 342.225 37.5457 343.001 37.5457 343.942C37.5457 344.884 37.8453 345.66 38.4443 346.271C39.0556 346.883 39.832 347.188 40.7734 347.188ZM52.6984 349.132C51.2312 349.132 49.9964 348.637 48.9939 347.647C48.0036 346.644 47.5084 345.409 47.5084 343.942C47.5084 342.463 48.0036 341.228 48.9939 340.238C49.9964 339.247 51.2374 338.752 52.7167 338.752C53.9271 338.752 54.9785 339.095 55.871 339.779C56.7635 340.464 57.3443 341.375 57.6132 342.512H55.5959C55.3392 341.949 54.9541 341.509 54.4406 341.191C53.9271 340.861 53.3463 340.696 52.6984 340.696C52.1237 340.696 51.598 340.837 51.1212 341.118C50.6444 341.399 50.2654 341.791 49.9842 342.292C49.7152 342.781 49.5807 343.331 49.5807 343.942C49.5807 344.859 49.8803 345.629 50.4793 346.253C51.0784 346.877 51.8181 347.188 52.6984 347.188C53.3463 347.188 53.921 347.023 54.4222 346.693C54.9357 346.363 55.327 345.892 55.5959 345.281H57.6499C57.3687 346.443 56.7757 347.378 55.871 348.087C54.9785 348.784 53.921 349.132 52.6984 349.132ZM67.3914 338.991V340.825H63.907V348.894H61.9263V340.825H58.4236V338.991H67.3914ZM73.2858 341.925C74.3739 341.925 75.2542 342.249 75.9266 342.897C76.5991 343.545 76.9353 344.389 76.9353 345.428C76.9353 346.455 76.5991 347.292 75.9266 347.94C75.2542 348.576 74.3739 348.894 73.2858 348.894H69.1779V338.991H71.1768V341.925H73.2858ZM78.6591 338.991H80.6948V348.894H78.6591V338.991ZM73.0474 347.133C73.5976 347.133 74.0438 346.98 74.3861 346.675C74.7285 346.357 74.8996 345.941 74.8996 345.428C74.8996 345.085 74.8202 344.786 74.6612 344.529C74.5145 344.26 74.3006 344.052 74.0194 343.906C73.7382 343.759 73.4142 343.686 73.0474 343.686H71.1768V347.133H73.0474ZM83.4664 351.535V350.471C84.2244 350.288 84.6034 349.762 84.6034 348.894H83.3564V346.565H85.6671V348.729C85.6671 349.511 85.4715 350.141 85.0802 350.618C84.689 351.095 84.1511 351.4 83.4664 351.535ZM97.3998 349.132C95.9327 349.132 94.6978 348.637 93.6953 347.647C92.705 346.644 92.2098 345.409 92.2098 343.942C92.2098 342.463 92.705 341.228 93.6953 340.238C94.6978 339.247 95.9388 338.752 97.4181 338.752C98.6285 338.752 99.6799 339.095 100.572 339.779C101.465 340.464 102.046 341.375 102.315 342.512H100.297C100.041 341.949 99.6555 341.509 99.142 341.191C98.6285 340.861 98.0478 340.696 97.3998 340.696C96.8252 340.696 96.2994 340.837 95.8226 341.118C95.3458 341.399 94.9668 341.791 94.6856 342.292C94.4166 342.781 94.2821 343.331 94.2821 343.942C94.2821 344.859 94.5817 345.629 95.1808 346.253C95.7798 346.877 96.5195 347.188 97.3998 347.188C98.0478 347.188 98.6224 347.023 99.1236 346.693C99.6371 346.363 100.028 345.892 100.297 345.281H102.351C102.07 346.443 101.477 347.378 100.572 348.087C99.6799 348.784 98.6224 349.132 97.3998 349.132ZM112.093 338.991V340.825H108.608V348.894H106.628V340.825H103.125V338.991H112.093ZM121.882 338.991H123.459V348.894H121.809L121.607 347.683C120.653 348.649 119.461 349.132 118.031 349.132C116.551 349.132 115.317 348.637 114.326 347.647C113.348 346.656 112.859 345.422 112.859 343.942C112.859 342.451 113.348 341.216 114.326 340.238C115.317 339.247 116.551 338.752 118.031 338.752C119.486 338.752 120.69 339.241 121.644 340.219L121.882 338.991ZM115.848 346.271C116.472 346.883 117.248 347.188 118.177 347.188C119.119 347.188 119.889 346.883 120.488 346.271C121.1 345.648 121.405 344.871 121.405 343.942C121.405 343.001 121.1 342.225 120.488 341.613C119.889 341.002 119.119 340.696 118.177 340.696C117.566 340.696 117.01 340.837 116.509 341.118C116.02 341.399 115.634 341.791 115.353 342.292C115.072 342.781 114.931 343.331 114.931 343.942C114.931 344.871 115.237 345.648 115.848 346.271ZM134.193 338.991V340.825H130.708V348.894H128.728V340.825H125.225V338.991H134.193ZM140.087 341.925C141.175 341.925 142.056 342.249 142.728 342.897C143.4 343.545 143.737 344.389 143.737 345.428C143.737 346.455 143.4 347.292 142.728 347.94C142.056 348.576 141.175 348.894 140.087 348.894H135.979V338.991H137.978V341.925H140.087ZM139.849 347.133C140.399 347.133 140.845 346.98 141.188 346.675C141.53 346.357 141.701 345.941 141.701 345.428C141.701 345.085 141.622 344.786 141.463 344.529C141.316 344.26 141.102 344.052 140.821 343.906C140.54 343.759 140.216 343.686 139.849 343.686H137.978V347.133H139.849ZM152.948 338.991H154.085V348.894H152.141V342.604L146.86 348.894H145.686V338.991H147.648V345.226L152.948 338.991ZM156.858 351.535V350.471C157.616 350.288 157.995 349.762 157.995 348.894H156.748V346.565H159.059V348.729C159.059 349.511 158.863 350.141 158.472 350.618C158.081 351.095 157.543 351.4 156.858 351.535ZM173.598 338.991H174.735V348.894H172.791V342.604L167.509 348.894H166.335V338.991H168.298V345.226L173.598 338.991ZM182.092 349.132C180.625 349.132 179.391 348.637 178.388 347.647C177.398 346.644 176.903 345.409 176.903 343.942C176.903 342.463 177.398 341.228 178.388 340.238C179.391 339.247 180.631 338.752 182.111 338.752C183.321 338.752 184.373 339.095 185.265 339.779C186.158 340.464 186.738 341.375 187.007 342.512H184.99C184.733 341.949 184.348 341.509 183.835 341.191C183.321 340.861 182.74 340.696 182.092 340.696C181.518 340.696 180.992 340.837 180.515 341.118C180.039 341.399 179.659 341.791 179.378 342.292C179.109 342.781 178.975 343.331 178.975 343.942C178.975 344.859 179.274 345.629 179.873 346.253C180.473 346.877 181.212 347.188 182.092 347.188C182.74 347.188 183.315 347.023 183.816 346.693C184.33 346.363 184.721 345.892 184.99 345.281H187.044C186.763 346.443 186.17 347.378 185.265 348.087C184.373 348.784 183.315 349.132 182.092 349.132ZM196.785 338.991V340.825H193.301V348.894H191.32V340.825H187.818V338.991H196.785ZM206.63 347.665C205.627 348.643 204.368 349.132 202.852 349.132C201.336 349.132 200.07 348.643 199.056 347.665C198.053 346.675 197.552 345.434 197.552 343.942C197.552 342.964 197.778 342.078 198.23 341.283C198.695 340.488 199.331 339.871 200.138 339.431C200.957 338.979 201.862 338.752 202.852 338.752C203.842 338.752 204.741 338.979 205.548 339.431C206.367 339.871 207.003 340.488 207.455 341.283C207.92 342.078 208.152 342.964 208.152 343.942C208.152 345.434 207.644 346.675 206.63 347.665ZM202.852 347.188C203.475 347.188 204.032 347.054 204.521 346.785C205.01 346.504 205.389 346.119 205.658 345.629C205.939 345.128 206.08 344.566 206.08 343.942C206.08 343.001 205.774 342.225 205.163 341.613C204.563 341.002 203.793 340.696 202.852 340.696C201.91 340.696 201.134 341.002 200.523 341.613C199.924 342.225 199.624 343.001 199.624 343.942C199.624 344.884 199.924 345.66 200.523 346.271C201.134 346.883 201.91 347.188 202.852 347.188ZM215.639 338.752C216.617 338.752 217.497 338.979 218.28 339.431C219.062 339.871 219.673 340.488 220.113 341.283C220.554 342.078 220.774 342.964 220.774 343.942C220.774 345.434 220.285 346.675 219.307 347.665C218.341 348.643 217.118 349.132 215.639 349.132C214.367 349.132 213.273 348.735 212.356 347.94V352.452H210.32V338.991H211.696L212.081 340.201C213.035 339.235 214.221 338.752 215.639 338.752ZM213.163 346.271C213.774 346.883 214.545 347.188 215.474 347.188C216.415 347.188 217.191 346.883 217.803 346.271C218.414 345.648 218.72 344.871 218.72 343.942C218.72 343.013 218.414 342.243 217.803 341.632C217.191 341.008 216.421 340.696 215.492 340.696C214.881 340.696 214.324 340.837 213.823 341.118C213.322 341.399 212.931 341.791 212.649 342.292C212.38 342.781 212.246 343.331 212.246 343.942C212.246 344.871 212.552 345.648 213.163 346.271ZM230.227 338.991H231.364V348.894H229.42V342.604L224.138 348.894H222.964V338.991H224.927V345.226L230.227 338.991ZM241.527 338.991H242.664V348.894H240.72V342.604L235.439 348.894H234.265V338.991H236.227V345.226L241.527 338.991ZM245.437 351.535V350.471C246.195 350.288 246.574 349.762 246.574 348.894H245.327V346.565H247.638V348.729C247.638 349.511 247.442 350.141 247.051 350.618C246.66 351.095 246.122 351.4 245.437 351.535ZM29.6909 370.894L26.72 366.676H25.4913V370.894H23.4556V360.991H25.4913V364.824H26.7383L29.4341 360.991H31.8366L28.4805 365.741L32.2033 370.894H29.6909ZM41.632 369.665C40.6295 370.643 39.3702 371.132 37.8542 371.132C36.3382 371.132 35.0728 370.643 34.058 369.665C33.0555 368.675 32.5542 367.434 32.5542 365.942C32.5542 364.964 32.7804 364.078 33.2328 363.283C33.6974 362.488 34.3331 361.871 35.14 361.431C35.9592 360.979 36.8639 360.752 37.8542 360.752C38.8445 360.752 39.7431 360.979 40.55 361.431C41.3692 361.871 42.0049 362.488 42.4573 363.283C42.9219 364.078 43.1542 364.964 43.1542 365.942C43.1542 367.434 42.6468 368.675 41.632 369.665ZM37.8542 369.188C38.4777 369.188 39.034 369.054 39.5231 368.785C40.0121 368.504 40.3911 368.119 40.6601 367.629C40.9413 367.128 41.0819 366.566 41.0819 365.942C41.0819 365.001 40.7762 364.225 40.1649 363.613C39.5658 363.002 38.7956 362.696 37.8542 362.696C36.9128 362.696 36.1364 363.002 35.5251 363.613C34.9261 364.225 34.6265 365.001 34.6265 365.942C34.6265 366.884 34.9261 367.66 35.5251 368.271C36.1364 368.883 36.9128 369.188 37.8542 369.188ZM51.9248 360.991H53.9238V370.894H51.9248V366.749H47.3401V370.894H45.3228V360.991H47.3401V364.879H51.9248V360.991ZM64.6513 360.991V362.825H61.1668V370.894H59.1862V362.825H55.6835V360.991H64.6513ZM75.5591 365.961C75.5591 366.144 75.5469 366.37 75.5225 366.639H67.4899C67.6122 367.434 67.9423 368.064 68.4803 368.528C69.0304 368.993 69.709 369.225 70.5159 369.225C70.9071 369.225 71.2739 369.17 71.6162 369.06C71.9586 368.938 72.2581 368.773 72.5148 368.565C72.7838 368.345 73.0039 368.082 73.1751 367.776H75.3207C74.9295 368.828 74.306 369.653 73.4501 370.252C72.5943 370.839 71.6162 371.132 70.5159 371.132C69.061 371.132 67.8445 370.637 66.8664 369.647C65.9006 368.656 65.4176 367.422 65.4176 365.942C65.4176 364.463 65.9006 363.228 66.8664 362.238C67.8445 361.247 69.061 360.752 70.5159 360.752C71.5062 360.752 72.3865 360.991 73.1567 361.468C73.927 361.932 74.5199 362.562 74.9356 363.356C75.3513 364.139 75.5591 365.007 75.5591 365.961ZM70.5159 362.586C69.7579 362.586 69.1099 362.8 68.572 363.228C68.0462 363.656 67.6978 364.243 67.5266 364.989H73.5235C73.4012 364.487 73.1995 364.059 72.9183 363.705C72.6371 363.338 72.2887 363.063 71.873 362.88C71.4695 362.684 71.0172 362.586 70.5159 362.586ZM84.3226 360.991H86.3216V370.894H84.3226V366.749H79.7378V370.894H77.7206V360.991H79.7378V364.879H84.3226V360.991ZM97.049 360.991V362.825H93.5646V370.894H91.584V362.825H88.0813V360.991H97.049ZM97.6121 366.749V364.769H103.499V366.749H97.6121ZM106.142 360.991H114.78V370.894H112.763V362.843H108.178V370.894H106.142V360.991ZM119.418 360.991H126.149V370.894H124.15V362.751H121.087L120.647 367.134C120.512 368.528 120.152 369.512 119.565 370.087C118.99 370.662 118.116 370.949 116.942 370.949H116.594V369.078H117.071C118.037 369.078 118.581 368.473 118.703 367.263L119.418 360.991ZM137.338 360.991H138.915V370.894H137.264L137.063 369.683C136.109 370.649 134.917 371.132 133.486 371.132C132.007 371.132 130.772 370.637 129.782 369.647C128.804 368.656 128.315 367.422 128.315 365.942C128.315 364.451 128.804 363.216 129.782 362.238C130.772 361.247 132.007 360.752 133.486 360.752C134.941 360.752 136.146 361.241 137.099 362.219L137.338 360.991ZM131.304 368.271C131.928 368.883 132.704 369.188 133.633 369.188C134.575 369.188 135.345 368.883 135.944 368.271C136.555 367.648 136.861 366.871 136.861 365.942C136.861 365.001 136.555 364.225 135.944 363.613C135.345 363.002 134.575 362.696 133.633 362.696C133.022 362.696 132.466 362.837 131.964 363.118C131.475 363.399 131.09 363.791 130.809 364.292C130.528 364.781 130.387 365.331 130.387 365.942C130.387 366.871 130.693 367.648 131.304 368.271ZM148.42 360.991H150.419V370.894H148.42V366.749H143.835V370.894H141.818V360.991H143.835V364.879H148.42V360.991ZM157.423 363.925C158.511 363.925 159.392 364.249 160.064 364.897C160.737 365.545 161.073 366.389 161.073 367.428C161.073 368.455 160.737 369.292 160.064 369.94C159.392 370.576 158.511 370.894 157.423 370.894H153.315V360.991H155.314V363.925H157.423ZM162.797 360.991H164.832V370.894H162.797V360.991ZM157.185 369.133C157.735 369.133 158.181 368.98 158.524 368.675C158.866 368.357 159.037 367.941 159.037 367.428C159.037 367.085 158.958 366.786 158.799 366.529C158.652 366.26 158.438 366.052 158.157 365.906C157.876 365.759 157.552 365.686 157.185 365.686H155.314V369.133H157.185ZM167.604 373.535V372.471C168.362 372.288 168.741 371.762 168.741 370.894H167.494V368.565H169.805V370.729C169.805 371.511 169.609 372.141 169.218 372.618C168.827 373.095 168.289 373.4 167.604 373.535ZM183.683 360.991H185.682V370.894H183.683V366.749H179.098V370.894H177.081V360.991H179.098V364.879H183.683V360.991ZM196.923 369.665C195.92 370.643 194.661 371.132 193.145 371.132C191.629 371.132 190.364 370.643 189.349 369.665C188.346 368.675 187.845 367.434 187.845 365.942C187.845 364.964 188.071 364.078 188.524 363.283C188.988 362.488 189.624 361.871 190.431 361.431C191.25 360.979 192.155 360.752 193.145 360.752C194.135 360.752 195.034 360.979 195.841 361.431C196.66 361.871 197.296 362.488 197.748 363.283C198.213 364.078 198.445 364.964 198.445 365.942C198.445 367.434 197.938 368.675 196.923 369.665ZM193.145 369.188C193.769 369.188 194.325 369.054 194.814 368.785C195.303 368.504 195.682 368.119 195.951 367.629C196.232 367.128 196.373 366.566 196.373 365.942C196.373 365.001 196.067 364.225 195.456 363.613C194.857 363.002 194.086 362.696 193.145 362.696C192.204 362.696 191.427 363.002 190.816 363.613C190.217 364.225 189.917 365.001 189.917 365.942C189.917 366.884 190.217 367.66 190.816 368.271C191.427 368.883 192.204 369.188 193.145 369.188ZM207.326 365.722C207.558 365.82 207.766 365.948 207.949 366.107C208.145 366.254 208.31 366.431 208.444 366.639C208.579 366.835 208.683 367.055 208.756 367.299C208.83 367.544 208.866 367.795 208.866 368.051C208.866 368.858 208.573 369.537 207.986 370.087C207.399 370.625 206.666 370.894 205.785 370.894H200.614V360.991H205.712C206.543 360.991 207.222 361.229 207.748 361.706C208.285 362.171 208.554 362.776 208.554 363.522C208.554 363.986 208.444 364.414 208.224 364.805C208.004 365.197 207.705 365.502 207.326 365.722ZM206.537 363.852C206.537 363.509 206.421 363.234 206.189 363.026C205.969 362.819 205.675 362.715 205.308 362.715H202.613V364.989H205.308C205.675 364.989 205.969 364.885 206.189 364.677C206.421 364.469 206.537 364.194 206.537 363.852ZM205.418 369.115C205.822 369.115 206.146 368.999 206.39 368.767C206.647 368.534 206.776 368.241 206.776 367.886C206.776 367.519 206.647 367.22 206.39 366.988C206.134 366.755 205.804 366.639 205.4 366.639H202.613V369.115H205.418ZM215.27 363.925C216.358 363.925 217.238 364.249 217.911 364.897C218.583 365.545 218.92 366.389 218.92 367.428C218.92 368.455 218.583 369.292 217.911 369.94C217.238 370.576 216.358 370.894 215.27 370.894H211.162V360.991H213.161V363.925H215.27ZM220.643 360.991H222.679V370.894H220.643V360.991ZM215.032 369.133C215.582 369.133 216.028 368.98 216.37 368.675C216.713 368.357 216.884 367.941 216.884 367.428C216.884 367.085 216.804 366.786 216.646 366.529C216.499 366.26 216.285 366.052 216.004 365.906C215.722 365.759 215.398 365.686 215.032 365.686H213.161V369.133H215.032ZM234.987 365.961C234.987 366.144 234.975 366.37 234.95 366.639H226.918C227.04 367.434 227.37 368.064 227.908 368.528C228.458 368.993 229.137 369.225 229.944 369.225C230.335 369.225 230.702 369.17 231.044 369.06C231.386 368.938 231.686 368.773 231.943 368.565C232.212 368.345 232.432 368.082 232.603 367.776H234.749C234.357 368.828 233.734 369.653 232.878 370.252C232.022 370.839 231.044 371.132 229.944 371.132C228.489 371.132 227.272 370.637 226.294 369.647C225.328 368.656 224.846 367.422 224.846 365.942C224.846 364.463 225.328 363.228 226.294 362.238C227.272 361.247 228.489 360.752 229.944 360.752C230.934 360.752 231.814 360.991 232.585 361.468C233.355 361.932 233.948 362.562 234.363 363.356C234.779 364.139 234.987 365.007 234.987 365.961ZM229.944 362.586C229.186 362.586 228.538 362.8 228 363.228C227.474 363.656 227.126 364.243 226.954 364.989H232.951C232.829 364.487 232.627 364.059 232.346 363.705C232.065 363.338 231.717 363.063 231.301 362.88C230.897 362.684 230.445 362.586 229.944 362.586ZM249.031 360.991H250.168V370.894H248.224V364.604L242.943 370.894H241.769V360.991H243.731V367.226L249.031 360.991ZM261.671 368.968H262.954V373.388H261.102V370.894H253.877V373.388H252.024V368.968H253.07C253.351 368.736 253.565 368.381 253.712 367.905C253.871 367.428 254.011 366.706 254.133 365.741C254.256 364.762 254.415 363.179 254.61 360.991H261.671V368.968ZM256.407 362.788C256.273 364.781 256.12 366.211 255.949 367.079C255.778 367.947 255.527 368.577 255.197 368.968H259.672V362.788H256.407ZM274.369 365.961C274.369 366.144 274.357 366.37 274.333 366.639H266.3C266.422 367.434 266.753 368.064 267.291 368.528C267.841 368.993 268.519 369.225 269.326 369.225C269.717 369.225 270.084 369.17 270.426 369.06C270.769 368.938 271.068 368.773 271.325 368.565C271.594 368.345 271.814 368.082 271.985 367.776H274.131C273.74 368.828 273.116 369.653 272.26 370.252C271.405 370.839 270.426 371.132 269.326 371.132C267.871 371.132 266.655 370.637 265.677 369.647C264.711 368.656 264.228 367.422 264.228 365.942C264.228 364.463 264.711 363.228 265.677 362.238C266.655 361.247 267.871 360.752 269.326 360.752C270.316 360.752 271.197 360.991 271.967 361.468C272.737 361.932 273.33 362.562 273.746 363.356C274.162 364.139 274.369 365.007 274.369 365.961ZM269.326 362.586C268.568 362.586 267.92 362.8 267.382 363.228C266.856 363.656 266.508 364.243 266.337 364.989H272.334C272.211 364.487 272.01 364.059 271.729 363.705C271.447 363.338 271.099 363.063 270.683 362.88C270.28 362.684 269.827 362.586 269.326 362.586ZM283.793 360.991H284.93V370.894H282.986V364.604L277.704 370.894H276.531V360.991H278.493V367.226L283.793 360.991Z" fill="white"/>
</g>
<defs>
<clipPath id="clip0_62_3127">
<rect width="357" height="400" rx="12.226" fill="white"/>
</clipPath>
</defs>
</svg>
