<svg width="357" height="401" viewBox="0 0 357 401" fill="none" xmlns="http://www.w3.org/2000/svg">
<g clip-path="url(#clip0_62_3158)">
<rect y="0.897278" width="357" height="400" rx="12.226" fill="#FEB84E"/>
<path d="M776.926 -83.7583C776.889 -62.037 743.731 -45.7041 730.855 -34.6098C671.14 16.8414 596.912 63.9273 523.717 77.8511C471.642 87.7572 382.77 115.587 340.05 66.4266C321.466 45.0407 302.804 18.3729 297.045 -5.30036C292.624 -23.4766 291.135 -64.7607 297.178 -84.2919C304.265 -107.197 340.592 -128.27 358.398 -128.24C396.021 -128.177 460.481 -109.91 465.205 -63.6437C478.298 64.5963 419.066 198.044 309.119 242.534C214.538 280.806 118.409 245.328 44.9517 168.25C-24.5416 95.3327 -71.8627 28.1427 -81.53 -76.8685C-85.5781 -120.84 -66.7591 -182.688 -37.5999 -230.921C-30.7888 -242.187 -21.3687 -251.589 -10.7771 -259.408C30.6738 -290.008 72.3911 -315.404 144.194 -263.948C167.524 -247.229 210.776 -210.276 210.626 -121.251C210.495 -43.3753 201.67 -15.4546 124.083 45.9364C75.9808 75.5305 -167.092 24.4955 -213.114 45.9532" stroke="white" stroke-opacity="0.15" stroke-width="17.1164" stroke-linecap="round"/>
<path d="M39.9448 315.308H41.9401V323.084H37.8322V319.445H25.6844V323.084H21.5764V315.308H23.2196C23.513 315.073 23.7575 314.819 23.9532 314.545C24.1683 314.271 24.364 313.841 24.54 313.254C24.7356 312.648 24.8921 312.031 25.0095 311.405C25.1269 310.76 25.254 309.772 25.3909 308.442C25.5474 307.112 25.6844 305.791 25.8017 304.481C25.9191 303.15 26.0756 301.292 26.2712 298.905H39.9448V315.308ZM30.1151 303.043C29.8803 306.838 29.5967 309.625 29.2642 311.405C28.9316 313.166 28.4426 314.467 27.797 315.308H35.5141V303.043H30.1151ZM48.0924 303.6H59.4186V319.445H55.2226V307.327H51.5841L51.056 312.961C50.8212 315.347 50.1855 317.039 49.1487 318.037C48.1119 319.034 46.5568 319.533 44.4833 319.533H43.779V315.66H44.8354C45.4222 315.66 45.9113 315.455 46.3025 315.044C46.6937 314.633 46.9285 314.046 47.0067 313.283L48.0924 303.6ZM68.4281 303.6H76.3212V319.445H72.2133V313.958H69.7192L66.6675 319.445H62.0901L65.6406 313.225C64.7798 312.755 64.1147 312.139 63.6453 311.376C63.1953 310.613 62.9704 309.762 62.9704 308.823C62.9704 307.337 63.4888 306.094 64.5255 305.097C65.5623 304.099 66.8632 303.6 68.4281 303.6ZM69.2203 310.672H72.2133V307.004H69.2203C68.5944 307.004 68.0955 307.18 67.7239 307.532C67.3718 307.865 67.1957 308.305 67.1957 308.853C67.1957 309.205 67.274 309.518 67.4304 309.792C67.5869 310.065 67.8119 310.281 68.1053 310.437C68.4183 310.594 68.79 310.672 69.2203 310.672ZM94.8196 319.885C93.2546 319.885 91.8266 319.523 90.5356 318.8C89.2641 318.056 88.2566 317.039 87.5133 315.748C86.7895 314.457 86.4276 313.029 86.4276 311.464C86.4276 309.097 87.2297 307.121 88.8337 305.537C90.4378 303.952 92.4428 303.16 94.8489 303.16C96.9029 303.16 98.6634 303.757 100.131 304.95C101.598 306.124 102.527 307.689 102.918 309.645H98.6634C98.3113 308.882 97.7929 308.285 97.1083 307.855C96.4432 307.405 95.6803 307.18 94.8196 307.18C93.6654 307.18 92.6971 307.591 91.9147 308.412C91.1518 309.234 90.7703 310.261 90.7703 311.493C90.7703 312.726 91.1615 313.763 91.944 314.604C92.7265 315.445 93.685 315.865 94.8196 315.865C95.6803 315.865 96.4432 315.64 97.1083 315.191C97.7734 314.721 98.2918 314.056 98.6634 313.195H102.977C102.586 315.21 101.647 316.834 100.16 318.066C98.6732 319.279 96.8931 319.885 94.8196 319.885ZM118.734 303.571H121.932V319.416H118.558L118.206 318.007C116.758 319.259 115.046 319.885 113.071 319.885C110.684 319.885 108.699 319.093 107.114 317.509C105.549 315.905 104.767 313.899 104.767 311.493C104.767 309.107 105.549 307.121 107.114 305.537C108.699 303.952 110.684 303.16 113.071 303.16C115.085 303.16 116.817 303.806 118.264 305.097L118.734 303.571ZM110.312 314.604C111.134 315.425 112.161 315.836 113.393 315.836C114.645 315.836 115.682 315.425 116.504 314.604C117.325 313.782 117.736 312.745 117.736 311.493C117.736 310.241 117.325 309.205 116.504 308.383C115.682 307.561 114.655 307.151 113.423 307.151C112.601 307.151 111.858 307.346 111.193 307.738C110.547 308.109 110.039 308.628 109.667 309.293C109.295 309.938 109.109 310.672 109.109 311.493C109.109 312.745 109.51 313.782 110.312 314.604ZM137.32 298.172V301.341H129.251V298.172H137.32ZM137.584 303.6H139.99V319.445H135.853V311.053L128.488 319.445H126.053V303.6H130.19V311.904L137.584 303.6ZM157.104 303.6V307.444H151.939V319.445H147.744V307.444H142.579V303.6H157.104ZM172.289 303.571H175.488V319.416H172.113L171.761 318.007C170.314 319.259 168.602 319.885 166.626 319.885C164.24 319.885 162.254 319.093 160.67 317.509C159.105 315.905 158.322 313.899 158.322 311.493C158.322 309.107 159.105 307.121 160.67 305.537C162.254 303.952 164.24 303.16 166.626 303.16C168.641 303.16 170.372 303.806 171.82 305.097L172.289 303.571ZM163.868 314.604C164.69 315.425 165.717 315.836 166.949 315.836C168.201 315.836 169.238 315.425 170.059 314.604C170.881 313.782 171.292 312.745 171.292 311.493C171.292 310.241 170.881 309.205 170.059 308.383C169.238 307.561 168.211 307.151 166.978 307.151C166.157 307.151 165.413 307.346 164.748 307.738C164.103 308.109 163.594 308.628 163.223 309.293C162.851 309.938 162.665 310.672 162.665 311.493C162.665 312.745 163.066 313.782 163.868 314.604Z" fill="white"/>
<path d="M28.1932 352.456C26.2981 352.456 24.721 351.833 23.4617 350.586C22.2146 349.327 21.5911 347.737 21.5911 345.818C21.5911 343.898 22.2146 342.315 23.4617 341.068C24.721 339.809 26.2981 339.179 28.1932 339.179C29.1957 339.179 30.1249 339.375 30.9807 339.766C31.8365 340.157 32.5517 340.713 33.1264 341.435C33.7132 342.156 34.1167 342.993 34.3367 343.947H32.2094C31.9038 343.091 31.3964 342.425 30.6873 341.948C29.9782 341.459 29.1468 341.215 28.1932 341.215C26.9094 341.215 25.8458 341.649 25.0022 342.517C24.1586 343.385 23.7368 344.491 23.7368 345.836C23.7368 347.169 24.1586 348.269 25.0022 349.137C25.8458 349.993 26.9094 350.421 28.1932 350.421C29.1712 350.421 30.0209 350.164 30.7423 349.651C31.4636 349.125 31.9649 348.41 32.2461 347.505H34.3917C34.0616 349.009 33.3342 350.213 32.2094 351.118C31.0846 352.01 29.7459 352.456 28.1932 352.456ZM44.2657 342.333V344.167H40.7813V352.236H38.8007V344.167H35.298V342.333H44.2657ZM54.0549 342.333H55.6321V352.236H53.9816L53.7798 351.026C52.8262 351.992 51.6342 352.475 50.2037 352.475C48.7244 352.475 47.4895 351.98 46.4992 350.989C45.5212 349.999 45.0321 348.764 45.0321 347.285C45.0321 345.793 45.5212 344.558 46.4992 343.58C47.4895 342.59 48.7244 342.095 50.2037 342.095C51.6586 342.095 52.8629 342.584 53.8165 343.562L54.0549 342.333ZM48.0214 349.614C48.6449 350.225 49.4213 350.531 50.3504 350.531C51.2918 350.531 52.0621 350.225 52.6612 349.614C53.2725 348.99 53.5781 348.214 53.5781 347.285C53.5781 346.343 53.2725 345.567 52.6612 344.956C52.0621 344.344 51.2918 344.039 50.3504 344.039C49.7391 344.039 49.1829 344.179 48.6816 344.461C48.1925 344.742 47.8074 345.133 47.5262 345.634C47.245 346.123 47.1044 346.673 47.1044 347.285C47.1044 348.214 47.4101 348.99 48.0214 349.614ZM66.3657 342.333V344.167H62.8813V352.236H60.9007V344.167H57.3979V342.333H66.3657ZM72.2601 345.267C73.3483 345.267 74.2285 345.591 74.901 346.239C75.5734 346.887 75.9096 347.731 75.9096 348.77C75.9096 349.797 75.5734 350.635 74.901 351.283C74.2285 351.918 73.3483 352.236 72.2601 352.236H68.1522V342.333H70.1512V345.267H72.2601ZM72.0217 350.476C72.5719 350.476 73.0182 350.323 73.3605 350.017C73.7028 349.699 73.874 349.284 73.874 348.77C73.874 348.428 73.7945 348.128 73.6356 347.872C73.4889 347.603 73.2749 347.395 72.9937 347.248C72.7125 347.101 72.3885 347.028 72.0217 347.028H70.1512V350.476H72.0217ZM85.1213 342.333H86.2583V352.236H84.3143V345.946L79.0327 352.236H77.859V342.333H79.8213V348.569L85.1213 342.333ZM89.0313 354.877V353.813C89.7894 353.63 90.1684 353.104 90.1684 352.236H88.9213V349.907H91.232V352.071C91.232 352.854 91.0364 353.483 90.6452 353.96C90.2539 354.437 89.716 354.743 89.0313 354.877ZM105.11 342.333H107.109V352.236H105.11V348.092H100.526V352.236H98.5083V342.333H100.526V346.221H105.11V342.333ZM118.35 351.008C117.348 351.986 116.088 352.475 114.572 352.475C113.056 352.475 111.791 351.986 110.776 351.008C109.774 350.017 109.272 348.776 109.272 347.285C109.272 346.307 109.499 345.42 109.951 344.626C110.416 343.831 111.051 343.214 111.858 342.773C112.677 342.321 113.582 342.095 114.572 342.095C115.563 342.095 116.461 342.321 117.268 342.773C118.087 343.214 118.723 343.831 119.176 344.626C119.64 345.42 119.872 346.307 119.872 347.285C119.872 348.776 119.365 350.017 118.35 351.008ZM114.572 350.531C115.196 350.531 115.752 350.396 116.241 350.127C116.73 349.846 117.109 349.461 117.378 348.972C117.66 348.471 117.8 347.908 117.8 347.285C117.8 346.343 117.494 345.567 116.883 344.956C116.284 344.344 115.514 344.039 114.572 344.039C113.631 344.039 112.855 344.344 112.243 344.956C111.644 345.567 111.345 346.343 111.345 347.285C111.345 348.226 111.644 349.003 112.243 349.614C112.855 350.225 113.631 350.531 114.572 350.531ZM128.753 347.065C128.985 347.163 129.193 347.291 129.377 347.45C129.572 347.597 129.737 347.774 129.872 347.982C130.006 348.177 130.11 348.397 130.184 348.642C130.257 348.886 130.294 349.137 130.294 349.394C130.294 350.201 130 350.879 129.413 351.429C128.826 351.967 128.093 352.236 127.213 352.236H122.041V342.333H127.139C127.971 342.333 128.649 342.572 129.175 343.048C129.713 343.513 129.982 344.118 129.982 344.864C129.982 345.329 129.872 345.757 129.652 346.148C129.432 346.539 129.132 346.845 128.753 347.065ZM127.965 345.194C127.965 344.852 127.848 344.577 127.616 344.369C127.396 344.161 127.103 344.057 126.736 344.057H124.04V346.331H126.736C127.103 346.331 127.396 346.227 127.616 346.019C127.848 345.812 127.965 345.536 127.965 345.194ZM126.846 350.457C127.249 350.457 127.573 350.341 127.818 350.109C128.075 349.877 128.203 349.583 128.203 349.229C128.203 348.862 128.075 348.562 127.818 348.33C127.561 348.098 127.231 347.982 126.828 347.982H124.04V350.457H126.846ZM140.934 351.008C139.931 351.986 138.672 352.475 137.156 352.475C135.64 352.475 134.375 351.986 133.36 351.008C132.357 350.017 131.856 348.776 131.856 347.285C131.856 346.307 132.082 345.42 132.535 344.626C132.999 343.831 133.635 343.214 134.442 342.773C135.261 342.321 136.166 342.095 137.156 342.095C138.146 342.095 139.045 342.321 139.852 342.773C140.671 343.214 141.307 343.831 141.759 344.626C142.224 345.42 142.456 346.307 142.456 347.285C142.456 348.776 141.949 350.017 140.934 351.008ZM137.156 350.531C137.78 350.531 138.336 350.396 138.825 350.127C139.314 349.846 139.693 349.461 139.962 348.972C140.243 348.471 140.384 347.908 140.384 347.285C140.384 346.343 140.078 345.567 139.467 344.956C138.868 344.344 138.097 344.039 137.156 344.039C136.215 344.039 135.438 344.344 134.827 344.956C134.228 345.567 133.928 346.343 133.928 347.285C133.928 348.226 134.228 349.003 134.827 349.614C135.438 350.225 136.215 350.531 137.156 350.531ZM149.081 352.475C147.614 352.475 146.379 351.98 145.376 350.989C144.386 349.987 143.891 348.752 143.891 347.285C143.891 345.805 144.386 344.571 145.376 343.58C146.379 342.59 147.62 342.095 149.099 342.095C150.31 342.095 151.361 342.437 152.254 343.122C153.146 343.806 153.727 344.717 153.996 345.854H151.979C151.722 345.292 151.337 344.852 150.823 344.534C150.31 344.204 149.729 344.039 149.081 344.039C148.506 344.039 147.981 344.179 147.504 344.461C147.027 344.742 146.648 345.133 146.367 345.634C146.098 346.123 145.963 346.673 145.963 347.285C145.963 348.202 146.263 348.972 146.862 349.596C147.461 350.219 148.201 350.531 149.081 350.531C149.729 350.531 150.304 350.366 150.805 350.036C151.318 349.706 151.71 349.235 151.979 348.624H154.032C153.751 349.785 153.158 350.72 152.254 351.429C151.361 352.126 150.304 352.475 149.081 352.475ZM163.774 342.333V344.167H160.29V352.236H158.309V344.167H154.806V342.333H163.774ZM172.823 342.333H173.96V352.236H172.016V345.946L166.734 352.236H165.56V342.333H167.523V348.569L172.823 342.333ZM176.733 354.877V353.813C177.491 353.63 177.87 353.104 177.87 352.236H176.623V349.907H178.933V352.071C178.933 352.854 178.738 353.483 178.347 353.96C177.955 354.437 177.417 354.743 176.733 354.877ZM29.4952 364.333H30.6322V374.236H28.6883V367.946L23.4067 374.236H22.233V364.333H24.1952V370.569L29.4952 364.333ZM40.1357 364.333H42.1347V374.236H40.1357V370.092H35.551V374.236H33.5337V364.333H35.551V368.221H40.1357V364.333ZM56.4383 369.321C56.4383 370.776 55.9554 371.981 54.9895 372.934C54.0359 373.888 52.8194 374.401 51.34 374.475V377.354H49.3961V374.475C47.9167 374.401 46.6941 373.888 45.7283 372.934C44.7747 371.981 44.2978 370.776 44.2978 369.321C44.2978 367.867 44.7808 366.65 45.7466 365.672C46.7125 364.694 47.929 364.168 49.3961 364.095V361.326H51.34V364.095C52.8072 364.168 54.0236 364.694 54.9895 365.672C55.9554 366.638 56.4383 367.854 56.4383 369.321ZM46.2968 369.303C46.2968 370.208 46.5841 370.966 47.1587 371.577C47.7456 372.188 48.4975 372.525 49.4144 372.586V365.984C48.4975 366.045 47.7456 366.387 47.1587 367.011C46.5841 367.634 46.2968 368.398 46.2968 369.303ZM51.3217 372.586C52.2386 372.525 52.9844 372.188 53.5591 371.577C54.1459 370.966 54.4393 370.208 54.4393 369.303C54.4393 368.398 54.1459 367.634 53.5591 367.011C52.9722 366.387 52.2264 366.045 51.3217 365.984V372.586ZM66.9509 373.008C65.9483 373.986 64.689 374.475 63.173 374.475C61.657 374.475 60.3916 373.986 59.3768 373.008C58.3743 372.017 57.873 370.776 57.873 369.285C57.873 368.307 58.0992 367.42 58.5516 366.626C59.0162 365.831 59.6519 365.214 60.4588 364.773C61.278 364.321 62.1827 364.095 63.173 364.095C64.1633 364.095 65.0619 364.321 65.8689 364.773C66.688 365.214 67.3237 365.831 67.7761 366.626C68.2407 367.42 68.473 368.307 68.473 369.285C68.473 370.776 67.9656 372.017 66.9509 373.008ZM63.173 372.531C63.7965 372.531 64.3528 372.396 64.8419 372.127C65.3309 371.846 65.7099 371.461 65.9789 370.972C66.2601 370.471 66.4007 369.908 66.4007 369.285C66.4007 368.343 66.095 367.567 65.4837 366.956C64.8847 366.344 64.1144 366.039 63.173 366.039C62.2316 366.039 61.4553 366.344 60.844 366.956C60.2449 367.567 59.9453 368.343 59.9453 369.285C59.9453 370.226 60.2449 371.003 60.844 371.614C61.4553 372.225 62.2316 372.531 63.173 372.531ZM75.9599 364.095C76.938 364.095 77.8183 364.321 78.6007 364.773C79.3832 365.214 79.9945 365.831 80.4346 366.626C80.8748 367.42 81.0948 368.307 81.0948 369.285C81.0948 370.776 80.6058 372.017 79.6277 373.008C78.6619 373.986 77.4393 374.475 75.9599 374.475C74.6884 374.475 73.5942 374.077 72.6772 373.283V377.794H70.6416V364.333H72.017L72.4021 365.544C73.3558 364.578 74.5417 364.095 75.9599 364.095ZM73.4841 371.614C74.0954 372.225 74.8657 372.531 75.7949 372.531C76.7363 372.531 77.5126 372.225 78.1239 371.614C78.7352 370.99 79.0409 370.214 79.0409 369.285C79.0409 368.356 78.7352 367.585 78.1239 366.974C77.5126 366.351 76.7424 366.039 75.8132 366.039C75.2019 366.039 74.6456 366.179 74.1443 366.461C73.6431 366.742 73.2518 367.133 72.9706 367.634C72.7017 368.123 72.5672 368.673 72.5672 369.285C72.5672 370.214 72.8728 370.99 73.4841 371.614ZM95.7761 374.236H93.8138L92.6218 367.488L89.3024 374.126H88.8806L85.5796 367.488L84.3876 374.236H82.4253L84.2042 364.333H85.928L89.1007 370.66L92.2917 364.333H93.9972L95.7761 374.236ZM106.099 364.333H107.676V374.236H106.026L105.824 373.026C104.87 373.992 103.678 374.475 102.248 374.475C100.769 374.475 99.5337 373.98 98.5434 372.989C97.5653 371.999 97.0763 370.764 97.0763 369.285C97.0763 367.793 97.5653 366.558 98.5434 365.58C99.5337 364.59 100.769 364.095 102.248 364.095C103.703 364.095 104.907 364.584 105.861 365.562L106.099 364.333ZM100.066 371.614C100.689 372.225 101.465 372.531 102.395 372.531C103.336 372.531 104.106 372.225 104.705 371.614C105.317 370.99 105.622 370.214 105.622 369.285C105.622 368.343 105.317 367.567 104.705 366.956C104.106 366.344 103.336 366.039 102.395 366.039C101.783 366.039 101.227 366.179 100.726 366.461C100.237 366.742 99.8516 367.133 99.5704 367.634C99.2892 368.123 99.1486 368.673 99.1486 369.285C99.1486 370.214 99.4543 370.99 100.066 371.614ZM118.905 372.366H120.225V376.73H118.373V374.236H110.579V364.333H112.578V372.366H116.906V364.333H118.905V372.366ZM129.644 364.333H130.781V374.236H128.837V367.946L123.555 374.236H122.381V364.333H124.344V370.569L129.644 364.333ZM136.451 364.333H141.183V374.236H139.202V370.605H137.13L134.966 374.236H132.747L135.112 370.275C134.513 370.031 134.043 369.664 133.7 369.175C133.358 368.686 133.187 368.117 133.187 367.469C133.187 366.577 133.499 365.831 134.122 365.232C134.746 364.633 135.522 364.333 136.451 364.333ZM136.726 368.826H139.202V366.13H136.726C136.433 366.13 136.17 366.192 135.938 366.314C135.718 366.424 135.547 366.583 135.424 366.791C135.302 366.986 135.241 367.219 135.241 367.488C135.241 367.879 135.375 368.203 135.644 368.46C135.913 368.704 136.274 368.826 136.726 368.826ZM157.052 373.008C156.05 373.986 154.79 374.475 153.274 374.475C151.758 374.475 150.493 373.986 149.478 373.008C148.476 372.017 147.974 370.776 147.974 369.285C147.974 368.307 148.2 367.42 148.653 366.626C149.117 365.831 149.753 365.214 150.56 364.773C151.379 364.321 152.284 364.095 153.274 364.095C154.265 364.095 155.163 364.321 155.97 364.773C156.789 365.214 157.425 365.831 157.877 366.626C158.342 367.42 158.574 368.307 158.574 369.285C158.574 370.776 158.067 372.017 157.052 373.008ZM153.274 372.531C153.898 372.531 154.454 372.396 154.943 372.127C155.432 371.846 155.811 371.461 156.08 370.972C156.361 370.471 156.502 369.908 156.502 369.285C156.502 368.343 156.196 367.567 155.585 366.956C154.986 366.344 154.216 366.039 153.274 366.039C152.333 366.039 151.557 366.344 150.945 366.956C150.346 367.567 150.047 368.343 150.047 369.285C150.047 370.226 150.346 371.003 150.945 371.614C151.557 372.225 152.333 372.531 153.274 372.531ZM173.194 364.333V366.167H169.71V374.236H167.729V366.167H164.226V364.333H173.194ZM183.038 373.008C182.036 373.986 180.777 374.475 179.261 374.475C177.745 374.475 176.479 373.986 175.464 373.008C174.462 372.017 173.961 370.776 173.961 369.285C173.961 368.307 174.187 367.42 174.639 366.626C175.104 365.831 175.739 365.214 176.546 364.773C177.366 364.321 178.27 364.095 179.261 364.095C180.251 364.095 181.149 364.321 181.956 364.773C182.776 365.214 183.411 365.831 183.864 366.626C184.328 367.42 184.561 368.307 184.561 369.285C184.561 370.776 184.053 372.017 183.038 373.008ZM179.261 372.531C179.884 372.531 180.44 372.396 180.929 372.127C181.418 371.846 181.797 371.461 182.066 370.972C182.348 370.471 182.488 369.908 182.488 369.285C182.488 368.343 182.183 367.567 181.571 366.956C180.972 366.344 180.202 366.039 179.261 366.039C178.319 366.039 177.543 366.344 176.932 366.956C176.332 367.567 176.033 368.343 176.033 369.285C176.033 370.226 176.332 371.003 176.932 371.614C177.543 372.225 178.319 372.531 179.261 372.531ZM193.441 369.065C193.674 369.163 193.881 369.291 194.065 369.45C194.26 369.597 194.425 369.774 194.56 369.982C194.694 370.177 194.798 370.397 194.872 370.642C194.945 370.886 194.982 371.137 194.982 371.394C194.982 372.201 194.688 372.879 194.101 373.429C193.515 373.967 192.781 374.236 191.901 374.236H186.729V364.333H191.827C192.659 364.333 193.337 364.572 193.863 365.048C194.401 365.513 194.67 366.118 194.67 366.864C194.67 367.329 194.56 367.757 194.34 368.148C194.12 368.539 193.82 368.845 193.441 369.065ZM192.653 367.194C192.653 366.852 192.537 366.577 192.304 366.369C192.084 366.161 191.791 366.057 191.424 366.057H188.728V368.331H191.424C191.791 368.331 192.084 368.227 192.304 368.019C192.537 367.812 192.653 367.536 192.653 367.194ZM191.534 372.457C191.937 372.457 192.261 372.341 192.506 372.109C192.763 371.877 192.891 371.583 192.891 371.229C192.891 370.862 192.763 370.562 192.506 370.33C192.249 370.098 191.919 369.982 191.516 369.982H188.728V372.457H191.534ZM205.567 364.333H207.144V374.236H205.494L205.292 373.026C204.338 373.992 203.146 374.475 201.716 374.475C200.236 374.475 199.002 373.98 198.011 372.989C197.033 371.999 196.544 370.764 196.544 369.285C196.544 367.793 197.033 366.558 198.011 365.58C199.002 364.59 200.236 364.095 201.716 364.095C203.171 364.095 204.375 364.584 205.329 365.562L205.567 364.333ZM199.533 371.614C200.157 372.225 200.933 372.531 201.862 372.531C202.804 372.531 203.574 372.225 204.173 371.614C204.784 370.99 205.09 370.214 205.09 369.285C205.09 368.343 204.784 367.567 204.173 366.956C203.574 366.344 202.804 366.039 201.862 366.039C201.251 366.039 200.695 366.179 200.194 366.461C199.705 366.742 199.319 367.133 199.038 367.634C198.757 368.123 198.616 368.673 198.616 369.285C198.616 370.214 198.922 370.99 199.533 371.614ZM215.365 364.095C216.343 364.095 217.224 364.321 218.006 364.773C218.789 365.214 219.4 365.831 219.84 366.626C220.28 367.42 220.5 368.307 220.5 369.285C220.5 370.776 220.011 372.017 219.033 373.008C218.067 373.986 216.845 374.475 215.365 374.475C214.094 374.475 213 374.077 212.083 373.283V377.794H210.047V364.333H211.422L211.807 365.544C212.761 364.578 213.947 364.095 215.365 364.095ZM212.889 371.614C213.501 372.225 214.271 372.531 215.2 372.531C216.142 372.531 216.918 372.225 217.529 371.614C218.141 370.99 218.446 370.214 218.446 369.285C218.446 368.356 218.141 367.585 217.529 366.974C216.918 366.351 216.148 366.039 215.219 366.039C214.607 366.039 214.051 366.179 213.55 366.461C213.048 366.742 212.657 367.133 212.376 367.634C212.107 368.123 211.973 368.673 211.973 369.285C211.973 370.214 212.278 370.99 212.889 371.614ZM232.099 369.303C232.099 369.487 232.087 369.713 232.062 369.982H224.03C224.152 370.776 224.482 371.406 225.02 371.871C225.57 372.335 226.249 372.567 227.056 372.567C227.447 372.567 227.814 372.512 228.156 372.402C228.498 372.28 228.798 372.115 229.054 371.907C229.323 371.687 229.544 371.424 229.715 371.119H231.86C231.469 372.17 230.846 372.995 229.99 373.594C229.134 374.181 228.156 374.475 227.056 374.475C225.601 374.475 224.384 373.98 223.406 372.989C222.44 371.999 221.957 370.764 221.957 369.285C221.957 367.805 222.44 366.571 223.406 365.58C224.384 364.59 225.601 364.095 227.056 364.095C228.046 364.095 228.926 364.333 229.696 364.81C230.467 365.275 231.06 365.904 231.475 366.699C231.891 367.481 232.099 368.349 232.099 369.303ZM227.056 365.929C226.298 365.929 225.65 366.143 225.112 366.571C224.586 366.999 224.237 367.585 224.066 368.331H230.063C229.941 367.83 229.739 367.402 229.458 367.047C229.177 366.681 228.828 366.406 228.413 366.222C228.009 366.027 227.557 365.929 227.056 365.929Z" fill="white"/>
<path d="M74.9708 13.1233L67.6062 43.0666C63.255 60.7578 50.0546 74.9351 32.7186 80.5362L21.7876 84.0679L32.8898 87.6549C50.1328 93.226 63.2912 107.284 67.7111 124.858L74.9708 153.723L82.2306 124.858C86.6504 107.284 99.8089 93.226 117.052 87.6549L128.154 84.0679L117.223 80.5362C99.887 74.9351 86.6867 60.7578 82.3355 43.0666L74.9708 13.1233Z" fill="#FFEACC"/>
<path d="M667.839 10.4525C639.281 -63.4562 541.981 -37.6525 496.901 -15.512C416.613 -66.3323 312.62 -50.7482 284.161 4.61369C232.769 2.77217 134.731 21.3321 175.443 113.158C-13.4489 91.1506 57.4625 266.594 189.325 295.129C164.694 348.213 290.355 361.197 381.702 315.207C389.391 353.743 495.39 338.954 508.256 275.491C528.676 306.119 722.751 305.954 644.575 220.459C896.733 235.867 787.721 9.64546 667.839 10.4525Z" fill="#FFB139"/>
<path d="M296.481 12.9042L294.829 20.246C293.083 28.0024 287.473 34.3168 279.976 36.9637C287.478 39.6124 293.104 45.9143 294.889 53.6676L296.481 60.5857L298.073 53.6676C299.858 45.9143 305.484 39.6124 312.986 36.9637C305.489 34.3168 299.879 28.0024 298.134 20.246L296.481 12.9042Z" fill="#FFF9F0"/>
<path d="M279.365 325.89L278.229 330.854C276.984 336.297 273.024 340.715 267.75 342.547C273.028 344.38 276.999 348.79 278.272 354.23L279.365 358.901L280.457 354.23C281.73 348.79 285.701 344.38 290.979 342.547C285.705 340.715 281.746 336.297 280.5 330.854L279.365 325.89Z" fill="#FFF9F0"/>
<rect x="177.087" y="179.121" width="217.773" height="84.4386" rx="28.0006" transform="rotate(6.10278 177.087 179.121)" fill="white"/>
<path d="M272.618 220.42L278.616 221.061L267.613 246.765L262.488 246.217L258.118 230.697L250.794 244.967L245.669 244.42L240.118 216.946L246.231 217.6L249.546 235.81L258.39 219.168L260.326 219.375L265.643 237.53L272.618 220.42ZM285.727 243.286L296.319 244.418L295.747 249.772L279.384 248.023L282.224 221.446L298.17 223.15L297.602 228.466L287.427 227.378L286.867 232.618L296.055 233.6L295.499 238.801L286.311 237.819L285.727 243.286ZM318.072 237.988C319.172 238.72 319.978 239.676 320.492 240.858C321.034 242.016 321.229 243.304 321.078 244.722C320.85 246.848 319.834 248.57 318.029 249.887C316.25 251.207 314.209 251.744 311.905 251.498L300.591 250.289L303.432 223.713L314.442 224.889C316.72 225.133 318.548 225.994 319.926 227.472C321.306 228.925 321.893 230.626 321.684 232.575C321.563 233.714 321.182 234.762 320.542 235.717C319.902 236.673 319.079 237.43 318.072 237.988ZM316.006 232.89C316.052 232.46 316.017 232.072 315.9 231.727C315.811 231.359 315.654 231.035 315.428 230.755C315.202 230.475 314.906 230.251 314.539 230.084C314.201 229.894 313.804 229.775 313.349 229.726L308.565 229.215L307.961 234.872L312.744 235.383C313.656 235.481 314.404 235.305 314.99 234.855C315.578 234.38 315.917 233.725 316.006 232.89ZM311.9 246.16C312.836 246.26 313.625 246.063 314.267 245.568C314.909 245.074 315.277 244.383 315.372 243.498C315.464 242.637 315.248 241.897 314.726 241.278C314.203 240.659 313.473 240.299 312.537 240.199L307.449 239.656L306.812 245.616L311.9 246.16Z" fill="black"/>
<g clip-path="url(#clip1_62_3158)">
<rect x="84.3596" y="138.205" width="300.16" height="84.4386" rx="28.0006" transform="rotate(-10.0303 84.3596 138.205)" fill="white"/>
<path d="M151.019 183.682L144.402 184.853L136.144 176.31L137.86 186.01L132.37 186.981L128.778 166.678L134.268 165.707L135.864 174.731L140.434 164.616L146.675 163.512L141.511 174.43L151.019 183.682ZM162.328 182.263C160.247 182.631 158.285 182.5 156.442 181.87C154.598 181.239 153.056 180.194 151.815 178.733C150.595 177.243 149.808 175.495 149.453 173.49C148.908 170.407 149.495 167.666 151.217 165.267C152.938 162.869 155.378 161.39 158.536 160.832C161.669 160.277 164.456 160.831 166.895 162.494C169.335 164.156 170.828 166.528 171.373 169.612C171.914 172.67 171.314 175.413 169.572 177.84C167.851 180.239 165.436 181.713 162.328 182.263ZM161.416 177.112C162.996 176.833 164.196 176.09 165.016 174.885C165.833 173.655 166.097 172.225 165.808 170.596C165.52 168.967 164.784 167.727 163.599 166.877C162.411 166.001 161.014 165.706 159.41 165.989C157.831 166.269 156.633 167.023 155.817 168.254C154.996 169.459 154.729 170.876 155.018 172.505C155.16 173.307 155.418 174.037 155.793 174.695C156.193 175.348 156.673 175.87 157.233 176.262C157.794 176.654 158.424 176.93 159.125 177.091C159.85 177.247 160.614 177.254 161.416 177.112ZM203.453 174.405L198.151 175.343L194.109 163.456L189.999 176.824L188.946 177.011L180.499 165.864L180.781 178.417L175.479 179.355L175.271 158.453L179.971 157.621L187.909 168.082L191.852 155.519L196.514 154.694L203.453 174.405ZM203.682 153.426L222.03 150.18L225.622 170.483L220.17 171.448L217.456 156.107L210.012 157.424L212.726 172.765L207.274 173.729L203.682 153.426ZM243.866 146.278L247.964 145.553L251.556 165.856L247.232 166.621L246.462 164.896C244.891 166.828 242.839 168.019 240.308 168.467C237.25 169.008 234.526 168.443 232.136 166.771C229.767 165.071 228.31 162.679 227.765 159.596C227.224 156.538 227.776 153.816 229.422 151.431C231.093 149.042 233.458 147.576 236.516 147.035C239.098 146.578 241.462 147.013 243.61 148.339L243.866 146.278ZM235.576 162.324C236.815 163.191 238.224 163.484 239.803 163.205C241.408 162.921 242.643 162.159 243.509 160.92C244.376 159.681 244.667 158.26 244.383 156.656C244.1 155.051 243.338 153.816 242.099 152.95C240.86 152.083 239.451 151.789 237.872 152.069C236.819 152.255 235.911 152.674 235.147 153.326C234.405 153.949 233.87 154.729 233.545 155.665C233.215 156.576 233.143 157.559 233.329 158.611C233.613 160.216 234.362 161.453 235.576 162.324ZM266.109 142.381L271.599 141.41L275.191 161.713L269.701 162.684L268.324 154.902L260.955 156.205L262.332 163.988L256.843 164.959L253.251 144.656L258.74 143.685L260.07 151.205L267.44 149.901L266.109 142.381ZM291.636 137.865L294.719 137.319L298.311 157.623L293.01 158.561L291.108 147.807L283.573 160.23L280.452 160.782L276.86 140.479L282.161 139.541L284.044 150.182L291.636 137.865ZM306.271 135.276L316.385 133.486L319.977 153.79L314.713 154.721L313.469 147.69L310.273 148.255L307.607 155.978L301.742 157.016L304.881 148.24C303.672 147.834 302.68 147.195 301.905 146.324C301.156 145.448 300.674 144.409 300.462 143.206C300.125 141.301 300.507 139.591 301.61 138.078C302.712 136.565 304.266 135.63 306.271 135.276ZM308.889 144.157L312.724 143.479L311.893 138.779L308.058 139.458C307.256 139.599 306.656 139.938 306.26 140.474C305.884 140.98 305.758 141.583 305.882 142.285C305.962 142.736 306.134 143.12 306.396 143.435C306.659 143.751 306.996 143.975 307.407 144.109C307.844 144.239 308.338 144.255 308.889 144.157ZM351.754 148.167L346.453 149.105L342.411 137.218L338.301 150.587L337.248 150.773L328.8 139.626L329.082 152.179L323.781 153.117L323.573 132.215L328.273 131.383L336.211 141.844L340.154 129.281L344.816 128.456L351.754 148.167Z" fill="black"/>
</g>
<rect x="80.3035" y="135.368" width="307.16" height="91.4386" rx="31.5006" transform="rotate(-10.0303 80.3035 135.368)" stroke="#FFB139" stroke-width="7"/>
</g>
<defs>
<clipPath id="clip0_62_3158">
<rect y="0.897278" width="357" height="400" rx="12.226" fill="white"/>
</clipPath>
<clipPath id="clip1_62_3158">
<rect x="84.3596" y="138.205" width="300.16" height="84.4386" rx="28.0006" transform="rotate(-10.0303 84.3596 138.205)" fill="white"/>
</clipPath>
</defs>
</svg>
