<svg width="109" height="18" viewBox="0 0 109 18" fill="none" xmlns="http://www.w3.org/2000/svg">
<path d="M6.58166 18C4.70356 18 3.13294 17.3779 1.86979 16.1337C0.623264 14.8895 0 13.3506 0 11.5171C0 9.68349 0.623264 8.14461 1.86979 6.90041C3.13294 5.65621 4.70356 5.03411 6.58166 5.03411C7.79495 5.03411 8.9002 5.3206 9.89742 5.89359C10.8946 6.46658 11.6509 7.23602 12.1661 8.20191L9.39881 9.79809C9.14951 9.29059 8.76724 8.8895 8.25201 8.59482C7.7534 8.30014 7.1883 8.1528 6.55673 8.1528C5.59275 8.1528 4.79497 8.47203 4.1634 9.11051C3.53183 9.73261 3.21604 10.5348 3.21604 11.5171C3.21604 12.4829 3.53183 13.2851 4.1634 13.9236C4.79497 14.5457 5.59275 14.8568 6.55673 14.8568C7.20492 14.8568 7.77833 14.7176 8.27694 14.4393C8.79217 14.1446 9.17444 13.7435 9.42374 13.236L12.216 14.8076C11.6675 15.7735 10.8946 16.5512 9.89742 17.1405C8.9002 17.7135 7.79495 18 6.58166 18Z" fill="#353535"/>
<path d="M24.3425 16.1337C23.0628 17.3779 21.5004 18 19.6556 18C17.8107 18 16.2484 17.3779 14.9686 16.1337C13.7055 14.8731 13.0739 13.3342 13.0739 11.5171C13.0739 9.69986 13.7055 8.16917 14.9686 6.92497C16.2484 5.66439 17.8107 5.03411 19.6556 5.03411C21.5004 5.03411 23.0628 5.66439 24.3425 6.92497C25.6223 8.16917 26.2622 9.69986 26.2622 11.5171C26.2622 13.3342 25.6223 14.8731 24.3425 16.1337ZM17.2373 13.9482C17.8855 14.5866 18.6916 14.9059 19.6556 14.9059C20.6196 14.9059 21.4257 14.5866 22.0738 13.9482C22.722 13.3097 23.0461 12.4993 23.0461 11.5171C23.0461 10.5348 22.722 9.72442 22.0738 9.08595C21.4257 8.44748 20.6196 8.12824 19.6556 8.12824C18.6916 8.12824 17.8855 8.44748 17.2373 9.08595C16.6057 9.72442 16.29 10.5348 16.29 11.5171C16.29 12.4993 16.6057 13.3097 17.2373 13.9482Z" fill="#353535"/>
<path d="M35.4553 5.03411C36.8182 5.03411 37.9401 5.48431 38.8209 6.38472C39.7184 7.28513 40.1672 8.52933 40.1672 10.1173V17.6562H36.9511V10.5102C36.9511 9.69168 36.7268 9.06958 36.278 8.64393C35.8293 8.20191 35.2309 7.9809 34.483 7.9809C33.652 7.9809 32.9872 8.23465 32.4886 8.74216C31.99 9.24966 31.7407 10.0109 31.7407 11.0259V17.6562H28.5246V5.3779H31.7407V6.75307C32.5218 5.60709 33.76 5.03411 35.4553 5.03411Z" fill="#353535"/>
<path d="M50.0434 8.42292H47.2262V13.5307C47.2262 13.9563 47.3343 14.2674 47.5503 14.4638C47.7664 14.6603 48.0822 14.7749 48.4977 14.8076C48.9132 14.824 49.4284 14.8158 50.0434 14.7831V17.6562C47.8329 17.9018 46.2705 17.6971 45.3564 17.0423C44.4589 16.3874 44.0102 15.2169 44.0102 13.5307V8.42292H41.8412V5.3779H44.0102V2.89768L47.2262 1.93997V5.3779H50.0434V8.42292Z" fill="#353535"/>
<path d="M54.6388 12.8186C55.0709 14.3574 56.2426 15.1269 58.154 15.1269C59.3839 15.1269 60.3146 14.7176 60.9462 13.899L63.539 15.3724C62.3091 17.1241 60.4974 18 58.1041 18C56.0432 18 54.3895 17.3861 53.1429 16.1583C51.8964 14.9304 51.2731 13.3834 51.2731 11.5171C51.2731 9.66712 51.8881 8.12824 53.118 6.90041C54.3479 5.65621 55.9268 5.03411 57.8548 5.03411C59.6831 5.03411 61.1872 5.65621 62.3672 6.90041C63.5639 8.14461 64.1622 9.68349 64.1622 11.5171C64.1622 11.9263 64.1207 12.3602 64.0376 12.8186H54.6388ZM54.5889 10.3629H60.9462C60.7634 9.52797 60.3811 8.90587 59.7994 8.49659C59.2343 8.08731 58.5861 7.88267 57.8548 7.88267C56.9906 7.88267 56.2759 8.10368 55.7108 8.5457C55.1457 8.97135 54.7717 9.57708 54.5889 10.3629Z" fill="#353535"/>
<path d="M73.338 5.03411C74.7009 5.03411 75.8228 5.48431 76.7037 6.38472C77.6012 7.28513 78.0499 8.52933 78.0499 10.1173V17.6562H74.8339V10.5102C74.8339 9.69168 74.6095 9.06958 74.1607 8.64393C73.712 8.20191 73.1137 7.9809 72.3657 7.9809C71.5347 7.9809 70.8699 8.23465 70.3713 8.74216C69.8727 9.24966 69.6234 10.0109 69.6234 11.0259V17.6562H66.4073V5.3779H69.6234V6.75307C70.4045 5.60709 71.6428 5.03411 73.338 5.03411Z" fill="#353535"/>
<path d="M87.9261 8.42292H85.1089V13.5307C85.1089 13.9563 85.217 14.2674 85.433 14.4638C85.6491 14.6603 85.9649 14.7749 86.3804 14.8076C86.7959 14.824 87.3111 14.8158 87.9261 14.7831V17.6562C85.7156 17.9018 84.1533 17.6971 83.2392 17.0423C82.3417 16.3874 81.8929 15.2169 81.8929 13.5307V8.42292H79.724V5.3779H81.8929V2.89768L85.1089 1.93997V5.3779H87.9261V8.42292Z" fill="#353535"/>
<path d="M99.2777 5.3779H102.494V17.6562H99.2777V16.2074C98.3137 17.4025 96.9591 18 95.214 18C93.5519 18 92.1226 17.3779 90.9259 16.1337C89.7459 14.8731 89.1559 13.3342 89.1559 11.5171C89.1559 9.69986 89.7459 8.16917 90.9259 6.92497C92.1226 5.66439 93.5519 5.03411 95.214 5.03411C96.9591 5.03411 98.3137 5.63165 99.2777 6.82674V5.3779ZM93.3442 14.0218C93.9924 14.6603 94.8151 14.9795 95.8123 14.9795C96.8095 14.9795 97.6323 14.6603 98.2804 14.0218C98.9453 13.367 99.2777 12.5321 99.2777 11.5171C99.2777 10.502 98.9453 9.67531 98.2804 9.03683C97.6323 8.38199 96.8095 8.05457 95.8123 8.05457C94.8151 8.05457 93.9924 8.38199 93.3442 9.03683C92.696 9.67531 92.3719 10.502 92.3719 11.5171C92.3719 12.5321 92.696 13.367 93.3442 14.0218Z" fill="#353535"/>
<path d="M107.006 3.9045C106.474 3.9045 106.008 3.71624 105.609 3.3397C105.227 2.94679 105.036 2.4884 105.036 1.96453C105.036 1.44066 105.227 0.982265 105.609 0.589358C106.008 0.196453 106.474 0 107.006 0C107.554 0 108.019 0.196453 108.402 0.589358C108.801 0.982265 109 1.44066 109 1.96453C109 2.4884 108.801 2.94679 108.402 3.3397C108.019 3.71624 107.554 3.9045 107.006 3.9045ZM105.41 17.6562V5.3779H108.626V17.6562H105.41Z" fill="#353535"/>
</svg>
