<svg width="119" height="35" viewBox="0 0 119 35" fill="none" xmlns="http://www.w3.org/2000/svg">
<path d="M18.7228 17.0262C19.5734 13.6399 20.4241 10.1949 21.2747 6.69132C23.165 6.46339 25.0553 6.24849 26.9456 6.04661C25.0553 12.4286 23.165 18.5892 21.2747 24.5283C19.6207 24.867 17.9667 25.2121 16.3127 25.5638C15.3675 22.6528 14.4224 19.6702 13.4772 16.616C12.5321 20.0349 11.5869 23.4343 10.6418 26.8141C8.98186 27.1918 7.32489 27.5663 5.67089 27.9375C3.78059 22.096 1.8903 16.1243 0 10.0223C1.8903 9.70974 3.78059 9.3939 5.67089 9.0748C6.52152 12.37 7.37215 15.6294 8.22279 18.8529C9.14431 15.3298 10.0688 11.7774 10.9962 8.19565C12.6443 7.93516 14.2983 7.67792 15.9582 7.42395C16.8738 10.6931 17.7954 13.8939 18.7228 17.0262Z" fill="#D6D6D6"/>
<path d="M43.5329 21.3536C41.7342 22.5258 39.5101 22.9263 36.8696 22.8189C34.2203 22.9166 31.9962 22.4086 30.2063 21.0996C28.381 19.7028 27.4772 17.7589 27.4772 15.2386C27.4772 12.65 28.381 10.2958 30.2063 8.22495C32.0228 6.13452 34.2468 5.02093 36.8696 4.98186C39.4924 5.01116 41.7076 6.14429 43.5329 8.29333C45.3494 10.4424 46.262 12.8942 46.262 15.5708C46.262 18.1594 45.3494 20.0837 43.5329 21.3536ZM32.7937 14.8577C32.7937 16.0299 33.1835 16.9481 33.9633 17.6319C34.743 18.3059 35.7089 18.6282 36.8696 18.638C38.0215 18.6673 38.9962 18.3743 39.776 17.7198C40.5557 17.0751 40.9456 16.1666 40.9456 14.9847C40.9456 13.7831 40.5557 12.7379 39.776 11.9076C38.9962 11.0675 38.0215 10.628 36.8696 10.6182C35.7089 10.6084 34.743 11.0285 33.9633 11.8392C33.1835 12.65 32.7937 13.6659 32.7937 14.8577Z" fill="#D6D6D6"/>
<path d="M64.4354 27.4588C62.6367 29.0706 60.4215 29.3148 57.7722 28.2989C55.1228 27.2928 52.9076 25.5735 51.1089 23.1998C49.2924 20.9336 48.3797 18.5501 48.3797 15.9029C48.3797 13.1775 49.2924 10.921 51.1089 9.14318C52.9253 7.3458 55.1494 6.63271 57.7722 7.04298C60.3949 7.47279 62.619 8.8892 64.4354 11.3118C66.2519 13.7734 67.1646 16.6062 67.1646 19.8102C67.1646 23.1021 66.2519 25.7005 64.4354 27.4588ZM53.6962 16.909C53.6962 18.2375 54.0861 19.4097 54.8658 20.4452C55.6456 21.4904 56.6114 22.1839 57.7722 22.5063C58.9329 22.8384 59.8987 22.6626 60.6785 21.9593C61.4582 21.2364 61.8481 20.1521 61.8481 18.6869C61.8481 17.2411 61.4582 15.9713 60.6785 14.9065C59.8987 13.8515 58.9329 13.2263 57.7722 13.0114C56.6114 12.8063 55.6456 13.0701 54.8658 13.8124C54.0861 14.5353 53.6962 15.5708 53.6962 16.909Z" fill="#D6D6D6"/>
<path d="M80.757 9.75858C83.0785 9.78789 85.0722 10.8624 86.7468 13.0114C88.4038 15.1605 89.2279 17.8956 89.2279 21.2755C89.2279 24.7921 88.4038 27.9179 86.7468 30.6238C85.0987 33.4371 83.0962 34.9512 80.757 35C78.4709 34.8437 76.7076 33.4859 75.476 31.122C75.476 31.9425 75.476 32.7663 75.476 33.5934C73.7038 33.1701 71.9317 32.6979 70.1595 32.1769C70.1654 21.3341 70.1683 11.0838 70.1683 1.42618C71.9405 1.65411 73.7127 1.86576 75.4848 2.06112C75.4848 5.2977 75.4848 8.62871 75.4848 12.0541C76.7164 10.4326 78.4798 9.68044 80.757 9.75858ZM76.6456 25.5149C77.4519 26.6969 78.4709 27.3416 79.6937 27.4198C80.9253 27.4784 81.9266 26.9411 82.7063 25.8373C83.5126 24.7432 83.9114 23.3073 83.9114 21.5197C83.9114 19.7809 83.5126 18.4036 82.7063 17.4072C81.9266 16.4011 80.9253 15.8931 79.6937 15.8443C78.4709 15.7857 77.4519 16.2155 76.6456 17.1435C75.8658 18.0714 75.476 19.3902 75.476 21.1192C75.476 22.8872 75.8658 24.3525 76.6456 25.5149Z" fill="#D6D6D6"/>
<path d="M97.557 31.6495C95.7848 32.0597 94.0127 32.457 92.2405 32.8412C92.2405 21.5164 92.2405 10.7615 92.2405 0.576333C94.0127 0.387478 95.7848 0.195367 97.557 0C97.557 10.2503 97.557 20.8001 97.557 31.6495Z" fill="#D6D6D6"/>
<path d="M118.787 21.0117C114.593 21.0768 110.399 21.3373 106.205 21.7932C106.79 23.6199 108.208 24.3427 110.458 24.0106C111.894 23.825 113.028 23.2291 113.852 22.2132C115.276 22.9491 116.696 23.6752 118.114 24.3916C116.386 26.8532 113.808 28.4943 110.387 29.2171C107.428 29.9009 105.044 29.4223 103.228 27.6933C101.456 25.8861 100.57 23.2975 100.57 20.0154C100.57 16.8113 101.438 14.0469 103.192 11.7318C104.965 9.446 107.233 8.20542 109.997 8.04912C112.567 7.98074 114.711 9.09433 116.413 11.3215C118.132 13.5292 119 16.108 119 18.9311C119 19.693 118.92 20.3865 118.787 21.0117ZM106.099 17.1825C108.639 16.9807 111.179 16.8341 113.719 16.743C113.196 14.6525 111.947 13.5878 109.962 13.6464C107.906 13.7636 106.613 14.9553 106.099 17.1825Z" fill="#D6D6D6"/>
</svg>
